G04 EAGLE Gerber RS-274X export*
G75*
%MOMM*%
%FSLAX34Y34*%
%LPD*%
%AMOC8*
5,1,8,0,0,1.08239X$1,22.5*%
G01*
%ADD10R,1.700000X0.900000*%
%ADD11R,0.900000X1.700000*%
%ADD12C,5.334000*%
%ADD13R,1.650000X1.650000*%
%ADD14C,1.650000*%
%ADD15R,1.524000X4.064000*%
%ADD16R,1.016000X2.032000*%
%ADD17R,0.762000X0.457200*%
%ADD18R,0.457200X0.762000*%
%ADD19R,0.900000X0.600000*%
%ADD20C,0.152400*%
%ADD21C,0.756400*%
%ADD22C,0.508000*%

G36*
X286757Y499168D02*
X286757Y499168D01*
X286759Y499226D01*
X286737Y499308D01*
X286725Y499392D01*
X286702Y499445D01*
X286687Y499501D01*
X286644Y499574D01*
X286609Y499651D01*
X286571Y499696D01*
X286542Y499746D01*
X286480Y499804D01*
X286426Y499868D01*
X286377Y499900D01*
X286334Y499940D01*
X286259Y499979D01*
X286189Y500026D01*
X286133Y500043D01*
X286081Y500070D01*
X286013Y500081D01*
X285918Y500111D01*
X285818Y500114D01*
X285750Y500125D01*
X264652Y500125D01*
X264594Y500117D01*
X264536Y500119D01*
X264454Y500097D01*
X264371Y500085D01*
X264317Y500062D01*
X264261Y500047D01*
X264188Y500004D01*
X264111Y499969D01*
X264066Y499931D01*
X264016Y499902D01*
X263958Y499840D01*
X263894Y499786D01*
X263862Y499737D01*
X263822Y499694D01*
X263783Y499619D01*
X263737Y499549D01*
X263719Y499493D01*
X263692Y499441D01*
X263681Y499373D01*
X263651Y499278D01*
X263648Y499178D01*
X263637Y499110D01*
X263637Y490473D01*
X263398Y490473D01*
X263378Y490470D01*
X263359Y490472D01*
X263257Y490450D01*
X263155Y490433D01*
X263138Y490424D01*
X263118Y490420D01*
X263029Y490367D01*
X262938Y490318D01*
X262924Y490304D01*
X262907Y490294D01*
X262840Y490215D01*
X262768Y490140D01*
X262760Y490122D01*
X262747Y490107D01*
X262708Y490011D01*
X262665Y489917D01*
X262663Y489897D01*
X262655Y489879D01*
X262637Y489712D01*
X262637Y488188D01*
X262640Y488168D01*
X262638Y488149D01*
X262660Y488047D01*
X262676Y487945D01*
X262686Y487928D01*
X262690Y487908D01*
X262743Y487819D01*
X262792Y487728D01*
X262806Y487714D01*
X262816Y487697D01*
X262895Y487630D01*
X262970Y487559D01*
X262988Y487550D01*
X263003Y487537D01*
X263099Y487498D01*
X263193Y487455D01*
X263213Y487453D01*
X263231Y487445D01*
X263398Y487427D01*
X263637Y487427D01*
X263637Y478282D01*
X263645Y478224D01*
X263643Y478166D01*
X263665Y478084D01*
X263677Y478001D01*
X263701Y477947D01*
X263715Y477891D01*
X263758Y477818D01*
X263793Y477741D01*
X263831Y477696D01*
X263861Y477646D01*
X263922Y477588D01*
X263977Y477524D01*
X264025Y477492D01*
X264068Y477452D01*
X264143Y477413D01*
X264213Y477367D01*
X264269Y477349D01*
X264321Y477322D01*
X264389Y477311D01*
X264484Y477281D01*
X264584Y477278D01*
X264652Y477267D01*
X277877Y477267D01*
X277877Y466089D01*
X271445Y466089D01*
X270799Y466262D01*
X270220Y466597D01*
X269747Y467070D01*
X269412Y467649D01*
X269239Y468295D01*
X269239Y473964D01*
X269236Y473984D01*
X269238Y474003D01*
X269216Y474105D01*
X269199Y474207D01*
X269190Y474224D01*
X269186Y474244D01*
X269133Y474333D01*
X269084Y474424D01*
X269070Y474438D01*
X269060Y474455D01*
X268981Y474522D01*
X268906Y474593D01*
X268888Y474602D01*
X268873Y474615D01*
X268777Y474654D01*
X268683Y474697D01*
X268663Y474699D01*
X268645Y474707D01*
X268478Y474725D01*
X264184Y474725D01*
X263279Y474968D01*
X262468Y475436D01*
X262430Y475474D01*
X262372Y475516D01*
X262320Y475565D01*
X262273Y475587D01*
X262231Y475617D01*
X262162Y475638D01*
X262097Y475669D01*
X262045Y475674D01*
X261996Y475690D01*
X261924Y475688D01*
X261853Y475696D01*
X261802Y475685D01*
X261750Y475683D01*
X261682Y475659D01*
X261612Y475643D01*
X261567Y475617D01*
X261519Y475599D01*
X261463Y475554D01*
X261401Y475517D01*
X261367Y475478D01*
X261327Y475445D01*
X261288Y475385D01*
X261241Y475330D01*
X261222Y475282D01*
X261194Y475238D01*
X261176Y475169D01*
X261149Y475102D01*
X261141Y475031D01*
X261133Y475000D01*
X261135Y474976D01*
X261131Y474935D01*
X261131Y467781D01*
X259929Y466579D01*
X259352Y466579D01*
X259332Y466576D01*
X259313Y466578D01*
X259211Y466556D01*
X259109Y466540D01*
X259092Y466530D01*
X259072Y466526D01*
X258983Y466473D01*
X258892Y466424D01*
X258878Y466410D01*
X258861Y466400D01*
X258794Y466321D01*
X258722Y466246D01*
X258714Y466228D01*
X258701Y466213D01*
X258662Y466117D01*
X258619Y466023D01*
X258617Y466003D01*
X258609Y465985D01*
X258591Y465818D01*
X258591Y436289D01*
X258610Y436173D01*
X258628Y436054D01*
X258630Y436050D01*
X258630Y436046D01*
X258685Y435943D01*
X258741Y435836D01*
X258744Y435833D01*
X258746Y435829D01*
X258832Y435747D01*
X258917Y435664D01*
X258921Y435662D01*
X258924Y435660D01*
X259032Y435609D01*
X259139Y435558D01*
X259143Y435558D01*
X259147Y435556D01*
X259266Y435543D01*
X259383Y435528D01*
X259388Y435529D01*
X259391Y435529D01*
X259405Y435532D01*
X259549Y435554D01*
X259761Y435611D01*
X261240Y435611D01*
X261240Y429641D01*
X261243Y429622D01*
X261241Y429602D01*
X261263Y429500D01*
X261279Y429398D01*
X261289Y429381D01*
X261293Y429361D01*
X261346Y429272D01*
X261348Y429269D01*
X261311Y429177D01*
X261268Y429084D01*
X261266Y429064D01*
X261258Y429046D01*
X261240Y428879D01*
X261240Y422909D01*
X260517Y422909D01*
X260446Y422898D01*
X260374Y422896D01*
X260325Y422878D01*
X260274Y422870D01*
X260211Y422836D01*
X260143Y422811D01*
X260103Y422779D01*
X260057Y422754D01*
X260007Y422702D01*
X259951Y422658D01*
X259923Y422614D01*
X259887Y422576D01*
X259857Y422511D01*
X259818Y422451D01*
X259806Y422400D01*
X259784Y422353D01*
X259776Y422282D01*
X259758Y422212D01*
X259762Y422160D01*
X259756Y422109D01*
X259772Y422039D01*
X259777Y421967D01*
X259798Y421919D01*
X259809Y421868D01*
X259846Y421807D01*
X259861Y421771D01*
X259861Y415457D01*
X258962Y414558D01*
X258951Y414542D01*
X258935Y414530D01*
X258879Y414442D01*
X258819Y414359D01*
X258813Y414340D01*
X258802Y414323D01*
X258777Y414222D01*
X258747Y414123D01*
X258747Y414104D01*
X258742Y414084D01*
X258750Y413981D01*
X258753Y413878D01*
X258760Y413859D01*
X258761Y413839D01*
X258802Y413744D01*
X258837Y413647D01*
X258850Y413631D01*
X258858Y413613D01*
X258962Y413482D01*
X259861Y412583D01*
X259861Y406313D01*
X258814Y405266D01*
X258761Y405192D01*
X258701Y405122D01*
X258689Y405092D01*
X258670Y405066D01*
X258643Y404979D01*
X258609Y404894D01*
X258605Y404853D01*
X258598Y404831D01*
X258599Y404799D01*
X258591Y404727D01*
X258591Y403269D01*
X258610Y403152D01*
X258628Y403034D01*
X258630Y403031D01*
X258630Y403026D01*
X258686Y402921D01*
X258741Y402816D01*
X258744Y402813D01*
X258746Y402809D01*
X258831Y402728D01*
X258917Y402644D01*
X258921Y402642D01*
X258924Y402640D01*
X259032Y402589D01*
X259139Y402538D01*
X259143Y402538D01*
X259147Y402536D01*
X259265Y402523D01*
X259383Y402508D01*
X259388Y402509D01*
X259391Y402509D01*
X259405Y402512D01*
X259549Y402534D01*
X259762Y402591D01*
X261240Y402591D01*
X261240Y396621D01*
X261243Y396602D01*
X261241Y396582D01*
X261263Y396480D01*
X261279Y396378D01*
X261289Y396361D01*
X261293Y396341D01*
X261346Y396252D01*
X261348Y396249D01*
X261311Y396157D01*
X261268Y396064D01*
X261266Y396044D01*
X261258Y396026D01*
X261240Y395859D01*
X261240Y389889D01*
X259762Y389889D01*
X259549Y389946D01*
X259430Y389958D01*
X259313Y389971D01*
X259308Y389970D01*
X259304Y389971D01*
X259189Y389944D01*
X259072Y389919D01*
X259069Y389917D01*
X259064Y389916D01*
X258963Y389854D01*
X258861Y389793D01*
X258858Y389790D01*
X258855Y389787D01*
X258778Y389696D01*
X258701Y389606D01*
X258700Y389602D01*
X258697Y389599D01*
X258654Y389488D01*
X258609Y389378D01*
X258609Y389373D01*
X258607Y389370D01*
X258607Y389356D01*
X258591Y389211D01*
X258591Y379612D01*
X258594Y379592D01*
X258592Y379573D01*
X258614Y379471D01*
X258630Y379369D01*
X258640Y379352D01*
X258644Y379332D01*
X258697Y379243D01*
X258746Y379152D01*
X258760Y379138D01*
X258770Y379121D01*
X258849Y379054D01*
X258924Y378982D01*
X258942Y378974D01*
X258957Y378961D01*
X259053Y378922D01*
X259147Y378879D01*
X259167Y378877D01*
X259185Y378869D01*
X259349Y378851D01*
X259465Y378735D01*
X259481Y378723D01*
X259494Y378708D01*
X259581Y378652D01*
X259665Y378591D01*
X259684Y378586D01*
X259701Y378575D01*
X259801Y378549D01*
X259900Y378519D01*
X259920Y378520D01*
X259939Y378515D01*
X260042Y378523D01*
X260146Y378525D01*
X260165Y378532D01*
X260185Y378534D01*
X260280Y378574D01*
X260377Y378610D01*
X260393Y378622D01*
X260411Y378630D01*
X260542Y378735D01*
X260640Y378833D01*
X261219Y379168D01*
X261866Y379341D01*
X265177Y379341D01*
X265177Y369062D01*
X265180Y369042D01*
X265178Y369023D01*
X265200Y368921D01*
X265217Y368819D01*
X265226Y368802D01*
X265230Y368782D01*
X265283Y368693D01*
X265332Y368602D01*
X265346Y368588D01*
X265356Y368571D01*
X265435Y368504D01*
X265510Y368433D01*
X265528Y368424D01*
X265543Y368411D01*
X265639Y368372D01*
X265733Y368329D01*
X265753Y368327D01*
X265771Y368319D01*
X265938Y368301D01*
X266701Y368301D01*
X266701Y368299D01*
X265938Y368299D01*
X265918Y368296D01*
X265899Y368298D01*
X265797Y368276D01*
X265695Y368259D01*
X265678Y368250D01*
X265658Y368246D01*
X265569Y368193D01*
X265478Y368144D01*
X265464Y368130D01*
X265447Y368120D01*
X265380Y368041D01*
X265309Y367966D01*
X265300Y367948D01*
X265287Y367933D01*
X265248Y367837D01*
X265205Y367743D01*
X265203Y367723D01*
X265195Y367705D01*
X265177Y367538D01*
X265177Y357259D01*
X261866Y357259D01*
X261219Y357432D01*
X260640Y357767D01*
X260542Y357865D01*
X260526Y357877D01*
X260513Y357892D01*
X260426Y357948D01*
X260342Y358009D01*
X260323Y358014D01*
X260306Y358025D01*
X260206Y358051D01*
X260107Y358081D01*
X260087Y358080D01*
X260068Y358085D01*
X259965Y358077D01*
X259861Y358075D01*
X259842Y358068D01*
X259822Y358066D01*
X259727Y358026D01*
X259630Y357990D01*
X259615Y357978D01*
X259596Y357970D01*
X259465Y357865D01*
X259349Y357749D01*
X248651Y357749D01*
X248535Y357865D01*
X248519Y357877D01*
X248506Y357892D01*
X248419Y357948D01*
X248335Y358009D01*
X248316Y358014D01*
X248299Y358025D01*
X248199Y358051D01*
X248100Y358081D01*
X248080Y358080D01*
X248061Y358085D01*
X247958Y358077D01*
X247854Y358075D01*
X247835Y358068D01*
X247815Y358066D01*
X247720Y358026D01*
X247623Y357990D01*
X247607Y357978D01*
X247589Y357970D01*
X247458Y357865D01*
X247360Y357767D01*
X246781Y357432D01*
X246134Y357259D01*
X242823Y357259D01*
X242823Y367538D01*
X242820Y367558D01*
X242822Y367577D01*
X242800Y367679D01*
X242783Y367781D01*
X242774Y367798D01*
X242770Y367818D01*
X242717Y367907D01*
X242668Y367998D01*
X242654Y368012D01*
X242644Y368029D01*
X242565Y368096D01*
X242490Y368167D01*
X242472Y368176D01*
X242457Y368189D01*
X242361Y368228D01*
X242267Y368271D01*
X242247Y368273D01*
X242229Y368281D01*
X242062Y368299D01*
X240538Y368299D01*
X240518Y368296D01*
X240499Y368298D01*
X240397Y368276D01*
X240295Y368259D01*
X240278Y368250D01*
X240258Y368246D01*
X240169Y368193D01*
X240078Y368144D01*
X240064Y368130D01*
X240047Y368120D01*
X239980Y368041D01*
X239909Y367966D01*
X239900Y367948D01*
X239887Y367933D01*
X239848Y367837D01*
X239805Y367743D01*
X239803Y367723D01*
X239795Y367705D01*
X239777Y367538D01*
X239777Y357259D01*
X236466Y357259D01*
X235819Y357432D01*
X235240Y357767D01*
X235142Y357865D01*
X235126Y357877D01*
X235113Y357892D01*
X235026Y357948D01*
X234942Y358009D01*
X234923Y358014D01*
X234906Y358025D01*
X234806Y358051D01*
X234707Y358081D01*
X234687Y358080D01*
X234668Y358085D01*
X234565Y358077D01*
X234461Y358075D01*
X234442Y358068D01*
X234422Y358066D01*
X234327Y358026D01*
X234230Y357990D01*
X234215Y357978D01*
X234196Y357970D01*
X234065Y357865D01*
X233949Y357749D01*
X223251Y357749D01*
X223135Y357865D01*
X223119Y357877D01*
X223106Y357892D01*
X223019Y357948D01*
X222935Y358009D01*
X222916Y358014D01*
X222899Y358025D01*
X222799Y358051D01*
X222700Y358081D01*
X222680Y358080D01*
X222661Y358085D01*
X222558Y358077D01*
X222454Y358075D01*
X222435Y358068D01*
X222415Y358066D01*
X222320Y358026D01*
X222223Y357990D01*
X222207Y357978D01*
X222189Y357970D01*
X222058Y357865D01*
X221960Y357767D01*
X221381Y357432D01*
X220734Y357259D01*
X217423Y357259D01*
X217423Y367538D01*
X217420Y367558D01*
X217422Y367577D01*
X217400Y367679D01*
X217383Y367781D01*
X217374Y367798D01*
X217370Y367818D01*
X217317Y367907D01*
X217268Y367998D01*
X217254Y368012D01*
X217244Y368029D01*
X217165Y368096D01*
X217090Y368167D01*
X217072Y368176D01*
X217057Y368189D01*
X216961Y368228D01*
X216867Y368271D01*
X216847Y368273D01*
X216829Y368281D01*
X216662Y368299D01*
X215899Y368299D01*
X215899Y368301D01*
X216662Y368301D01*
X216682Y368304D01*
X216701Y368302D01*
X216803Y368324D01*
X216905Y368341D01*
X216922Y368350D01*
X216942Y368354D01*
X217031Y368407D01*
X217122Y368456D01*
X217136Y368470D01*
X217153Y368480D01*
X217220Y368559D01*
X217291Y368634D01*
X217300Y368652D01*
X217313Y368667D01*
X217352Y368763D01*
X217395Y368857D01*
X217397Y368877D01*
X217405Y368895D01*
X217423Y369062D01*
X217423Y379341D01*
X220735Y379341D01*
X221381Y379168D01*
X221960Y378833D01*
X222058Y378735D01*
X222074Y378723D01*
X222087Y378708D01*
X222174Y378652D01*
X222258Y378591D01*
X222277Y378586D01*
X222294Y378575D01*
X222394Y378549D01*
X222493Y378519D01*
X222513Y378520D01*
X222532Y378515D01*
X222635Y378523D01*
X222739Y378525D01*
X222758Y378532D01*
X222778Y378534D01*
X222873Y378574D01*
X222970Y378610D01*
X222985Y378622D01*
X223004Y378630D01*
X223135Y378735D01*
X223251Y378851D01*
X233949Y378851D01*
X234065Y378735D01*
X234081Y378723D01*
X234094Y378708D01*
X234181Y378652D01*
X234265Y378591D01*
X234284Y378586D01*
X234301Y378575D01*
X234401Y378549D01*
X234500Y378519D01*
X234520Y378520D01*
X234539Y378515D01*
X234642Y378523D01*
X234746Y378525D01*
X234765Y378532D01*
X234785Y378534D01*
X234880Y378574D01*
X234977Y378610D01*
X234993Y378622D01*
X235011Y378630D01*
X235142Y378735D01*
X235240Y378833D01*
X235819Y379168D01*
X236466Y379341D01*
X239777Y379341D01*
X239777Y369062D01*
X239780Y369042D01*
X239778Y369023D01*
X239800Y368921D01*
X239817Y368819D01*
X239826Y368802D01*
X239830Y368782D01*
X239883Y368693D01*
X239932Y368602D01*
X239946Y368588D01*
X239956Y368571D01*
X240035Y368504D01*
X240110Y368433D01*
X240128Y368424D01*
X240143Y368411D01*
X240239Y368372D01*
X240333Y368329D01*
X240353Y368327D01*
X240371Y368319D01*
X240538Y368301D01*
X242062Y368301D01*
X242082Y368304D01*
X242101Y368302D01*
X242203Y368324D01*
X242305Y368341D01*
X242322Y368350D01*
X242342Y368354D01*
X242431Y368407D01*
X242522Y368456D01*
X242536Y368470D01*
X242553Y368480D01*
X242620Y368559D01*
X242691Y368634D01*
X242700Y368652D01*
X242713Y368667D01*
X242752Y368763D01*
X242795Y368857D01*
X242797Y368877D01*
X242805Y368895D01*
X242823Y369062D01*
X242823Y379341D01*
X246135Y379341D01*
X246781Y379168D01*
X247360Y378833D01*
X247458Y378735D01*
X247474Y378723D01*
X247487Y378708D01*
X247574Y378652D01*
X247658Y378591D01*
X247677Y378586D01*
X247694Y378575D01*
X247794Y378549D01*
X247893Y378519D01*
X247913Y378520D01*
X247932Y378515D01*
X248035Y378523D01*
X248139Y378525D01*
X248158Y378532D01*
X248178Y378534D01*
X248273Y378574D01*
X248370Y378610D01*
X248385Y378622D01*
X248404Y378630D01*
X248535Y378735D01*
X248651Y378851D01*
X248668Y378854D01*
X248687Y378852D01*
X248789Y378874D01*
X248891Y378890D01*
X248908Y378900D01*
X248928Y378904D01*
X249017Y378957D01*
X249108Y379006D01*
X249122Y379020D01*
X249139Y379030D01*
X249206Y379109D01*
X249278Y379184D01*
X249286Y379202D01*
X249299Y379217D01*
X249338Y379313D01*
X249381Y379407D01*
X249383Y379427D01*
X249391Y379445D01*
X249409Y379612D01*
X249409Y390757D01*
X249395Y390847D01*
X249387Y390938D01*
X249375Y390968D01*
X249370Y391000D01*
X249327Y391081D01*
X249291Y391165D01*
X249265Y391197D01*
X249254Y391217D01*
X249231Y391240D01*
X249186Y391296D01*
X248901Y391581D01*
X248901Y400899D01*
X249186Y401184D01*
X249239Y401258D01*
X249299Y401328D01*
X249311Y401358D01*
X249330Y401384D01*
X249357Y401471D01*
X249391Y401556D01*
X249395Y401597D01*
X249402Y401619D01*
X249401Y401651D01*
X249409Y401723D01*
X249409Y404727D01*
X249395Y404817D01*
X249387Y404908D01*
X249375Y404938D01*
X249370Y404970D01*
X249327Y405051D01*
X249291Y405135D01*
X249265Y405167D01*
X249254Y405187D01*
X249231Y405210D01*
X249186Y405266D01*
X248139Y406313D01*
X248139Y412583D01*
X249038Y413482D01*
X249049Y413498D01*
X249065Y413510D01*
X249121Y413598D01*
X249181Y413681D01*
X249187Y413700D01*
X249198Y413717D01*
X249223Y413818D01*
X249253Y413917D01*
X249253Y413936D01*
X249258Y413956D01*
X249250Y414059D01*
X249247Y414162D01*
X249240Y414181D01*
X249239Y414201D01*
X249198Y414296D01*
X249163Y414393D01*
X249150Y414409D01*
X249142Y414427D01*
X249038Y414558D01*
X248139Y415457D01*
X248139Y421727D01*
X249186Y422774D01*
X249239Y422848D01*
X249299Y422918D01*
X249311Y422948D01*
X249330Y422974D01*
X249357Y423061D01*
X249391Y423146D01*
X249395Y423187D01*
X249402Y423209D01*
X249401Y423241D01*
X249409Y423313D01*
X249409Y423777D01*
X249395Y423867D01*
X249387Y423958D01*
X249375Y423988D01*
X249370Y424020D01*
X249327Y424101D01*
X249291Y424185D01*
X249265Y424217D01*
X249254Y424237D01*
X249231Y424260D01*
X249186Y424316D01*
X248901Y424601D01*
X248901Y433919D01*
X249186Y434204D01*
X249239Y434278D01*
X249299Y434348D01*
X249311Y434378D01*
X249330Y434404D01*
X249357Y434491D01*
X249391Y434576D01*
X249395Y434617D01*
X249402Y434639D01*
X249401Y434671D01*
X249409Y434743D01*
X249409Y465818D01*
X249406Y465838D01*
X249408Y465857D01*
X249386Y465959D01*
X249370Y466061D01*
X249360Y466078D01*
X249356Y466098D01*
X249303Y466187D01*
X249254Y466278D01*
X249240Y466292D01*
X249230Y466309D01*
X249151Y466376D01*
X249076Y466448D01*
X249058Y466456D01*
X249043Y466469D01*
X248947Y466508D01*
X248853Y466551D01*
X248833Y466553D01*
X248815Y466561D01*
X248648Y466579D01*
X248071Y466579D01*
X246869Y467781D01*
X246869Y474935D01*
X246858Y475006D01*
X246856Y475078D01*
X246838Y475127D01*
X246830Y475178D01*
X246796Y475242D01*
X246771Y475309D01*
X246739Y475350D01*
X246714Y475396D01*
X246662Y475445D01*
X246618Y475501D01*
X246574Y475529D01*
X246536Y475565D01*
X246471Y475595D01*
X246411Y475634D01*
X246360Y475647D01*
X246313Y475669D01*
X246242Y475676D01*
X246172Y475694D01*
X246120Y475690D01*
X246069Y475696D01*
X245998Y475680D01*
X245927Y475675D01*
X245879Y475654D01*
X245828Y475643D01*
X245767Y475607D01*
X245701Y475579D01*
X245645Y475534D01*
X245617Y475517D01*
X245602Y475500D01*
X245570Y475474D01*
X245532Y475436D01*
X244721Y474968D01*
X243816Y474725D01*
X239522Y474725D01*
X239502Y474722D01*
X239483Y474724D01*
X239381Y474702D01*
X239279Y474685D01*
X239262Y474676D01*
X239242Y474672D01*
X239153Y474619D01*
X239062Y474570D01*
X239048Y474556D01*
X239031Y474546D01*
X238964Y474467D01*
X238892Y474392D01*
X238884Y474374D01*
X238871Y474359D01*
X238832Y474263D01*
X238789Y474169D01*
X238787Y474149D01*
X238779Y474131D01*
X238761Y473964D01*
X238761Y468295D01*
X238588Y467649D01*
X238253Y467070D01*
X237780Y466597D01*
X237201Y466262D01*
X236554Y466089D01*
X230123Y466089D01*
X230123Y477267D01*
X243348Y477267D01*
X243406Y477275D01*
X243464Y477273D01*
X243546Y477295D01*
X243630Y477307D01*
X243683Y477331D01*
X243739Y477345D01*
X243812Y477388D01*
X243889Y477423D01*
X243934Y477461D01*
X243984Y477491D01*
X244042Y477552D01*
X244106Y477607D01*
X244138Y477655D01*
X244178Y477698D01*
X244217Y477773D01*
X244264Y477843D01*
X244281Y477899D01*
X244308Y477951D01*
X244319Y478019D01*
X244349Y478114D01*
X244352Y478214D01*
X244363Y478282D01*
X244363Y487427D01*
X244602Y487427D01*
X244622Y487430D01*
X244641Y487428D01*
X244743Y487450D01*
X244845Y487467D01*
X244862Y487476D01*
X244882Y487480D01*
X244971Y487533D01*
X245062Y487582D01*
X245076Y487596D01*
X245093Y487606D01*
X245160Y487685D01*
X245232Y487760D01*
X245240Y487778D01*
X245253Y487793D01*
X245292Y487889D01*
X245335Y487983D01*
X245337Y488003D01*
X245345Y488021D01*
X245363Y488188D01*
X245363Y489712D01*
X245360Y489732D01*
X245362Y489751D01*
X245340Y489853D01*
X245324Y489955D01*
X245314Y489972D01*
X245310Y489992D01*
X245257Y490081D01*
X245208Y490172D01*
X245194Y490186D01*
X245184Y490203D01*
X245105Y490270D01*
X245030Y490341D01*
X245012Y490350D01*
X244997Y490363D01*
X244901Y490402D01*
X244807Y490445D01*
X244787Y490447D01*
X244769Y490455D01*
X244602Y490473D01*
X244363Y490473D01*
X244363Y499110D01*
X244355Y499168D01*
X244357Y499226D01*
X244335Y499308D01*
X244323Y499392D01*
X244300Y499445D01*
X244285Y499501D01*
X244242Y499574D01*
X244207Y499651D01*
X244169Y499696D01*
X244140Y499746D01*
X244078Y499804D01*
X244024Y499868D01*
X243975Y499900D01*
X243932Y499940D01*
X243857Y499979D01*
X243787Y500026D01*
X243731Y500043D01*
X243679Y500070D01*
X243611Y500081D01*
X243516Y500111D01*
X243416Y500114D01*
X243348Y500125D01*
X222250Y500125D01*
X222192Y500117D01*
X222134Y500119D01*
X222052Y500097D01*
X221969Y500085D01*
X221915Y500062D01*
X221859Y500047D01*
X221786Y500004D01*
X221709Y499969D01*
X221664Y499931D01*
X221614Y499902D01*
X221556Y499840D01*
X221492Y499786D01*
X221460Y499737D01*
X221420Y499694D01*
X221381Y499619D01*
X221335Y499549D01*
X221317Y499493D01*
X221290Y499441D01*
X221279Y499373D01*
X221249Y499278D01*
X221246Y499178D01*
X221235Y499110D01*
X221235Y490473D01*
X218439Y490473D01*
X218439Y497588D01*
X218436Y497608D01*
X218438Y497627D01*
X218416Y497729D01*
X218399Y497831D01*
X218390Y497848D01*
X218386Y497868D01*
X218333Y497957D01*
X218284Y498048D01*
X218270Y498062D01*
X218260Y498079D01*
X218181Y498146D01*
X218106Y498218D01*
X218088Y498226D01*
X218073Y498239D01*
X217977Y498278D01*
X217883Y498321D01*
X217863Y498323D01*
X217845Y498331D01*
X217678Y498349D01*
X49684Y498349D01*
X49608Y498337D01*
X49532Y498334D01*
X49488Y498317D01*
X49441Y498310D01*
X49374Y498274D01*
X49302Y498247D01*
X49265Y498217D01*
X49223Y498194D01*
X49171Y498139D01*
X49112Y498091D01*
X49087Y498051D01*
X49054Y498016D01*
X49022Y497947D01*
X48982Y497882D01*
X48970Y497836D01*
X48950Y497793D01*
X48942Y497717D01*
X48924Y497643D01*
X48929Y497596D01*
X48923Y497549D01*
X48940Y497474D01*
X48946Y497398D01*
X48966Y497355D01*
X48976Y497308D01*
X49015Y497243D01*
X49045Y497173D01*
X49077Y497138D01*
X49102Y497097D01*
X49160Y497047D01*
X49211Y496991D01*
X49265Y496957D01*
X49289Y496937D01*
X49313Y496927D01*
X49353Y496902D01*
X52252Y495506D01*
X55030Y493761D01*
X57595Y491715D01*
X59915Y489395D01*
X61961Y486830D01*
X63706Y484052D01*
X65130Y481096D01*
X66213Y477999D01*
X66943Y474801D01*
X67311Y471540D01*
X67311Y471423D01*
X38862Y471423D01*
X38842Y471420D01*
X38823Y471422D01*
X38721Y471400D01*
X38619Y471383D01*
X38602Y471374D01*
X38582Y471370D01*
X38493Y471317D01*
X38402Y471268D01*
X38388Y471254D01*
X38371Y471244D01*
X38304Y471165D01*
X38233Y471090D01*
X38224Y471072D01*
X38211Y471057D01*
X38173Y470961D01*
X38129Y470867D01*
X38127Y470847D01*
X38119Y470829D01*
X38101Y470662D01*
X38101Y469899D01*
X37338Y469899D01*
X37318Y469896D01*
X37299Y469898D01*
X37197Y469876D01*
X37095Y469859D01*
X37078Y469850D01*
X37058Y469846D01*
X36969Y469793D01*
X36878Y469744D01*
X36864Y469730D01*
X36847Y469720D01*
X36780Y469641D01*
X36709Y469566D01*
X36700Y469548D01*
X36687Y469533D01*
X36648Y469437D01*
X36605Y469343D01*
X36603Y469323D01*
X36595Y469305D01*
X36577Y469138D01*
X36577Y440689D01*
X36460Y440689D01*
X33199Y441057D01*
X30069Y441771D01*
X30001Y441787D01*
X26904Y442870D01*
X23948Y444294D01*
X21170Y446039D01*
X18605Y448085D01*
X16285Y450405D01*
X14239Y452970D01*
X12494Y455748D01*
X11608Y457588D01*
X11564Y457650D01*
X11528Y457718D01*
X11494Y457750D01*
X11467Y457789D01*
X11405Y457834D01*
X11350Y457887D01*
X11307Y457907D01*
X11269Y457935D01*
X11196Y457958D01*
X11127Y457991D01*
X11080Y457996D01*
X11035Y458010D01*
X10958Y458009D01*
X10883Y458018D01*
X10836Y458008D01*
X10789Y458007D01*
X10717Y457982D01*
X10642Y457965D01*
X10601Y457941D01*
X10557Y457925D01*
X10496Y457878D01*
X10431Y457839D01*
X10400Y457803D01*
X10363Y457774D01*
X10321Y457710D01*
X10271Y457652D01*
X10253Y457608D01*
X10227Y457569D01*
X10208Y457495D01*
X10179Y457424D01*
X10172Y457361D01*
X10164Y457331D01*
X10166Y457305D01*
X10161Y457257D01*
X10161Y50743D01*
X10173Y50667D01*
X10176Y50591D01*
X10193Y50547D01*
X10200Y50500D01*
X10236Y50433D01*
X10263Y50361D01*
X10293Y50324D01*
X10316Y50282D01*
X10371Y50230D01*
X10419Y50171D01*
X10459Y50146D01*
X10494Y50113D01*
X10563Y50081D01*
X10628Y50041D01*
X10674Y50029D01*
X10717Y50009D01*
X10793Y50001D01*
X10867Y49983D01*
X10914Y49988D01*
X10961Y49982D01*
X11036Y49999D01*
X11112Y50005D01*
X11155Y50025D01*
X11202Y50035D01*
X11267Y50074D01*
X11337Y50104D01*
X11372Y50136D01*
X11413Y50161D01*
X11463Y50219D01*
X11519Y50270D01*
X11553Y50324D01*
X11573Y50348D01*
X11583Y50372D01*
X11608Y50412D01*
X12494Y52252D01*
X14239Y55030D01*
X16285Y57595D01*
X18605Y59915D01*
X21170Y61961D01*
X23948Y63706D01*
X26904Y65130D01*
X30001Y66213D01*
X33199Y66943D01*
X36460Y67311D01*
X36577Y67311D01*
X36577Y38862D01*
X36580Y38842D01*
X36578Y38823D01*
X36600Y38721D01*
X36617Y38619D01*
X36626Y38602D01*
X36630Y38582D01*
X36683Y38493D01*
X36732Y38402D01*
X36746Y38388D01*
X36756Y38371D01*
X36835Y38304D01*
X36910Y38233D01*
X36928Y38224D01*
X36943Y38211D01*
X37039Y38173D01*
X37133Y38129D01*
X37153Y38127D01*
X37171Y38119D01*
X37338Y38101D01*
X38101Y38101D01*
X38101Y37338D01*
X38104Y37318D01*
X38102Y37299D01*
X38124Y37197D01*
X38141Y37095D01*
X38150Y37078D01*
X38154Y37058D01*
X38207Y36969D01*
X38256Y36878D01*
X38270Y36864D01*
X38280Y36847D01*
X38359Y36780D01*
X38434Y36709D01*
X38452Y36700D01*
X38467Y36687D01*
X38563Y36648D01*
X38657Y36605D01*
X38677Y36603D01*
X38695Y36595D01*
X38862Y36577D01*
X67311Y36577D01*
X67311Y36460D01*
X66943Y33199D01*
X66213Y30001D01*
X65130Y26904D01*
X63706Y23948D01*
X61961Y21170D01*
X59915Y18605D01*
X57595Y16285D01*
X55030Y14239D01*
X52252Y12494D01*
X50412Y11608D01*
X50350Y11564D01*
X50282Y11528D01*
X50250Y11494D01*
X50211Y11467D01*
X50166Y11405D01*
X50113Y11350D01*
X50093Y11307D01*
X50065Y11269D01*
X50042Y11196D01*
X50009Y11127D01*
X50004Y11080D01*
X49990Y11035D01*
X49991Y10958D01*
X49982Y10883D01*
X49992Y10836D01*
X49993Y10789D01*
X50018Y10717D01*
X50035Y10642D01*
X50059Y10601D01*
X50075Y10557D01*
X50122Y10496D01*
X50161Y10431D01*
X50197Y10400D01*
X50226Y10363D01*
X50290Y10321D01*
X50348Y10271D01*
X50392Y10253D01*
X50431Y10227D01*
X50505Y10208D01*
X50576Y10179D01*
X50639Y10172D01*
X50669Y10164D01*
X50695Y10166D01*
X50743Y10161D01*
X330257Y10161D01*
X330333Y10173D01*
X330409Y10176D01*
X330453Y10193D01*
X330500Y10200D01*
X330567Y10236D01*
X330639Y10263D01*
X330676Y10293D01*
X330718Y10316D01*
X330770Y10371D01*
X330829Y10419D01*
X330854Y10459D01*
X330887Y10494D01*
X330919Y10563D01*
X330959Y10628D01*
X330970Y10674D01*
X330991Y10717D01*
X330999Y10793D01*
X331017Y10867D01*
X331012Y10914D01*
X331018Y10961D01*
X331001Y11036D01*
X330995Y11112D01*
X330975Y11155D01*
X330965Y11202D01*
X330926Y11267D01*
X330896Y11337D01*
X330864Y11372D01*
X330839Y11413D01*
X330781Y11463D01*
X330730Y11519D01*
X330676Y11553D01*
X330652Y11573D01*
X330628Y11583D01*
X330588Y11608D01*
X328748Y12494D01*
X325970Y14239D01*
X323405Y16285D01*
X321085Y18605D01*
X319039Y21170D01*
X317294Y23948D01*
X315870Y26904D01*
X314787Y30001D01*
X314057Y33199D01*
X313689Y36460D01*
X313689Y36577D01*
X342138Y36577D01*
X342158Y36580D01*
X342177Y36578D01*
X342279Y36600D01*
X342381Y36617D01*
X342398Y36626D01*
X342418Y36630D01*
X342507Y36683D01*
X342598Y36732D01*
X342612Y36746D01*
X342629Y36756D01*
X342696Y36835D01*
X342767Y36910D01*
X342776Y36928D01*
X342789Y36943D01*
X342827Y37039D01*
X342871Y37133D01*
X342873Y37153D01*
X342881Y37171D01*
X342899Y37338D01*
X342899Y38101D01*
X343662Y38101D01*
X343682Y38104D01*
X343701Y38102D01*
X343803Y38124D01*
X343905Y38141D01*
X343922Y38150D01*
X343942Y38154D01*
X344031Y38207D01*
X344122Y38256D01*
X344136Y38270D01*
X344153Y38280D01*
X344220Y38359D01*
X344291Y38434D01*
X344300Y38452D01*
X344313Y38467D01*
X344352Y38563D01*
X344395Y38657D01*
X344397Y38677D01*
X344405Y38695D01*
X344423Y38862D01*
X344423Y67311D01*
X344540Y67311D01*
X347801Y66943D01*
X349692Y66512D01*
X350999Y66213D01*
X354096Y65130D01*
X357052Y63706D01*
X359830Y61961D01*
X362395Y59915D01*
X364715Y57595D01*
X366761Y55030D01*
X368506Y52252D01*
X369192Y50828D01*
X369236Y50765D01*
X369272Y50698D01*
X369306Y50665D01*
X369333Y50626D01*
X369395Y50581D01*
X369450Y50528D01*
X369493Y50508D01*
X369531Y50480D01*
X369604Y50457D01*
X369673Y50425D01*
X369720Y50420D01*
X369765Y50405D01*
X369842Y50406D01*
X369917Y50398D01*
X369964Y50408D01*
X370011Y50408D01*
X370083Y50434D01*
X370158Y50450D01*
X370199Y50474D01*
X370243Y50490D01*
X370304Y50537D01*
X370369Y50576D01*
X370400Y50612D01*
X370437Y50641D01*
X370479Y50705D01*
X370529Y50763D01*
X370547Y50807D01*
X370573Y50847D01*
X370592Y50920D01*
X370621Y50991D01*
X370628Y51055D01*
X370636Y51085D01*
X370634Y51111D01*
X370639Y51158D01*
X370639Y406042D01*
X370638Y406049D01*
X370638Y406050D01*
X370637Y406056D01*
X370627Y406117D01*
X370624Y406194D01*
X370607Y406238D01*
X370600Y406285D01*
X370564Y406352D01*
X370537Y406424D01*
X370507Y406460D01*
X370484Y406502D01*
X370429Y406555D01*
X370381Y406614D01*
X370341Y406639D01*
X370306Y406672D01*
X370237Y406704D01*
X370172Y406744D01*
X370126Y406755D01*
X370083Y406775D01*
X370007Y406784D01*
X369933Y406801D01*
X369886Y406797D01*
X369839Y406802D01*
X369764Y406786D01*
X369688Y406779D01*
X369645Y406760D01*
X369598Y406750D01*
X369533Y406711D01*
X369463Y406680D01*
X369428Y406648D01*
X369387Y406624D01*
X369337Y406566D01*
X369281Y406515D01*
X369247Y406461D01*
X369227Y406437D01*
X369217Y406413D01*
X369192Y406372D01*
X368506Y404948D01*
X366761Y402170D01*
X364715Y399605D01*
X362395Y397285D01*
X359830Y395239D01*
X357052Y393494D01*
X354096Y392070D01*
X350999Y390987D01*
X347801Y390257D01*
X344540Y389889D01*
X344423Y389889D01*
X344423Y418338D01*
X344420Y418358D01*
X344422Y418377D01*
X344400Y418479D01*
X344383Y418581D01*
X344374Y418598D01*
X344370Y418618D01*
X344317Y418707D01*
X344268Y418798D01*
X344254Y418812D01*
X344244Y418829D01*
X344165Y418896D01*
X344090Y418967D01*
X344072Y418976D01*
X344057Y418989D01*
X343961Y419027D01*
X343867Y419071D01*
X343847Y419073D01*
X343829Y419081D01*
X343662Y419099D01*
X342899Y419099D01*
X342899Y419101D01*
X343662Y419101D01*
X343682Y419104D01*
X343701Y419102D01*
X343803Y419124D01*
X343905Y419141D01*
X343922Y419150D01*
X343942Y419154D01*
X344031Y419207D01*
X344122Y419256D01*
X344136Y419270D01*
X344153Y419280D01*
X344220Y419359D01*
X344291Y419434D01*
X344300Y419452D01*
X344313Y419467D01*
X344352Y419563D01*
X344395Y419657D01*
X344397Y419677D01*
X344405Y419695D01*
X344423Y419862D01*
X344423Y448311D01*
X344540Y448311D01*
X347801Y447943D01*
X348000Y447898D01*
X350999Y447213D01*
X354096Y446130D01*
X357052Y444706D01*
X359830Y442961D01*
X362395Y440915D01*
X364715Y438595D01*
X366761Y436030D01*
X368506Y433252D01*
X369192Y431828D01*
X369236Y431765D01*
X369272Y431698D01*
X369306Y431665D01*
X369333Y431626D01*
X369395Y431581D01*
X369450Y431528D01*
X369493Y431508D01*
X369531Y431480D01*
X369604Y431457D01*
X369673Y431425D01*
X369720Y431420D01*
X369765Y431405D01*
X369842Y431406D01*
X369917Y431398D01*
X369964Y431408D01*
X370011Y431408D01*
X370083Y431434D01*
X370158Y431450D01*
X370199Y431474D01*
X370243Y431490D01*
X370304Y431537D01*
X370369Y431576D01*
X370400Y431612D01*
X370437Y431641D01*
X370479Y431705D01*
X370529Y431763D01*
X370547Y431807D01*
X370573Y431847D01*
X370592Y431920D01*
X370621Y431991D01*
X370628Y432055D01*
X370636Y432085D01*
X370634Y432111D01*
X370639Y432158D01*
X370639Y464627D01*
X370637Y464643D01*
X370638Y464660D01*
X370638Y464666D01*
X370638Y464668D01*
X370638Y464670D01*
X370431Y468360D01*
X370424Y468392D01*
X370413Y468487D01*
X368771Y475683D01*
X368770Y475684D01*
X368770Y475686D01*
X368714Y475844D01*
X365512Y482494D01*
X365511Y482495D01*
X365511Y482496D01*
X365421Y482638D01*
X360819Y488409D01*
X360818Y488410D01*
X360817Y488411D01*
X360699Y488529D01*
X354928Y493131D01*
X354927Y493132D01*
X354926Y493133D01*
X354784Y493222D01*
X348134Y496424D01*
X348132Y496425D01*
X348131Y496425D01*
X347973Y496481D01*
X347533Y496581D01*
X344197Y497342D01*
X340862Y498103D01*
X340862Y498104D01*
X340777Y498123D01*
X340745Y498125D01*
X340650Y498141D01*
X336960Y498348D01*
X336944Y498346D01*
X336917Y498349D01*
X290322Y498349D01*
X290302Y498346D01*
X290283Y498348D01*
X290181Y498326D01*
X290079Y498310D01*
X290062Y498300D01*
X290042Y498296D01*
X289953Y498243D01*
X289862Y498194D01*
X289848Y498180D01*
X289831Y498170D01*
X289764Y498091D01*
X289692Y498016D01*
X289684Y497998D01*
X289671Y497983D01*
X289632Y497887D01*
X289589Y497793D01*
X289587Y497773D01*
X289579Y497755D01*
X289561Y497588D01*
X289561Y490473D01*
X286765Y490473D01*
X286765Y499110D01*
X286757Y499168D01*
G37*
%LPC*%
G36*
X93323Y30715D02*
X93323Y30715D01*
X62719Y61319D01*
X62719Y104797D01*
X66791Y108869D01*
X66859Y108964D01*
X66929Y109058D01*
X66931Y109064D01*
X66935Y109069D01*
X66969Y109180D01*
X67006Y109292D01*
X67005Y109298D01*
X67007Y109304D01*
X67004Y109421D01*
X67003Y109538D01*
X67001Y109545D01*
X67001Y109550D01*
X66995Y109567D01*
X66956Y109699D01*
X65899Y112251D01*
X65899Y116349D01*
X67467Y120135D01*
X70365Y123033D01*
X74151Y124601D01*
X78249Y124601D01*
X82035Y123033D01*
X84933Y120135D01*
X86501Y116349D01*
X86501Y112251D01*
X84933Y108465D01*
X82035Y105567D01*
X78249Y103999D01*
X74151Y103999D01*
X71599Y105056D01*
X71485Y105083D01*
X71372Y105112D01*
X71365Y105111D01*
X71359Y105113D01*
X71243Y105102D01*
X71126Y105093D01*
X71121Y105090D01*
X71114Y105090D01*
X71007Y105042D01*
X70900Y104996D01*
X70894Y104992D01*
X70890Y104990D01*
X70876Y104977D01*
X70769Y104891D01*
X68568Y102690D01*
X68515Y102616D01*
X68455Y102546D01*
X68443Y102516D01*
X68424Y102490D01*
X68397Y102403D01*
X68363Y102318D01*
X68359Y102277D01*
X68352Y102255D01*
X68353Y102223D01*
X68345Y102152D01*
X68345Y97450D01*
X68356Y97379D01*
X68358Y97308D01*
X68376Y97259D01*
X68384Y97207D01*
X68418Y97144D01*
X68443Y97077D01*
X68475Y97036D01*
X68500Y96990D01*
X68552Y96940D01*
X68596Y96884D01*
X68640Y96856D01*
X68678Y96820D01*
X68743Y96790D01*
X68803Y96751D01*
X68854Y96739D01*
X68901Y96717D01*
X68972Y96709D01*
X69042Y96691D01*
X69094Y96695D01*
X69145Y96690D01*
X69216Y96705D01*
X69287Y96711D01*
X69335Y96731D01*
X69386Y96742D01*
X69447Y96779D01*
X69513Y96807D01*
X69569Y96852D01*
X69597Y96868D01*
X69612Y96886D01*
X69644Y96912D01*
X70365Y97633D01*
X74151Y99201D01*
X78249Y99201D01*
X82035Y97633D01*
X82813Y96855D01*
X82850Y96828D01*
X82881Y96794D01*
X82949Y96757D01*
X83012Y96711D01*
X83056Y96698D01*
X83096Y96676D01*
X83173Y96662D01*
X83247Y96639D01*
X83293Y96640D01*
X83338Y96632D01*
X83415Y96643D01*
X83493Y96645D01*
X83536Y96661D01*
X83582Y96668D01*
X83651Y96703D01*
X83724Y96730D01*
X83760Y96759D01*
X83801Y96779D01*
X83856Y96835D01*
X83916Y96884D01*
X83941Y96922D01*
X83973Y96955D01*
X84039Y97075D01*
X84049Y97090D01*
X84051Y97095D01*
X84054Y97102D01*
X84971Y99316D01*
X86612Y100957D01*
X88756Y101845D01*
X91076Y101845D01*
X93220Y100957D01*
X93950Y100227D01*
X93966Y100215D01*
X93979Y100200D01*
X94066Y100143D01*
X94150Y100083D01*
X94169Y100077D01*
X94186Y100067D01*
X94286Y100041D01*
X94385Y100011D01*
X94405Y100011D01*
X94424Y100006D01*
X94527Y100015D01*
X94631Y100017D01*
X94650Y100024D01*
X94669Y100026D01*
X94764Y100066D01*
X94862Y100102D01*
X94877Y100114D01*
X94896Y100122D01*
X95027Y100227D01*
X96251Y101451D01*
X106949Y101451D01*
X108151Y100249D01*
X108151Y92551D01*
X106949Y91349D01*
X96251Y91349D01*
X95415Y92185D01*
X95398Y92197D01*
X95386Y92212D01*
X95299Y92269D01*
X95215Y92329D01*
X95196Y92335D01*
X95179Y92345D01*
X95079Y92371D01*
X94980Y92401D01*
X94960Y92401D01*
X94941Y92406D01*
X94838Y92397D01*
X94734Y92395D01*
X94715Y92388D01*
X94695Y92386D01*
X94600Y92346D01*
X94503Y92310D01*
X94487Y92298D01*
X94469Y92290D01*
X94338Y92185D01*
X93220Y91067D01*
X91076Y90179D01*
X88756Y90179D01*
X87553Y90677D01*
X87509Y90688D01*
X87467Y90707D01*
X87390Y90716D01*
X87314Y90734D01*
X87268Y90729D01*
X87223Y90734D01*
X87146Y90718D01*
X87069Y90710D01*
X87027Y90692D01*
X86982Y90682D01*
X86915Y90642D01*
X86844Y90610D01*
X86810Y90579D01*
X86771Y90556D01*
X86720Y90497D01*
X86663Y90444D01*
X86641Y90404D01*
X86611Y90369D01*
X86582Y90297D01*
X86545Y90229D01*
X86536Y90183D01*
X86519Y90141D01*
X86504Y90005D01*
X86501Y89987D01*
X86502Y89982D01*
X86501Y89974D01*
X86501Y86851D01*
X84933Y83065D01*
X82035Y80167D01*
X79483Y79110D01*
X79383Y79049D01*
X79283Y78989D01*
X79279Y78984D01*
X79274Y78981D01*
X79199Y78891D01*
X79123Y78802D01*
X79121Y78796D01*
X79117Y78791D01*
X79075Y78683D01*
X79031Y78574D01*
X79030Y78566D01*
X79029Y78562D01*
X79028Y78543D01*
X79013Y78407D01*
X79013Y57868D01*
X79027Y57778D01*
X79035Y57687D01*
X79047Y57658D01*
X79052Y57626D01*
X79095Y57545D01*
X79131Y57461D01*
X79157Y57429D01*
X79168Y57408D01*
X79191Y57386D01*
X79236Y57330D01*
X90000Y46566D01*
X90058Y46524D01*
X90110Y46475D01*
X90157Y46453D01*
X90199Y46423D01*
X90268Y46401D01*
X90333Y46371D01*
X90385Y46365D01*
X90435Y46350D01*
X90506Y46352D01*
X90577Y46344D01*
X90628Y46355D01*
X90680Y46357D01*
X90748Y46381D01*
X90818Y46396D01*
X90863Y46423D01*
X90911Y46441D01*
X90967Y46486D01*
X91029Y46523D01*
X91063Y46562D01*
X91103Y46595D01*
X91142Y46655D01*
X91189Y46709D01*
X91208Y46758D01*
X91236Y46802D01*
X91254Y46871D01*
X91281Y46938D01*
X91289Y47009D01*
X91297Y47040D01*
X91295Y47063D01*
X91299Y47104D01*
X91299Y59899D01*
X92501Y61101D01*
X98534Y61101D01*
X98554Y61104D01*
X98573Y61102D01*
X98675Y61124D01*
X98777Y61140D01*
X98794Y61150D01*
X98814Y61154D01*
X98903Y61207D01*
X98994Y61256D01*
X99008Y61270D01*
X99025Y61280D01*
X99092Y61359D01*
X99164Y61434D01*
X99172Y61452D01*
X99185Y61467D01*
X99224Y61563D01*
X99267Y61657D01*
X99269Y61677D01*
X99277Y61695D01*
X99295Y61862D01*
X99295Y75588D01*
X99292Y75608D01*
X99294Y75627D01*
X99272Y75729D01*
X99256Y75831D01*
X99246Y75848D01*
X99242Y75868D01*
X99189Y75957D01*
X99140Y76048D01*
X99126Y76062D01*
X99116Y76079D01*
X99037Y76146D01*
X98962Y76218D01*
X98944Y76226D01*
X98929Y76239D01*
X98833Y76278D01*
X98739Y76321D01*
X98719Y76323D01*
X98701Y76331D01*
X98534Y76349D01*
X96251Y76349D01*
X95049Y77551D01*
X95049Y85249D01*
X96251Y86451D01*
X106949Y86451D01*
X108151Y85249D01*
X108151Y77551D01*
X106949Y76349D01*
X105682Y76349D01*
X105662Y76346D01*
X105643Y76348D01*
X105541Y76326D01*
X105439Y76310D01*
X105422Y76300D01*
X105402Y76296D01*
X105313Y76243D01*
X105222Y76194D01*
X105208Y76180D01*
X105191Y76170D01*
X105124Y76091D01*
X105052Y76016D01*
X105044Y75998D01*
X105031Y75983D01*
X104992Y75887D01*
X104949Y75793D01*
X104947Y75773D01*
X104939Y75755D01*
X104921Y75588D01*
X104921Y61862D01*
X104924Y61842D01*
X104922Y61823D01*
X104944Y61721D01*
X104960Y61619D01*
X104970Y61602D01*
X104974Y61582D01*
X105027Y61493D01*
X105076Y61402D01*
X105090Y61388D01*
X105100Y61371D01*
X105179Y61304D01*
X105254Y61232D01*
X105272Y61224D01*
X105287Y61211D01*
X105383Y61172D01*
X105477Y61129D01*
X105497Y61127D01*
X105515Y61119D01*
X105682Y61101D01*
X110699Y61101D01*
X111901Y59899D01*
X111901Y44792D01*
X111915Y44702D01*
X111923Y44611D01*
X111935Y44582D01*
X111940Y44550D01*
X111983Y44469D01*
X112019Y44385D01*
X112045Y44353D01*
X112056Y44332D01*
X112079Y44310D01*
X112124Y44254D01*
X113718Y42660D01*
X113792Y42607D01*
X113862Y42547D01*
X113892Y42535D01*
X113918Y42516D01*
X114005Y42489D01*
X114090Y42455D01*
X114131Y42451D01*
X114153Y42444D01*
X114185Y42445D01*
X114256Y42437D01*
X118958Y42437D01*
X119029Y42448D01*
X119100Y42450D01*
X119149Y42468D01*
X119201Y42476D01*
X119264Y42510D01*
X119331Y42535D01*
X119372Y42567D01*
X119418Y42592D01*
X119468Y42644D01*
X119524Y42688D01*
X119552Y42732D01*
X119588Y42770D01*
X119618Y42835D01*
X119657Y42895D01*
X119669Y42946D01*
X119691Y42993D01*
X119699Y43064D01*
X119717Y43134D01*
X119713Y43186D01*
X119718Y43237D01*
X119703Y43308D01*
X119697Y43379D01*
X119677Y43427D01*
X119666Y43478D01*
X119629Y43539D01*
X119601Y43605D01*
X119556Y43661D01*
X119540Y43689D01*
X119522Y43704D01*
X119496Y43736D01*
X118267Y44965D01*
X116699Y48751D01*
X116699Y52849D01*
X118267Y56635D01*
X121165Y59533D01*
X123717Y60590D01*
X123817Y60651D01*
X123917Y60711D01*
X123921Y60716D01*
X123926Y60719D01*
X124001Y60809D01*
X124077Y60898D01*
X124079Y60904D01*
X124083Y60909D01*
X124125Y61017D01*
X124169Y61126D01*
X124170Y61134D01*
X124171Y61138D01*
X124172Y61157D01*
X124187Y61293D01*
X124187Y75588D01*
X124184Y75608D01*
X124186Y75627D01*
X124164Y75729D01*
X124148Y75831D01*
X124138Y75848D01*
X124134Y75868D01*
X124081Y75957D01*
X124032Y76048D01*
X124018Y76062D01*
X124008Y76079D01*
X123929Y76146D01*
X123854Y76218D01*
X123836Y76226D01*
X123821Y76239D01*
X123725Y76278D01*
X123631Y76321D01*
X123611Y76323D01*
X123593Y76331D01*
X123426Y76349D01*
X121651Y76349D01*
X120449Y77551D01*
X120449Y85249D01*
X121651Y86451D01*
X132349Y86451D01*
X133551Y85249D01*
X133551Y77551D01*
X132349Y76349D01*
X130574Y76349D01*
X130554Y76346D01*
X130535Y76348D01*
X130433Y76326D01*
X130331Y76310D01*
X130314Y76300D01*
X130294Y76296D01*
X130205Y76243D01*
X130114Y76194D01*
X130100Y76180D01*
X130083Y76170D01*
X130016Y76091D01*
X129944Y76016D01*
X129936Y75998D01*
X129923Y75983D01*
X129884Y75887D01*
X129841Y75793D01*
X129839Y75773D01*
X129831Y75755D01*
X129813Y75588D01*
X129813Y61293D01*
X129832Y61178D01*
X129849Y61062D01*
X129851Y61056D01*
X129852Y61050D01*
X129907Y60948D01*
X129960Y60843D01*
X129965Y60838D01*
X129968Y60833D01*
X130052Y60753D01*
X130136Y60671D01*
X130142Y60667D01*
X130146Y60664D01*
X130163Y60656D01*
X130283Y60590D01*
X131601Y60044D01*
X131715Y60017D01*
X131828Y59988D01*
X131835Y59989D01*
X131841Y59987D01*
X131957Y59998D01*
X132074Y60007D01*
X132079Y60010D01*
X132086Y60010D01*
X132193Y60058D01*
X132300Y60104D01*
X132306Y60108D01*
X132310Y60110D01*
X132324Y60123D01*
X132431Y60209D01*
X149364Y77142D01*
X151235Y79013D01*
X186233Y79013D01*
X186323Y79027D01*
X186414Y79035D01*
X186444Y79047D01*
X186476Y79052D01*
X186556Y79095D01*
X186640Y79131D01*
X186672Y79157D01*
X186693Y79168D01*
X186715Y79191D01*
X186771Y79236D01*
X300848Y193313D01*
X318888Y193313D01*
X318908Y193316D01*
X318927Y193314D01*
X319029Y193336D01*
X319131Y193352D01*
X319148Y193362D01*
X319168Y193366D01*
X319257Y193419D01*
X319348Y193468D01*
X319362Y193482D01*
X319379Y193492D01*
X319446Y193571D01*
X319518Y193646D01*
X319526Y193664D01*
X319539Y193679D01*
X319578Y193775D01*
X319621Y193869D01*
X319623Y193889D01*
X319631Y193907D01*
X319649Y194074D01*
X319649Y195849D01*
X319765Y195965D01*
X319777Y195981D01*
X319792Y195994D01*
X319848Y196081D01*
X319909Y196165D01*
X319914Y196184D01*
X319925Y196201D01*
X319951Y196301D01*
X319981Y196400D01*
X319980Y196420D01*
X319985Y196439D01*
X319977Y196542D01*
X319975Y196646D01*
X319968Y196665D01*
X319966Y196685D01*
X319926Y196780D01*
X319890Y196877D01*
X319878Y196893D01*
X319870Y196911D01*
X319765Y197042D01*
X319667Y197140D01*
X319332Y197719D01*
X319159Y198366D01*
X319159Y201677D01*
X329438Y201677D01*
X329458Y201680D01*
X329477Y201678D01*
X329579Y201700D01*
X329681Y201717D01*
X329698Y201726D01*
X329718Y201730D01*
X329807Y201783D01*
X329898Y201832D01*
X329912Y201846D01*
X329929Y201856D01*
X329996Y201935D01*
X330067Y202010D01*
X330076Y202028D01*
X330089Y202043D01*
X330128Y202139D01*
X330171Y202233D01*
X330173Y202253D01*
X330181Y202271D01*
X330199Y202438D01*
X330199Y203962D01*
X330196Y203982D01*
X330198Y204001D01*
X330176Y204103D01*
X330159Y204205D01*
X330150Y204222D01*
X330146Y204242D01*
X330093Y204331D01*
X330044Y204422D01*
X330030Y204436D01*
X330020Y204453D01*
X329941Y204520D01*
X329866Y204591D01*
X329848Y204600D01*
X329833Y204613D01*
X329737Y204652D01*
X329643Y204695D01*
X329623Y204697D01*
X329605Y204705D01*
X329438Y204723D01*
X319159Y204723D01*
X319159Y208034D01*
X319332Y208681D01*
X319667Y209260D01*
X319765Y209358D01*
X319777Y209374D01*
X319792Y209387D01*
X319848Y209474D01*
X319909Y209558D01*
X319914Y209577D01*
X319925Y209594D01*
X319951Y209694D01*
X319981Y209793D01*
X319980Y209813D01*
X319985Y209832D01*
X319977Y209935D01*
X319975Y210039D01*
X319968Y210058D01*
X319966Y210078D01*
X319926Y210173D01*
X319890Y210270D01*
X319878Y210285D01*
X319870Y210304D01*
X319765Y210435D01*
X319649Y210551D01*
X319649Y221249D01*
X320112Y221712D01*
X320123Y221728D01*
X320139Y221740D01*
X320195Y221827D01*
X320255Y221911D01*
X320261Y221930D01*
X320272Y221947D01*
X320297Y222048D01*
X320327Y222147D01*
X320327Y222166D01*
X320332Y222186D01*
X320324Y222289D01*
X320321Y222392D01*
X320314Y222411D01*
X320313Y222431D01*
X320272Y222526D01*
X320237Y222623D01*
X320224Y222639D01*
X320216Y222657D01*
X320112Y222788D01*
X319649Y223251D01*
X319649Y233949D01*
X319765Y234065D01*
X319777Y234081D01*
X319792Y234094D01*
X319848Y234181D01*
X319909Y234265D01*
X319914Y234284D01*
X319925Y234301D01*
X319951Y234401D01*
X319981Y234500D01*
X319980Y234520D01*
X319985Y234539D01*
X319977Y234642D01*
X319975Y234746D01*
X319968Y234765D01*
X319966Y234785D01*
X319926Y234880D01*
X319890Y234977D01*
X319878Y234993D01*
X319870Y235011D01*
X319765Y235142D01*
X319667Y235240D01*
X319332Y235819D01*
X319159Y236466D01*
X319159Y237916D01*
X319152Y237962D01*
X319154Y238008D01*
X319132Y238082D01*
X319120Y238159D01*
X319098Y238200D01*
X319085Y238244D01*
X319041Y238308D01*
X319004Y238377D01*
X318971Y238408D01*
X318945Y238446D01*
X318883Y238492D01*
X318826Y238546D01*
X318784Y238565D01*
X318748Y238593D01*
X318674Y238617D01*
X318603Y238650D01*
X318557Y238655D01*
X318514Y238669D01*
X318436Y238668D01*
X318359Y238677D01*
X318314Y238667D01*
X318268Y238666D01*
X318136Y238628D01*
X318118Y238624D01*
X318114Y238622D01*
X318107Y238620D01*
X316628Y238007D01*
X314308Y238007D01*
X312164Y238895D01*
X310523Y240536D01*
X309635Y242680D01*
X309635Y244384D01*
X309624Y244454D01*
X309622Y244526D01*
X309604Y244575D01*
X309596Y244626D01*
X309562Y244690D01*
X309537Y244757D01*
X309505Y244798D01*
X309480Y244844D01*
X309428Y244893D01*
X309384Y244949D01*
X309340Y244977D01*
X309302Y245013D01*
X309237Y245043D01*
X309177Y245082D01*
X309126Y245095D01*
X309079Y245117D01*
X309008Y245125D01*
X308938Y245142D01*
X308886Y245138D01*
X308835Y245144D01*
X308764Y245129D01*
X308693Y245123D01*
X308645Y245103D01*
X308594Y245092D01*
X308533Y245055D01*
X308467Y245027D01*
X308411Y244982D01*
X308383Y244965D01*
X308368Y244948D01*
X308336Y244922D01*
X178296Y114882D01*
X178243Y114808D01*
X178183Y114738D01*
X178171Y114708D01*
X178152Y114682D01*
X178125Y114595D01*
X178091Y114510D01*
X178087Y114469D01*
X178080Y114447D01*
X178081Y114415D01*
X178073Y114344D01*
X178073Y111611D01*
X169152Y102690D01*
X167281Y100819D01*
X134312Y100819D01*
X134292Y100816D01*
X134273Y100818D01*
X134171Y100796D01*
X134069Y100780D01*
X134052Y100770D01*
X134032Y100766D01*
X133943Y100713D01*
X133852Y100664D01*
X133838Y100650D01*
X133821Y100640D01*
X133754Y100561D01*
X133682Y100486D01*
X133674Y100468D01*
X133661Y100453D01*
X133622Y100357D01*
X133579Y100263D01*
X133577Y100243D01*
X133569Y100225D01*
X133551Y100058D01*
X133551Y92551D01*
X132349Y91349D01*
X121651Y91349D01*
X121069Y91931D01*
X121052Y91943D01*
X121040Y91958D01*
X120953Y92015D01*
X120869Y92075D01*
X120850Y92081D01*
X120833Y92091D01*
X120733Y92117D01*
X120634Y92147D01*
X120614Y92147D01*
X120595Y92152D01*
X120492Y92143D01*
X120388Y92141D01*
X120369Y92134D01*
X120349Y92132D01*
X120254Y92092D01*
X120157Y92056D01*
X120141Y92044D01*
X120123Y92036D01*
X119992Y91931D01*
X119128Y91067D01*
X116984Y90179D01*
X114664Y90179D01*
X112520Y91067D01*
X110879Y92708D01*
X109991Y94852D01*
X109991Y97172D01*
X110879Y99316D01*
X111083Y99520D01*
X111125Y99578D01*
X111174Y99630D01*
X111196Y99677D01*
X111227Y99719D01*
X111248Y99788D01*
X111278Y99853D01*
X111284Y99905D01*
X111299Y99955D01*
X111297Y100026D01*
X111305Y100097D01*
X111294Y100148D01*
X111293Y100200D01*
X111268Y100268D01*
X111253Y100338D01*
X111226Y100383D01*
X111208Y100431D01*
X111163Y100487D01*
X111127Y100549D01*
X111087Y100583D01*
X111054Y100623D01*
X110994Y100662D01*
X110940Y100709D01*
X110891Y100728D01*
X110848Y100756D01*
X110778Y100774D01*
X110711Y100801D01*
X110640Y100809D01*
X110609Y100817D01*
X110586Y100815D01*
X110545Y100819D01*
X110087Y100819D01*
X80912Y129994D01*
X80817Y130062D01*
X80724Y130132D01*
X80718Y130134D01*
X80713Y130137D01*
X80601Y130172D01*
X80490Y130208D01*
X80484Y130208D01*
X80478Y130210D01*
X80361Y130207D01*
X80244Y130206D01*
X80237Y130204D01*
X80232Y130203D01*
X80214Y130197D01*
X80083Y130159D01*
X78249Y129399D01*
X74151Y129399D01*
X70365Y130967D01*
X67467Y133865D01*
X65899Y137651D01*
X65899Y141749D01*
X67467Y145535D01*
X70365Y148433D01*
X74151Y150001D01*
X78249Y150001D01*
X82035Y148433D01*
X84933Y145535D01*
X86501Y141749D01*
X86501Y137651D01*
X85146Y134380D01*
X85119Y134267D01*
X85091Y134153D01*
X85091Y134147D01*
X85090Y134141D01*
X85101Y134024D01*
X85110Y133908D01*
X85112Y133902D01*
X85113Y133896D01*
X85161Y133789D01*
X85206Y133682D01*
X85211Y133676D01*
X85213Y133671D01*
X85226Y133658D01*
X85311Y133551D01*
X112194Y106668D01*
X112268Y106615D01*
X112338Y106555D01*
X112368Y106543D01*
X112394Y106524D01*
X112481Y106497D01*
X112566Y106463D01*
X112607Y106459D01*
X112629Y106452D01*
X112661Y106453D01*
X112732Y106445D01*
X128532Y106445D01*
X128602Y106456D01*
X128674Y106458D01*
X128723Y106476D01*
X128774Y106484D01*
X128838Y106518D01*
X128905Y106543D01*
X128946Y106575D01*
X128992Y106600D01*
X129041Y106651D01*
X129097Y106696D01*
X129125Y106740D01*
X129161Y106778D01*
X129191Y106843D01*
X129230Y106903D01*
X129243Y106954D01*
X129265Y107001D01*
X129273Y107072D01*
X129290Y107142D01*
X129286Y107194D01*
X129292Y107245D01*
X129277Y107316D01*
X129271Y107387D01*
X129251Y107435D01*
X129240Y107486D01*
X129203Y107547D01*
X129175Y107613D01*
X129130Y107669D01*
X129113Y107697D01*
X129096Y107712D01*
X129070Y107744D01*
X81272Y155543D01*
X81177Y155610D01*
X81083Y155681D01*
X81077Y155683D01*
X81072Y155686D01*
X80961Y155720D01*
X80849Y155757D01*
X80843Y155757D01*
X80837Y155759D01*
X80720Y155756D01*
X80603Y155754D01*
X80596Y155752D01*
X80591Y155752D01*
X80573Y155746D01*
X80442Y155708D01*
X78249Y154799D01*
X74151Y154799D01*
X70365Y156367D01*
X67467Y159265D01*
X65899Y163051D01*
X65899Y167149D01*
X67467Y170935D01*
X70365Y173833D01*
X74151Y175401D01*
X78249Y175401D01*
X82035Y173833D01*
X82756Y173112D01*
X82814Y173070D01*
X82866Y173020D01*
X82913Y172999D01*
X82955Y172968D01*
X83024Y172947D01*
X83089Y172917D01*
X83141Y172911D01*
X83191Y172896D01*
X83262Y172898D01*
X83333Y172890D01*
X83384Y172901D01*
X83436Y172902D01*
X83504Y172927D01*
X83574Y172942D01*
X83619Y172969D01*
X83667Y172987D01*
X83723Y173031D01*
X83785Y173068D01*
X83819Y173108D01*
X83859Y173140D01*
X83898Y173201D01*
X83945Y173255D01*
X83964Y173303D01*
X83992Y173347D01*
X84010Y173417D01*
X84037Y173483D01*
X84045Y173555D01*
X84053Y173586D01*
X84051Y173609D01*
X84055Y173650D01*
X84055Y178352D01*
X84041Y178442D01*
X84033Y178533D01*
X84021Y178562D01*
X84016Y178594D01*
X83973Y178675D01*
X83937Y178759D01*
X83911Y178791D01*
X83900Y178812D01*
X83877Y178834D01*
X83832Y178890D01*
X81631Y181091D01*
X81536Y181159D01*
X81442Y181229D01*
X81436Y181231D01*
X81431Y181235D01*
X81320Y181269D01*
X81208Y181306D01*
X81202Y181305D01*
X81196Y181307D01*
X81079Y181304D01*
X80962Y181303D01*
X80955Y181301D01*
X80950Y181301D01*
X80933Y181295D01*
X80801Y181256D01*
X78249Y180199D01*
X74151Y180199D01*
X70365Y181767D01*
X67467Y184665D01*
X65899Y188451D01*
X65899Y192549D01*
X67467Y196335D01*
X70365Y199233D01*
X74151Y200801D01*
X78249Y200801D01*
X82035Y199233D01*
X84933Y196335D01*
X85639Y194630D01*
X85690Y194547D01*
X85736Y194461D01*
X85755Y194443D01*
X85768Y194421D01*
X85843Y194359D01*
X85914Y194292D01*
X85938Y194281D01*
X85958Y194264D01*
X86049Y194229D01*
X86137Y194188D01*
X86163Y194185D01*
X86187Y194176D01*
X86285Y194172D01*
X86381Y194161D01*
X86407Y194167D01*
X86433Y194166D01*
X86527Y194193D01*
X86622Y194213D01*
X86644Y194227D01*
X86669Y194234D01*
X86749Y194290D01*
X86833Y194340D01*
X86850Y194359D01*
X86871Y194374D01*
X86930Y194452D01*
X86993Y194526D01*
X87003Y194551D01*
X87018Y194572D01*
X87048Y194664D01*
X87085Y194755D01*
X87088Y194787D01*
X87094Y194806D01*
X87094Y194839D01*
X87103Y194921D01*
X87103Y199688D01*
X87089Y199778D01*
X87081Y199869D01*
X87069Y199898D01*
X87064Y199930D01*
X87021Y200011D01*
X86985Y200095D01*
X86959Y200127D01*
X86948Y200148D01*
X86925Y200170D01*
X86902Y200199D01*
X86899Y200203D01*
X86897Y200205D01*
X86880Y200226D01*
X80912Y206194D01*
X80817Y206262D01*
X80724Y206332D01*
X80718Y206334D01*
X80713Y206337D01*
X80601Y206372D01*
X80490Y206408D01*
X80484Y206408D01*
X80478Y206410D01*
X80361Y206407D01*
X80244Y206406D01*
X80237Y206404D01*
X80232Y206403D01*
X80214Y206397D01*
X80083Y206359D01*
X78249Y205599D01*
X74151Y205599D01*
X70365Y207167D01*
X67467Y210065D01*
X65899Y213851D01*
X65899Y217949D01*
X67467Y221735D01*
X70365Y224633D01*
X74151Y226201D01*
X78249Y226201D01*
X82035Y224633D01*
X82756Y223912D01*
X82814Y223870D01*
X82866Y223820D01*
X82913Y223799D01*
X82955Y223768D01*
X83024Y223747D01*
X83089Y223717D01*
X83141Y223711D01*
X83191Y223696D01*
X83262Y223698D01*
X83333Y223690D01*
X83384Y223701D01*
X83436Y223702D01*
X83504Y223727D01*
X83574Y223742D01*
X83619Y223769D01*
X83667Y223787D01*
X83723Y223831D01*
X83785Y223868D01*
X83819Y223908D01*
X83859Y223940D01*
X83898Y224001D01*
X83945Y224055D01*
X83964Y224103D01*
X83992Y224147D01*
X84010Y224217D01*
X84037Y224283D01*
X84045Y224355D01*
X84053Y224386D01*
X84051Y224409D01*
X84055Y224450D01*
X84055Y228644D01*
X84052Y228662D01*
X84054Y228679D01*
X84039Y228747D01*
X84033Y228825D01*
X84021Y228854D01*
X84016Y228886D01*
X84005Y228907D01*
X84002Y228919D01*
X83971Y228971D01*
X83937Y229051D01*
X83911Y229083D01*
X83900Y229104D01*
X83880Y229123D01*
X83876Y229130D01*
X83869Y229137D01*
X83832Y229182D01*
X81272Y231743D01*
X81177Y231811D01*
X81083Y231881D01*
X81077Y231883D01*
X81072Y231886D01*
X80961Y231920D01*
X80849Y231957D01*
X80843Y231957D01*
X80837Y231959D01*
X80720Y231956D01*
X80603Y231954D01*
X80596Y231952D01*
X80591Y231952D01*
X80573Y231946D01*
X80442Y231908D01*
X78249Y230999D01*
X74151Y230999D01*
X70365Y232567D01*
X67467Y235465D01*
X65899Y239251D01*
X65899Y243349D01*
X67467Y247135D01*
X70365Y250033D01*
X74151Y251601D01*
X78249Y251601D01*
X82035Y250033D01*
X84933Y247135D01*
X85639Y245430D01*
X85690Y245347D01*
X85736Y245261D01*
X85754Y245243D01*
X85768Y245221D01*
X85844Y245159D01*
X85914Y245092D01*
X85938Y245081D01*
X85958Y245064D01*
X86049Y245029D01*
X86137Y244988D01*
X86163Y244985D01*
X86187Y244976D01*
X86285Y244972D01*
X86381Y244961D01*
X86407Y244967D01*
X86433Y244966D01*
X86527Y244993D01*
X86622Y245013D01*
X86644Y245027D01*
X86669Y245034D01*
X86749Y245090D01*
X86833Y245140D01*
X86850Y245159D01*
X86871Y245174D01*
X86930Y245252D01*
X86993Y245326D01*
X87003Y245351D01*
X87018Y245372D01*
X87048Y245464D01*
X87085Y245555D01*
X87088Y245587D01*
X87094Y245606D01*
X87094Y245639D01*
X87103Y245721D01*
X87103Y251504D01*
X87102Y251513D01*
X87102Y251516D01*
X87098Y251536D01*
X87089Y251594D01*
X87081Y251685D01*
X87069Y251714D01*
X87064Y251746D01*
X87021Y251827D01*
X86985Y251911D01*
X86959Y251943D01*
X86948Y251964D01*
X86925Y251986D01*
X86880Y252042D01*
X81631Y257291D01*
X81536Y257359D01*
X81442Y257429D01*
X81436Y257431D01*
X81431Y257435D01*
X81320Y257469D01*
X81208Y257506D01*
X81202Y257505D01*
X81196Y257507D01*
X81079Y257504D01*
X80962Y257503D01*
X80955Y257501D01*
X80950Y257501D01*
X80933Y257495D01*
X80801Y257456D01*
X78249Y256399D01*
X74151Y256399D01*
X70365Y257967D01*
X67467Y260865D01*
X65899Y264651D01*
X65899Y268749D01*
X67467Y272535D01*
X70365Y275433D01*
X74151Y277001D01*
X78249Y277001D01*
X82035Y275433D01*
X82756Y274712D01*
X82814Y274670D01*
X82866Y274620D01*
X82913Y274599D01*
X82955Y274568D01*
X83024Y274547D01*
X83089Y274517D01*
X83141Y274511D01*
X83191Y274496D01*
X83262Y274498D01*
X83333Y274490D01*
X83384Y274501D01*
X83436Y274502D01*
X83504Y274527D01*
X83574Y274542D01*
X83619Y274569D01*
X83667Y274587D01*
X83723Y274631D01*
X83785Y274668D01*
X83819Y274708D01*
X83859Y274740D01*
X83898Y274801D01*
X83945Y274855D01*
X83964Y274903D01*
X83992Y274947D01*
X84010Y275017D01*
X84037Y275083D01*
X84045Y275155D01*
X84053Y275186D01*
X84051Y275209D01*
X84055Y275250D01*
X84055Y278936D01*
X84041Y279026D01*
X84033Y279117D01*
X84021Y279146D01*
X84016Y279178D01*
X83973Y279259D01*
X83937Y279343D01*
X83911Y279375D01*
X83900Y279396D01*
X83877Y279418D01*
X83832Y279474D01*
X80912Y282394D01*
X80817Y282462D01*
X80724Y282532D01*
X80718Y282534D01*
X80713Y282537D01*
X80601Y282572D01*
X80490Y282608D01*
X80484Y282608D01*
X80478Y282610D01*
X80361Y282607D01*
X80244Y282606D01*
X80237Y282604D01*
X80232Y282603D01*
X80214Y282597D01*
X80083Y282559D01*
X78249Y281799D01*
X74151Y281799D01*
X70365Y283367D01*
X67467Y286265D01*
X65899Y290051D01*
X65899Y294149D01*
X67467Y297935D01*
X70365Y300833D01*
X74151Y302401D01*
X78249Y302401D01*
X82035Y300833D01*
X84933Y297935D01*
X85639Y296230D01*
X85690Y296147D01*
X85736Y296061D01*
X85755Y296043D01*
X85768Y296021D01*
X85843Y295959D01*
X85914Y295892D01*
X85938Y295881D01*
X85958Y295864D01*
X86049Y295829D01*
X86137Y295788D01*
X86163Y295785D01*
X86187Y295776D01*
X86285Y295772D01*
X86381Y295761D01*
X86407Y295767D01*
X86433Y295766D01*
X86527Y295793D01*
X86622Y295813D01*
X86644Y295827D01*
X86669Y295834D01*
X86749Y295890D01*
X86833Y295940D01*
X86850Y295959D01*
X86871Y295974D01*
X86930Y296052D01*
X86993Y296126D01*
X87003Y296151D01*
X87018Y296172D01*
X87048Y296264D01*
X87085Y296355D01*
X87088Y296387D01*
X87094Y296406D01*
X87094Y296439D01*
X87103Y296521D01*
X87103Y301796D01*
X87089Y301886D01*
X87081Y301977D01*
X87069Y302006D01*
X87064Y302038D01*
X87021Y302119D01*
X86985Y302203D01*
X86959Y302235D01*
X86948Y302256D01*
X86925Y302278D01*
X86880Y302334D01*
X81272Y307943D01*
X81177Y308011D01*
X81083Y308081D01*
X81077Y308083D01*
X81072Y308086D01*
X80961Y308120D01*
X80849Y308157D01*
X80843Y308157D01*
X80837Y308159D01*
X80720Y308156D01*
X80603Y308154D01*
X80596Y308152D01*
X80591Y308152D01*
X80573Y308146D01*
X80442Y308108D01*
X78249Y307199D01*
X74151Y307199D01*
X70365Y308767D01*
X67467Y311665D01*
X65899Y315451D01*
X65899Y319549D01*
X67467Y323335D01*
X70365Y326233D01*
X74151Y327801D01*
X78249Y327801D01*
X82035Y326233D01*
X82756Y325512D01*
X82814Y325470D01*
X82866Y325420D01*
X82913Y325399D01*
X82955Y325368D01*
X83024Y325347D01*
X83089Y325317D01*
X83141Y325311D01*
X83191Y325296D01*
X83262Y325298D01*
X83333Y325290D01*
X83384Y325301D01*
X83436Y325302D01*
X83504Y325327D01*
X83574Y325342D01*
X83619Y325369D01*
X83667Y325387D01*
X83723Y325431D01*
X83785Y325468D01*
X83819Y325508D01*
X83859Y325540D01*
X83898Y325601D01*
X83945Y325655D01*
X83964Y325703D01*
X83992Y325747D01*
X84010Y325817D01*
X84037Y325883D01*
X84045Y325955D01*
X84053Y325986D01*
X84051Y326009D01*
X84055Y326050D01*
X84055Y330752D01*
X84041Y330842D01*
X84033Y330933D01*
X84021Y330962D01*
X84016Y330994D01*
X83973Y331075D01*
X83937Y331159D01*
X83911Y331191D01*
X83900Y331212D01*
X83877Y331234D01*
X83832Y331290D01*
X81631Y333491D01*
X81536Y333559D01*
X81532Y333562D01*
X81510Y333582D01*
X81502Y333585D01*
X81442Y333629D01*
X81436Y333631D01*
X81431Y333635D01*
X81320Y333669D01*
X81208Y333706D01*
X81202Y333705D01*
X81196Y333707D01*
X81079Y333704D01*
X80962Y333703D01*
X80955Y333701D01*
X80950Y333701D01*
X80933Y333695D01*
X80801Y333656D01*
X78249Y332599D01*
X74151Y332599D01*
X70365Y334167D01*
X67467Y337065D01*
X65899Y340851D01*
X65899Y344949D01*
X67467Y348735D01*
X70365Y351633D01*
X74151Y353201D01*
X78249Y353201D01*
X82035Y351633D01*
X84933Y348735D01*
X85639Y347030D01*
X85690Y346947D01*
X85736Y346861D01*
X85754Y346843D01*
X85768Y346821D01*
X85844Y346759D01*
X85914Y346692D01*
X85938Y346681D01*
X85958Y346664D01*
X86049Y346629D01*
X86137Y346588D01*
X86163Y346585D01*
X86187Y346576D01*
X86285Y346572D01*
X86381Y346561D01*
X86407Y346567D01*
X86433Y346566D01*
X86527Y346593D01*
X86622Y346613D01*
X86644Y346627D01*
X86669Y346634D01*
X86749Y346690D01*
X86833Y346740D01*
X86850Y346759D01*
X86871Y346774D01*
X86930Y346852D01*
X86993Y346926D01*
X87003Y346951D01*
X87018Y346972D01*
X87048Y347064D01*
X87085Y347155D01*
X87088Y347187D01*
X87094Y347206D01*
X87094Y347239D01*
X87103Y347321D01*
X87103Y352088D01*
X87089Y352178D01*
X87081Y352269D01*
X87069Y352298D01*
X87064Y352330D01*
X87021Y352411D01*
X86985Y352495D01*
X86959Y352527D01*
X86948Y352548D01*
X86925Y352570D01*
X86880Y352626D01*
X80912Y358594D01*
X80834Y358650D01*
X80773Y358703D01*
X80751Y358712D01*
X80724Y358732D01*
X80718Y358734D01*
X80713Y358737D01*
X80603Y358771D01*
X80544Y358795D01*
X80523Y358797D01*
X80490Y358808D01*
X80484Y358808D01*
X80478Y358810D01*
X80422Y358808D01*
X80378Y358813D01*
X80365Y358813D01*
X80324Y358806D01*
X80244Y358806D01*
X80237Y358804D01*
X80232Y358803D01*
X80214Y358797D01*
X80147Y358777D01*
X80123Y358773D01*
X80110Y358767D01*
X80083Y358759D01*
X78249Y357999D01*
X74151Y357999D01*
X70365Y359567D01*
X67467Y362465D01*
X65899Y366251D01*
X65899Y370349D01*
X67467Y374135D01*
X70365Y377033D01*
X74151Y378601D01*
X78249Y378601D01*
X82035Y377033D01*
X84933Y374135D01*
X86501Y370349D01*
X86501Y366251D01*
X85146Y362980D01*
X85119Y362867D01*
X85091Y362753D01*
X85091Y362747D01*
X85090Y362741D01*
X85101Y362624D01*
X85110Y362508D01*
X85112Y362502D01*
X85113Y362496D01*
X85161Y362389D01*
X85206Y362282D01*
X85211Y362276D01*
X85213Y362271D01*
X85226Y362258D01*
X85311Y362151D01*
X88852Y358610D01*
X88910Y358568D01*
X88962Y358519D01*
X89009Y358497D01*
X89051Y358467D01*
X89120Y358445D01*
X89185Y358415D01*
X89237Y358409D01*
X89287Y358394D01*
X89358Y358396D01*
X89429Y358388D01*
X89480Y358399D01*
X89532Y358401D01*
X89600Y358425D01*
X89670Y358440D01*
X89714Y358467D01*
X89763Y358485D01*
X89819Y358530D01*
X89881Y358567D01*
X89915Y358606D01*
X89955Y358639D01*
X89994Y358699D01*
X90041Y358753D01*
X90060Y358802D01*
X90088Y358846D01*
X90106Y358915D01*
X90133Y358982D01*
X90141Y359053D01*
X90149Y359084D01*
X90147Y359107D01*
X90151Y359148D01*
X90151Y374948D01*
X90137Y375038D01*
X90129Y375129D01*
X90117Y375158D01*
X90112Y375190D01*
X90069Y375271D01*
X90033Y375355D01*
X90007Y375387D01*
X89996Y375408D01*
X89973Y375430D01*
X89928Y375486D01*
X81272Y384143D01*
X81177Y384211D01*
X81083Y384281D01*
X81077Y384283D01*
X81072Y384286D01*
X80961Y384320D01*
X80849Y384357D01*
X80843Y384357D01*
X80837Y384359D01*
X80720Y384356D01*
X80603Y384354D01*
X80596Y384352D01*
X80591Y384352D01*
X80573Y384346D01*
X80442Y384308D01*
X78249Y383399D01*
X74151Y383399D01*
X70365Y384967D01*
X67467Y387865D01*
X65899Y391651D01*
X65899Y395749D01*
X67467Y399535D01*
X70365Y402433D01*
X74151Y404001D01*
X78249Y404001D01*
X82035Y402433D01*
X84933Y399535D01*
X86501Y395749D01*
X86501Y391651D01*
X85295Y388740D01*
X85268Y388626D01*
X85240Y388513D01*
X85240Y388506D01*
X85239Y388500D01*
X85250Y388384D01*
X85259Y388267D01*
X85261Y388262D01*
X85262Y388255D01*
X85310Y388148D01*
X85355Y388041D01*
X85360Y388035D01*
X85362Y388031D01*
X85374Y388017D01*
X85460Y387910D01*
X91900Y381470D01*
X91958Y381428D01*
X92010Y381379D01*
X92057Y381357D01*
X92099Y381327D01*
X92168Y381305D01*
X92233Y381275D01*
X92285Y381269D01*
X92335Y381254D01*
X92406Y381256D01*
X92477Y381248D01*
X92528Y381259D01*
X92580Y381261D01*
X92648Y381285D01*
X92718Y381300D01*
X92762Y381327D01*
X92811Y381345D01*
X92867Y381390D01*
X92929Y381427D01*
X92963Y381466D01*
X93003Y381499D01*
X93042Y381559D01*
X93089Y381613D01*
X93108Y381662D01*
X93136Y381706D01*
X93154Y381775D01*
X93181Y381842D01*
X93189Y381913D01*
X93197Y381944D01*
X93195Y381967D01*
X93199Y382008D01*
X93199Y397808D01*
X93185Y397898D01*
X93177Y397989D01*
X93165Y398018D01*
X93160Y398050D01*
X93117Y398131D01*
X93081Y398215D01*
X93055Y398247D01*
X93044Y398268D01*
X93021Y398290D01*
X92976Y398346D01*
X82746Y408576D01*
X82672Y408629D01*
X82603Y408689D01*
X82572Y408701D01*
X82546Y408720D01*
X82459Y408747D01*
X82374Y408781D01*
X82333Y408785D01*
X82311Y408792D01*
X82279Y408791D01*
X82208Y408799D01*
X67101Y408799D01*
X65899Y410001D01*
X65899Y428199D01*
X67101Y429401D01*
X85299Y429401D01*
X86501Y428199D01*
X86501Y413092D01*
X86515Y413002D01*
X86523Y412911D01*
X86535Y412882D01*
X86540Y412850D01*
X86583Y412769D01*
X86619Y412685D01*
X86645Y412653D01*
X86656Y412632D01*
X86679Y412610D01*
X86724Y412554D01*
X98825Y400453D01*
X98825Y319996D01*
X98839Y319906D01*
X98847Y319815D01*
X98859Y319786D01*
X98864Y319754D01*
X98883Y319719D01*
X98885Y319710D01*
X98908Y319671D01*
X98943Y319589D01*
X98969Y319557D01*
X98980Y319536D01*
X99000Y319516D01*
X99011Y319499D01*
X99025Y319487D01*
X99048Y319458D01*
X140550Y277956D01*
X140608Y277914D01*
X140660Y277865D01*
X140707Y277843D01*
X140749Y277813D01*
X140818Y277791D01*
X140883Y277761D01*
X140935Y277755D01*
X140985Y277740D01*
X141056Y277742D01*
X141127Y277734D01*
X141178Y277745D01*
X141230Y277747D01*
X141298Y277771D01*
X141368Y277786D01*
X141413Y277813D01*
X141461Y277831D01*
X141517Y277876D01*
X141579Y277913D01*
X141613Y277952D01*
X141653Y277985D01*
X141692Y278045D01*
X141739Y278099D01*
X141758Y278148D01*
X141786Y278192D01*
X141804Y278261D01*
X141831Y278328D01*
X141839Y278399D01*
X141847Y278430D01*
X141845Y278453D01*
X141849Y278494D01*
X141849Y284749D01*
X141965Y284865D01*
X141977Y284881D01*
X141992Y284894D01*
X142048Y284981D01*
X142109Y285065D01*
X142114Y285084D01*
X142125Y285101D01*
X142151Y285201D01*
X142181Y285300D01*
X142180Y285320D01*
X142185Y285339D01*
X142177Y285442D01*
X142175Y285546D01*
X142168Y285565D01*
X142166Y285585D01*
X142126Y285680D01*
X142090Y285777D01*
X142078Y285793D01*
X142070Y285811D01*
X141965Y285942D01*
X141867Y286040D01*
X141532Y286619D01*
X141359Y287266D01*
X141359Y288419D01*
X141352Y288464D01*
X141354Y288510D01*
X141332Y288585D01*
X141320Y288662D01*
X141298Y288702D01*
X141285Y288746D01*
X141241Y288810D01*
X141204Y288879D01*
X141171Y288910D01*
X141145Y288948D01*
X141082Y288995D01*
X141026Y289048D01*
X140984Y289068D01*
X140948Y289095D01*
X140874Y289119D01*
X140803Y289152D01*
X140757Y289157D01*
X140714Y289171D01*
X140636Y289170D01*
X140559Y289179D01*
X140514Y289169D01*
X140468Y289169D01*
X140336Y289131D01*
X140318Y289127D01*
X140314Y289124D01*
X140307Y289122D01*
X138320Y288299D01*
X136000Y288299D01*
X133856Y289187D01*
X132215Y290828D01*
X131327Y292972D01*
X131327Y295292D01*
X132215Y297436D01*
X133856Y299077D01*
X136000Y299965D01*
X138320Y299965D01*
X138341Y299956D01*
X138455Y299929D01*
X138569Y299901D01*
X138575Y299901D01*
X138581Y299900D01*
X138697Y299911D01*
X138814Y299920D01*
X138820Y299922D01*
X138826Y299923D01*
X138933Y299971D01*
X139040Y300016D01*
X139046Y300021D01*
X139051Y300023D01*
X139064Y300036D01*
X139171Y300121D01*
X141626Y302576D01*
X141679Y302650D01*
X141739Y302720D01*
X141751Y302750D01*
X141770Y302776D01*
X141797Y302863D01*
X141831Y302948D01*
X141835Y302989D01*
X141842Y303011D01*
X141841Y303043D01*
X141849Y303114D01*
X141849Y310149D01*
X142312Y310612D01*
X142323Y310628D01*
X142339Y310640D01*
X142395Y310728D01*
X142455Y310811D01*
X142461Y310830D01*
X142472Y310847D01*
X142497Y310948D01*
X142527Y311047D01*
X142527Y311066D01*
X142532Y311086D01*
X142524Y311189D01*
X142521Y311292D01*
X142514Y311311D01*
X142513Y311331D01*
X142472Y311426D01*
X142437Y311523D01*
X142424Y311539D01*
X142416Y311557D01*
X142312Y311688D01*
X141849Y312151D01*
X141849Y320202D01*
X141835Y320292D01*
X141827Y320383D01*
X141815Y320412D01*
X141810Y320444D01*
X141767Y320525D01*
X141731Y320609D01*
X141705Y320641D01*
X141694Y320662D01*
X141671Y320684D01*
X141626Y320740D01*
X137395Y324971D01*
X137395Y408073D01*
X141876Y412554D01*
X141929Y412628D01*
X141989Y412698D01*
X142001Y412728D01*
X142020Y412754D01*
X142047Y412841D01*
X142081Y412926D01*
X142085Y412967D01*
X142092Y412989D01*
X142091Y413021D01*
X142099Y413092D01*
X142099Y428199D01*
X143301Y429401D01*
X161499Y429401D01*
X162701Y428199D01*
X162701Y410001D01*
X161499Y408799D01*
X146392Y408799D01*
X146302Y408785D01*
X146211Y408777D01*
X146182Y408765D01*
X146150Y408760D01*
X146069Y408717D01*
X145985Y408681D01*
X145953Y408655D01*
X145932Y408644D01*
X145910Y408621D01*
X145854Y408576D01*
X143244Y405966D01*
X143191Y405892D01*
X143131Y405822D01*
X143119Y405792D01*
X143100Y405766D01*
X143073Y405679D01*
X143039Y405594D01*
X143035Y405553D01*
X143028Y405531D01*
X143029Y405499D01*
X143021Y405428D01*
X143021Y363402D01*
X143024Y363382D01*
X143022Y363363D01*
X143044Y363261D01*
X143060Y363159D01*
X143070Y363142D01*
X143074Y363122D01*
X143127Y363033D01*
X143176Y362942D01*
X143190Y362928D01*
X143200Y362911D01*
X143279Y362844D01*
X143354Y362772D01*
X143372Y362764D01*
X143387Y362751D01*
X143483Y362712D01*
X143577Y362669D01*
X143597Y362667D01*
X143615Y362659D01*
X143782Y362641D01*
X150877Y362641D01*
X150877Y356362D01*
X150880Y356342D01*
X150878Y356323D01*
X150900Y356221D01*
X150917Y356119D01*
X150926Y356102D01*
X150930Y356082D01*
X150983Y355993D01*
X151032Y355902D01*
X151046Y355888D01*
X151056Y355871D01*
X151135Y355804D01*
X151210Y355733D01*
X151228Y355724D01*
X151243Y355711D01*
X151339Y355672D01*
X151433Y355629D01*
X151453Y355627D01*
X151471Y355619D01*
X151638Y355601D01*
X152401Y355601D01*
X152401Y354838D01*
X152404Y354818D01*
X152402Y354799D01*
X152424Y354697D01*
X152441Y354595D01*
X152450Y354578D01*
X152454Y354558D01*
X152507Y354469D01*
X152556Y354378D01*
X152570Y354364D01*
X152580Y354347D01*
X152659Y354280D01*
X152734Y354209D01*
X152752Y354200D01*
X152767Y354187D01*
X152863Y354148D01*
X152957Y354105D01*
X152977Y354103D01*
X152995Y354095D01*
X153162Y354077D01*
X163441Y354077D01*
X163441Y350765D01*
X163268Y350119D01*
X162933Y349540D01*
X162835Y349442D01*
X162823Y349426D01*
X162808Y349413D01*
X162778Y349367D01*
X162757Y349345D01*
X162742Y349313D01*
X162691Y349242D01*
X162686Y349223D01*
X162675Y349206D01*
X162649Y349106D01*
X162619Y349007D01*
X162620Y348987D01*
X162615Y348968D01*
X162623Y348865D01*
X162625Y348761D01*
X162632Y348742D01*
X162634Y348722D01*
X162674Y348627D01*
X162710Y348530D01*
X162722Y348515D01*
X162730Y348496D01*
X162835Y348365D01*
X162951Y348249D01*
X162951Y342502D01*
X162962Y342432D01*
X162964Y342360D01*
X162982Y342311D01*
X162990Y342260D01*
X163024Y342196D01*
X163049Y342129D01*
X163081Y342088D01*
X163106Y342042D01*
X163158Y341993D01*
X163202Y341937D01*
X163246Y341909D01*
X163284Y341873D01*
X163349Y341843D01*
X163409Y341804D01*
X163460Y341791D01*
X163507Y341769D01*
X163578Y341761D01*
X163648Y341744D01*
X163700Y341748D01*
X163751Y341742D01*
X163822Y341757D01*
X163893Y341763D01*
X163941Y341783D01*
X163992Y341794D01*
X164053Y341831D01*
X164119Y341859D01*
X164175Y341904D01*
X164203Y341921D01*
X164218Y341938D01*
X164250Y341964D01*
X173748Y351462D01*
X173796Y351529D01*
X173801Y351534D01*
X173803Y351538D01*
X173861Y351606D01*
X173873Y351636D01*
X173892Y351662D01*
X173919Y351749D01*
X173953Y351834D01*
X173957Y351875D01*
X173964Y351897D01*
X173963Y351929D01*
X173971Y352000D01*
X173971Y409028D01*
X173952Y409143D01*
X173935Y409259D01*
X173933Y409264D01*
X173932Y409271D01*
X173877Y409373D01*
X173824Y409478D01*
X173819Y409482D01*
X173816Y409488D01*
X173732Y409568D01*
X173648Y409650D01*
X173642Y409654D01*
X173638Y409657D01*
X173621Y409665D01*
X173501Y409731D01*
X171965Y410367D01*
X169067Y413265D01*
X167499Y417051D01*
X167499Y421149D01*
X169067Y424935D01*
X171965Y427833D01*
X175751Y429401D01*
X179849Y429401D01*
X183635Y427833D01*
X186533Y424935D01*
X188101Y421149D01*
X188101Y417051D01*
X186533Y413265D01*
X183635Y410367D01*
X180067Y408889D01*
X179967Y408828D01*
X179867Y408768D01*
X179863Y408763D01*
X179858Y408760D01*
X179783Y408670D01*
X179707Y408581D01*
X179705Y408575D01*
X179701Y408570D01*
X179659Y408462D01*
X179615Y408353D01*
X179614Y408345D01*
X179613Y408341D01*
X179612Y408322D01*
X179597Y408186D01*
X179597Y349355D01*
X163174Y332932D01*
X163121Y332858D01*
X163061Y332788D01*
X163049Y332758D01*
X163030Y332732D01*
X163003Y332645D01*
X162969Y332560D01*
X162965Y332519D01*
X162958Y332497D01*
X162959Y332465D01*
X162951Y332394D01*
X162951Y324851D01*
X162488Y324388D01*
X162477Y324372D01*
X162461Y324360D01*
X162405Y324273D01*
X162345Y324189D01*
X162339Y324170D01*
X162328Y324153D01*
X162303Y324052D01*
X162273Y323953D01*
X162273Y323934D01*
X162268Y323914D01*
X162276Y323811D01*
X162279Y323708D01*
X162286Y323689D01*
X162287Y323669D01*
X162328Y323574D01*
X162363Y323477D01*
X162376Y323461D01*
X162384Y323443D01*
X162488Y323312D01*
X162951Y322849D01*
X162951Y312151D01*
X162488Y311688D01*
X162477Y311672D01*
X162461Y311660D01*
X162405Y311573D01*
X162345Y311489D01*
X162339Y311470D01*
X162328Y311453D01*
X162303Y311352D01*
X162273Y311253D01*
X162273Y311234D01*
X162268Y311214D01*
X162276Y311111D01*
X162279Y311008D01*
X162286Y310989D01*
X162287Y310969D01*
X162328Y310874D01*
X162363Y310777D01*
X162376Y310761D01*
X162384Y310743D01*
X162488Y310612D01*
X162951Y310149D01*
X162951Y299451D01*
X162835Y299335D01*
X162823Y299319D01*
X162808Y299306D01*
X162752Y299219D01*
X162691Y299135D01*
X162686Y299116D01*
X162675Y299099D01*
X162649Y298999D01*
X162619Y298900D01*
X162620Y298880D01*
X162615Y298861D01*
X162623Y298758D01*
X162625Y298654D01*
X162632Y298635D01*
X162634Y298615D01*
X162674Y298520D01*
X162710Y298423D01*
X162722Y298407D01*
X162730Y298389D01*
X162835Y298258D01*
X162933Y298160D01*
X163268Y297581D01*
X163441Y296934D01*
X163441Y293623D01*
X153162Y293623D01*
X153142Y293620D01*
X153123Y293622D01*
X153021Y293600D01*
X152919Y293583D01*
X152902Y293574D01*
X152882Y293570D01*
X152793Y293517D01*
X152702Y293468D01*
X152688Y293454D01*
X152671Y293444D01*
X152604Y293365D01*
X152533Y293290D01*
X152524Y293272D01*
X152511Y293257D01*
X152472Y293161D01*
X152429Y293067D01*
X152427Y293047D01*
X152419Y293029D01*
X152401Y292862D01*
X152401Y291338D01*
X152404Y291318D01*
X152402Y291299D01*
X152424Y291197D01*
X152441Y291095D01*
X152450Y291078D01*
X152454Y291058D01*
X152507Y290969D01*
X152556Y290878D01*
X152570Y290864D01*
X152580Y290847D01*
X152659Y290780D01*
X152734Y290709D01*
X152752Y290700D01*
X152767Y290687D01*
X152863Y290648D01*
X152957Y290605D01*
X152977Y290603D01*
X152995Y290595D01*
X153162Y290577D01*
X163441Y290577D01*
X163441Y287265D01*
X163268Y286619D01*
X162933Y286040D01*
X162835Y285942D01*
X162823Y285926D01*
X162808Y285913D01*
X162752Y285826D01*
X162691Y285742D01*
X162686Y285723D01*
X162675Y285706D01*
X162649Y285606D01*
X162619Y285507D01*
X162620Y285487D01*
X162615Y285468D01*
X162623Y285365D01*
X162625Y285261D01*
X162632Y285242D01*
X162634Y285222D01*
X162674Y285127D01*
X162710Y285030D01*
X162722Y285015D01*
X162730Y284996D01*
X162835Y284865D01*
X162951Y284749D01*
X162951Y277206D01*
X162965Y277116D01*
X162973Y277025D01*
X162985Y276996D01*
X162990Y276964D01*
X163033Y276883D01*
X163069Y276799D01*
X163095Y276767D01*
X163106Y276746D01*
X163129Y276724D01*
X163174Y276668D01*
X165629Y274213D01*
X165724Y274144D01*
X165818Y274075D01*
X165823Y274073D01*
X165829Y274069D01*
X165940Y274035D01*
X166051Y273999D01*
X166058Y273999D01*
X166064Y273997D01*
X166180Y274000D01*
X166297Y274001D01*
X166305Y274003D01*
X166310Y274003D01*
X166327Y274010D01*
X166458Y274048D01*
X166480Y274057D01*
X168800Y274057D01*
X170944Y273169D01*
X172585Y271528D01*
X173473Y269384D01*
X173473Y267064D01*
X172585Y264920D01*
X170944Y263279D01*
X168800Y262391D01*
X166480Y262391D01*
X164336Y263279D01*
X164250Y263365D01*
X164192Y263407D01*
X164140Y263456D01*
X164093Y263478D01*
X164051Y263509D01*
X163982Y263530D01*
X163917Y263560D01*
X163865Y263566D01*
X163816Y263581D01*
X163744Y263579D01*
X163673Y263587D01*
X163622Y263576D01*
X163570Y263575D01*
X163502Y263550D01*
X163432Y263535D01*
X163387Y263508D01*
X163339Y263490D01*
X163283Y263445D01*
X163221Y263409D01*
X163187Y263369D01*
X163147Y263336D01*
X163108Y263276D01*
X163061Y263222D01*
X163042Y263173D01*
X163014Y263130D01*
X162996Y263060D01*
X162969Y262993D01*
X162961Y262922D01*
X162953Y262891D01*
X162955Y262868D01*
X162951Y262827D01*
X162951Y261351D01*
X162488Y260888D01*
X162477Y260872D01*
X162461Y260860D01*
X162405Y260773D01*
X162345Y260689D01*
X162339Y260670D01*
X162328Y260653D01*
X162303Y260552D01*
X162273Y260453D01*
X162273Y260434D01*
X162268Y260414D01*
X162276Y260311D01*
X162279Y260208D01*
X162286Y260189D01*
X162287Y260169D01*
X162328Y260074D01*
X162363Y259977D01*
X162376Y259961D01*
X162384Y259943D01*
X162488Y259812D01*
X162951Y259349D01*
X162951Y248651D01*
X162488Y248188D01*
X162477Y248172D01*
X162461Y248160D01*
X162431Y248112D01*
X162418Y248099D01*
X162407Y248075D01*
X162405Y248073D01*
X162345Y247989D01*
X162339Y247970D01*
X162328Y247953D01*
X162303Y247852D01*
X162273Y247753D01*
X162273Y247734D01*
X162268Y247714D01*
X162276Y247611D01*
X162279Y247508D01*
X162286Y247489D01*
X162287Y247469D01*
X162328Y247374D01*
X162363Y247277D01*
X162376Y247261D01*
X162384Y247243D01*
X162488Y247112D01*
X162951Y246649D01*
X162951Y235951D01*
X162488Y235488D01*
X162477Y235472D01*
X162461Y235460D01*
X162405Y235373D01*
X162345Y235289D01*
X162339Y235270D01*
X162328Y235253D01*
X162303Y235152D01*
X162273Y235053D01*
X162273Y235034D01*
X162268Y235014D01*
X162276Y234911D01*
X162279Y234808D01*
X162286Y234789D01*
X162287Y234769D01*
X162328Y234674D01*
X162363Y234577D01*
X162376Y234561D01*
X162384Y234543D01*
X162488Y234412D01*
X162951Y233949D01*
X162951Y223251D01*
X162488Y222788D01*
X162477Y222772D01*
X162461Y222760D01*
X162405Y222673D01*
X162345Y222589D01*
X162339Y222570D01*
X162328Y222553D01*
X162303Y222452D01*
X162273Y222353D01*
X162273Y222334D01*
X162268Y222314D01*
X162276Y222211D01*
X162279Y222108D01*
X162286Y222089D01*
X162287Y222069D01*
X162328Y221974D01*
X162363Y221877D01*
X162376Y221861D01*
X162384Y221843D01*
X162488Y221712D01*
X162951Y221249D01*
X162951Y210551D01*
X162488Y210088D01*
X162477Y210072D01*
X162461Y210060D01*
X162405Y209973D01*
X162345Y209889D01*
X162339Y209870D01*
X162328Y209853D01*
X162303Y209752D01*
X162273Y209653D01*
X162273Y209634D01*
X162268Y209614D01*
X162276Y209511D01*
X162279Y209408D01*
X162286Y209389D01*
X162287Y209369D01*
X162328Y209274D01*
X162363Y209177D01*
X162376Y209161D01*
X162384Y209143D01*
X162488Y209012D01*
X162951Y208549D01*
X162951Y197851D01*
X162835Y197735D01*
X162823Y197719D01*
X162808Y197706D01*
X162752Y197619D01*
X162691Y197535D01*
X162686Y197516D01*
X162675Y197499D01*
X162649Y197399D01*
X162619Y197300D01*
X162620Y197280D01*
X162615Y197261D01*
X162623Y197158D01*
X162625Y197054D01*
X162632Y197035D01*
X162634Y197015D01*
X162674Y196920D01*
X162710Y196823D01*
X162722Y196807D01*
X162730Y196789D01*
X162835Y196658D01*
X162933Y196560D01*
X163268Y195981D01*
X163441Y195334D01*
X163441Y192023D01*
X153162Y192023D01*
X153142Y192020D01*
X153123Y192022D01*
X153021Y192000D01*
X152919Y191983D01*
X152902Y191974D01*
X152882Y191970D01*
X152793Y191917D01*
X152702Y191868D01*
X152688Y191854D01*
X152671Y191844D01*
X152604Y191765D01*
X152533Y191690D01*
X152524Y191672D01*
X152511Y191657D01*
X152472Y191561D01*
X152429Y191467D01*
X152427Y191447D01*
X152419Y191429D01*
X152401Y191262D01*
X152401Y189738D01*
X152404Y189718D01*
X152402Y189699D01*
X152424Y189597D01*
X152441Y189495D01*
X152450Y189478D01*
X152454Y189458D01*
X152507Y189369D01*
X152556Y189278D01*
X152570Y189264D01*
X152580Y189247D01*
X152659Y189180D01*
X152734Y189109D01*
X152752Y189100D01*
X152767Y189087D01*
X152863Y189048D01*
X152957Y189005D01*
X152977Y189003D01*
X152995Y188995D01*
X153162Y188977D01*
X163441Y188977D01*
X163441Y185665D01*
X163268Y185019D01*
X162933Y184440D01*
X162835Y184342D01*
X162823Y184326D01*
X162808Y184313D01*
X162752Y184226D01*
X162691Y184142D01*
X162686Y184123D01*
X162675Y184106D01*
X162649Y184006D01*
X162619Y183907D01*
X162620Y183887D01*
X162615Y183868D01*
X162623Y183765D01*
X162625Y183661D01*
X162632Y183642D01*
X162634Y183622D01*
X162674Y183527D01*
X162710Y183430D01*
X162722Y183415D01*
X162730Y183396D01*
X162835Y183265D01*
X162951Y183149D01*
X162951Y172451D01*
X162488Y171988D01*
X162477Y171972D01*
X162461Y171960D01*
X162405Y171873D01*
X162345Y171789D01*
X162339Y171770D01*
X162328Y171753D01*
X162303Y171652D01*
X162273Y171553D01*
X162273Y171534D01*
X162268Y171514D01*
X162276Y171411D01*
X162279Y171308D01*
X162286Y171289D01*
X162287Y171269D01*
X162328Y171174D01*
X162363Y171077D01*
X162376Y171061D01*
X162384Y171043D01*
X162488Y170912D01*
X162951Y170449D01*
X162951Y159751D01*
X162488Y159288D01*
X162477Y159272D01*
X162461Y159260D01*
X162405Y159173D01*
X162345Y159089D01*
X162339Y159070D01*
X162328Y159053D01*
X162303Y158952D01*
X162273Y158853D01*
X162273Y158834D01*
X162268Y158814D01*
X162276Y158711D01*
X162279Y158608D01*
X162286Y158589D01*
X162287Y158569D01*
X162328Y158474D01*
X162363Y158377D01*
X162376Y158361D01*
X162384Y158343D01*
X162488Y158212D01*
X162951Y157749D01*
X162951Y147051D01*
X162488Y146588D01*
X162477Y146572D01*
X162461Y146560D01*
X162405Y146473D01*
X162345Y146389D01*
X162339Y146370D01*
X162328Y146353D01*
X162303Y146252D01*
X162273Y146153D01*
X162273Y146134D01*
X162268Y146114D01*
X162276Y146011D01*
X162279Y145908D01*
X162286Y145889D01*
X162287Y145869D01*
X162328Y145774D01*
X162363Y145677D01*
X162376Y145661D01*
X162384Y145643D01*
X162488Y145512D01*
X162951Y145049D01*
X162951Y134351D01*
X162488Y133888D01*
X162477Y133872D01*
X162461Y133860D01*
X162405Y133773D01*
X162345Y133689D01*
X162339Y133670D01*
X162328Y133653D01*
X162303Y133552D01*
X162273Y133453D01*
X162273Y133434D01*
X162268Y133414D01*
X162276Y133311D01*
X162279Y133208D01*
X162286Y133189D01*
X162287Y133169D01*
X162328Y133074D01*
X162363Y132977D01*
X162376Y132961D01*
X162384Y132943D01*
X162488Y132812D01*
X162951Y132349D01*
X162951Y121522D01*
X162962Y121452D01*
X162964Y121380D01*
X162982Y121331D01*
X162990Y121280D01*
X163024Y121216D01*
X163049Y121149D01*
X163081Y121108D01*
X163106Y121062D01*
X163158Y121013D01*
X163202Y120957D01*
X163246Y120929D01*
X163284Y120893D01*
X163349Y120863D01*
X163409Y120824D01*
X163460Y120811D01*
X163507Y120789D01*
X163578Y120781D01*
X163648Y120764D01*
X163700Y120768D01*
X163751Y120762D01*
X163822Y120777D01*
X163893Y120783D01*
X163941Y120803D01*
X163992Y120814D01*
X164053Y120851D01*
X164119Y120879D01*
X164175Y120924D01*
X164203Y120941D01*
X164218Y120958D01*
X164250Y120984D01*
X319426Y276160D01*
X319479Y276234D01*
X319539Y276304D01*
X319551Y276334D01*
X319570Y276360D01*
X319597Y276447D01*
X319631Y276532D01*
X319635Y276573D01*
X319642Y276595D01*
X319641Y276627D01*
X319649Y276698D01*
X319649Y284749D01*
X320112Y285212D01*
X320123Y285228D01*
X320139Y285240D01*
X320169Y285287D01*
X320186Y285305D01*
X320199Y285334D01*
X320255Y285411D01*
X320261Y285430D01*
X320272Y285447D01*
X320297Y285548D01*
X320327Y285647D01*
X320327Y285666D01*
X320332Y285686D01*
X320324Y285789D01*
X320321Y285892D01*
X320314Y285911D01*
X320313Y285931D01*
X320272Y286026D01*
X320237Y286123D01*
X320224Y286139D01*
X320216Y286157D01*
X320112Y286288D01*
X319649Y286751D01*
X319649Y297449D01*
X320112Y297912D01*
X320123Y297928D01*
X320139Y297940D01*
X320195Y298027D01*
X320255Y298111D01*
X320261Y298130D01*
X320272Y298147D01*
X320297Y298248D01*
X320327Y298347D01*
X320327Y298366D01*
X320332Y298386D01*
X320324Y298489D01*
X320321Y298592D01*
X320314Y298611D01*
X320313Y298631D01*
X320272Y298726D01*
X320237Y298823D01*
X320224Y298839D01*
X320216Y298857D01*
X320112Y298988D01*
X319649Y299451D01*
X319649Y310149D01*
X320112Y310612D01*
X320123Y310628D01*
X320139Y310640D01*
X320195Y310727D01*
X320255Y310811D01*
X320261Y310830D01*
X320272Y310847D01*
X320297Y310948D01*
X320327Y311047D01*
X320327Y311066D01*
X320332Y311086D01*
X320324Y311189D01*
X320321Y311292D01*
X320314Y311311D01*
X320313Y311331D01*
X320272Y311426D01*
X320237Y311523D01*
X320224Y311539D01*
X320216Y311557D01*
X320112Y311688D01*
X319649Y312151D01*
X319649Y322849D01*
X320112Y323312D01*
X320123Y323328D01*
X320139Y323340D01*
X320195Y323428D01*
X320255Y323511D01*
X320261Y323530D01*
X320272Y323547D01*
X320297Y323648D01*
X320327Y323747D01*
X320327Y323766D01*
X320332Y323786D01*
X320324Y323889D01*
X320321Y323992D01*
X320314Y324011D01*
X320313Y324031D01*
X320272Y324126D01*
X320237Y324223D01*
X320224Y324239D01*
X320216Y324257D01*
X320112Y324388D01*
X319649Y324851D01*
X319649Y335549D01*
X320112Y336012D01*
X320123Y336028D01*
X320139Y336040D01*
X320195Y336127D01*
X320255Y336211D01*
X320261Y336230D01*
X320272Y336247D01*
X320297Y336348D01*
X320327Y336447D01*
X320327Y336466D01*
X320332Y336486D01*
X320324Y336589D01*
X320321Y336692D01*
X320314Y336711D01*
X320313Y336731D01*
X320272Y336826D01*
X320237Y336923D01*
X320224Y336939D01*
X320216Y336957D01*
X320112Y337088D01*
X319649Y337551D01*
X319649Y348249D01*
X319765Y348365D01*
X319777Y348381D01*
X319792Y348394D01*
X319848Y348481D01*
X319909Y348565D01*
X319914Y348584D01*
X319925Y348601D01*
X319951Y348701D01*
X319981Y348800D01*
X319980Y348820D01*
X319985Y348839D01*
X319977Y348942D01*
X319975Y349046D01*
X319968Y349065D01*
X319966Y349085D01*
X319926Y349180D01*
X319924Y349185D01*
X319921Y349197D01*
X319917Y349205D01*
X319890Y349277D01*
X319878Y349293D01*
X319870Y349311D01*
X319804Y349394D01*
X319795Y349408D01*
X319786Y349416D01*
X319765Y349442D01*
X319667Y349540D01*
X319332Y350119D01*
X319159Y350766D01*
X319159Y354077D01*
X329438Y354077D01*
X329458Y354080D01*
X329477Y354078D01*
X329579Y354100D01*
X329681Y354117D01*
X329698Y354126D01*
X329718Y354130D01*
X329807Y354183D01*
X329898Y354232D01*
X329912Y354246D01*
X329929Y354256D01*
X329996Y354335D01*
X330067Y354410D01*
X330076Y354428D01*
X330089Y354443D01*
X330128Y354539D01*
X330171Y354633D01*
X330173Y354653D01*
X330181Y354671D01*
X330199Y354838D01*
X330199Y355601D01*
X330201Y355601D01*
X330201Y354838D01*
X330204Y354818D01*
X330202Y354799D01*
X330224Y354697D01*
X330241Y354595D01*
X330250Y354578D01*
X330254Y354558D01*
X330307Y354469D01*
X330356Y354378D01*
X330370Y354364D01*
X330380Y354347D01*
X330459Y354280D01*
X330534Y354209D01*
X330552Y354200D01*
X330567Y354187D01*
X330663Y354148D01*
X330757Y354105D01*
X330777Y354103D01*
X330795Y354095D01*
X330962Y354077D01*
X341241Y354077D01*
X341241Y350765D01*
X341068Y350119D01*
X340733Y349540D01*
X340635Y349442D01*
X340623Y349426D01*
X340608Y349413D01*
X340578Y349367D01*
X340557Y349345D01*
X340542Y349313D01*
X340491Y349242D01*
X340486Y349223D01*
X340475Y349206D01*
X340449Y349106D01*
X340419Y349007D01*
X340420Y348987D01*
X340415Y348968D01*
X340423Y348865D01*
X340425Y348761D01*
X340432Y348742D01*
X340434Y348722D01*
X340474Y348627D01*
X340510Y348530D01*
X340522Y348515D01*
X340530Y348496D01*
X340635Y348365D01*
X340751Y348249D01*
X340751Y337551D01*
X340288Y337088D01*
X340277Y337072D01*
X340261Y337060D01*
X340205Y336972D01*
X340145Y336889D01*
X340139Y336870D01*
X340128Y336853D01*
X340103Y336752D01*
X340073Y336653D01*
X340073Y336634D01*
X340068Y336614D01*
X340076Y336511D01*
X340079Y336408D01*
X340086Y336389D01*
X340087Y336369D01*
X340128Y336274D01*
X340163Y336177D01*
X340176Y336161D01*
X340184Y336143D01*
X340288Y336012D01*
X340751Y335549D01*
X340751Y324851D01*
X340288Y324388D01*
X340277Y324372D01*
X340261Y324360D01*
X340205Y324273D01*
X340145Y324189D01*
X340139Y324170D01*
X340128Y324153D01*
X340103Y324052D01*
X340073Y323953D01*
X340073Y323934D01*
X340068Y323914D01*
X340076Y323811D01*
X340079Y323708D01*
X340086Y323689D01*
X340087Y323669D01*
X340128Y323574D01*
X340163Y323477D01*
X340176Y323461D01*
X340184Y323443D01*
X340288Y323312D01*
X340751Y322849D01*
X340751Y312151D01*
X340288Y311688D01*
X340277Y311672D01*
X340261Y311660D01*
X340205Y311572D01*
X340145Y311489D01*
X340139Y311470D01*
X340128Y311453D01*
X340103Y311352D01*
X340073Y311253D01*
X340073Y311234D01*
X340068Y311214D01*
X340076Y311111D01*
X340079Y311008D01*
X340086Y310989D01*
X340087Y310969D01*
X340128Y310874D01*
X340163Y310777D01*
X340176Y310761D01*
X340184Y310743D01*
X340288Y310612D01*
X340751Y310149D01*
X340751Y299451D01*
X340288Y298988D01*
X340277Y298972D01*
X340261Y298960D01*
X340205Y298872D01*
X340145Y298789D01*
X340139Y298770D01*
X340128Y298753D01*
X340103Y298652D01*
X340073Y298553D01*
X340073Y298534D01*
X340068Y298514D01*
X340076Y298411D01*
X340079Y298308D01*
X340086Y298289D01*
X340087Y298269D01*
X340128Y298174D01*
X340163Y298077D01*
X340176Y298061D01*
X340184Y298043D01*
X340288Y297912D01*
X340751Y297449D01*
X340751Y286751D01*
X340288Y286288D01*
X340277Y286272D01*
X340261Y286260D01*
X340205Y286172D01*
X340145Y286089D01*
X340139Y286070D01*
X340128Y286053D01*
X340103Y285952D01*
X340073Y285853D01*
X340073Y285834D01*
X340068Y285814D01*
X340076Y285711D01*
X340079Y285608D01*
X340086Y285589D01*
X340087Y285569D01*
X340128Y285474D01*
X340163Y285377D01*
X340176Y285361D01*
X340184Y285343D01*
X340255Y285253D01*
X340262Y285242D01*
X340269Y285236D01*
X340288Y285212D01*
X340751Y284749D01*
X340751Y274051D01*
X340288Y273588D01*
X340277Y273572D01*
X340261Y273560D01*
X340205Y273472D01*
X340145Y273389D01*
X340139Y273370D01*
X340128Y273353D01*
X340103Y273252D01*
X340073Y273153D01*
X340073Y273134D01*
X340068Y273114D01*
X340076Y273011D01*
X340079Y272908D01*
X340086Y272889D01*
X340087Y272869D01*
X340128Y272774D01*
X340163Y272677D01*
X340176Y272661D01*
X340184Y272643D01*
X340288Y272512D01*
X340751Y272049D01*
X340751Y261351D01*
X340288Y260888D01*
X340277Y260872D01*
X340261Y260860D01*
X340205Y260772D01*
X340145Y260689D01*
X340139Y260670D01*
X340128Y260653D01*
X340103Y260552D01*
X340073Y260453D01*
X340073Y260434D01*
X340068Y260414D01*
X340076Y260311D01*
X340079Y260208D01*
X340086Y260189D01*
X340087Y260169D01*
X340128Y260074D01*
X340163Y259977D01*
X340176Y259961D01*
X340184Y259943D01*
X340288Y259812D01*
X340751Y259349D01*
X340751Y248651D01*
X340635Y248535D01*
X340623Y248519D01*
X340608Y248506D01*
X340552Y248419D01*
X340491Y248335D01*
X340486Y248316D01*
X340475Y248299D01*
X340449Y248199D01*
X340419Y248100D01*
X340420Y248080D01*
X340415Y248061D01*
X340423Y247958D01*
X340425Y247854D01*
X340432Y247835D01*
X340434Y247815D01*
X340474Y247720D01*
X340510Y247623D01*
X340522Y247607D01*
X340530Y247589D01*
X340635Y247458D01*
X340733Y247360D01*
X341068Y246781D01*
X341241Y246134D01*
X341241Y242823D01*
X331723Y242823D01*
X331723Y246688D01*
X331720Y246708D01*
X331722Y246727D01*
X331700Y246829D01*
X331683Y246931D01*
X331674Y246948D01*
X331670Y246968D01*
X331617Y247057D01*
X331568Y247148D01*
X331554Y247162D01*
X331544Y247179D01*
X331465Y247246D01*
X331390Y247318D01*
X331372Y247326D01*
X331357Y247339D01*
X331261Y247378D01*
X331167Y247421D01*
X331147Y247423D01*
X331129Y247431D01*
X330962Y247449D01*
X329438Y247449D01*
X329418Y247446D01*
X329399Y247448D01*
X329297Y247426D01*
X329195Y247410D01*
X329178Y247400D01*
X329158Y247396D01*
X329069Y247343D01*
X328978Y247294D01*
X328964Y247280D01*
X328947Y247270D01*
X328880Y247191D01*
X328809Y247116D01*
X328800Y247098D01*
X328787Y247083D01*
X328748Y246987D01*
X328705Y246893D01*
X328703Y246873D01*
X328695Y246855D01*
X328677Y246688D01*
X328677Y242823D01*
X321869Y242823D01*
X321754Y242804D01*
X321638Y242787D01*
X321632Y242784D01*
X321626Y242783D01*
X321523Y242729D01*
X321419Y242676D01*
X321414Y242671D01*
X321409Y242668D01*
X321329Y242584D01*
X321246Y242500D01*
X321243Y242494D01*
X321239Y242490D01*
X321231Y242473D01*
X321165Y242353D01*
X320534Y240829D01*
X320524Y240785D01*
X320504Y240743D01*
X320496Y240666D01*
X320478Y240590D01*
X320482Y240544D01*
X320477Y240499D01*
X320494Y240423D01*
X320501Y240345D01*
X320520Y240303D01*
X320530Y240258D01*
X320570Y240191D01*
X320601Y240120D01*
X320632Y240087D01*
X320656Y240047D01*
X320715Y239997D01*
X320768Y239939D01*
X320808Y239917D01*
X320843Y239887D01*
X320915Y239858D01*
X320983Y239821D01*
X321028Y239812D01*
X321071Y239795D01*
X321207Y239780D01*
X321225Y239777D01*
X321230Y239778D01*
X321238Y239777D01*
X329438Y239777D01*
X329458Y239780D01*
X329477Y239778D01*
X329579Y239800D01*
X329681Y239817D01*
X329698Y239826D01*
X329718Y239830D01*
X329807Y239883D01*
X329898Y239932D01*
X329912Y239946D01*
X329929Y239956D01*
X329996Y240035D01*
X330067Y240110D01*
X330076Y240128D01*
X330089Y240143D01*
X330128Y240239D01*
X330171Y240333D01*
X330173Y240353D01*
X330181Y240371D01*
X330199Y240538D01*
X330199Y241301D01*
X330201Y241301D01*
X330201Y240538D01*
X330204Y240518D01*
X330202Y240499D01*
X330224Y240397D01*
X330241Y240295D01*
X330250Y240278D01*
X330254Y240258D01*
X330307Y240169D01*
X330356Y240078D01*
X330370Y240064D01*
X330380Y240047D01*
X330459Y239980D01*
X330534Y239909D01*
X330552Y239900D01*
X330567Y239887D01*
X330663Y239848D01*
X330757Y239805D01*
X330777Y239803D01*
X330795Y239795D01*
X330962Y239777D01*
X341241Y239777D01*
X341241Y236465D01*
X341068Y235819D01*
X340733Y235240D01*
X340635Y235142D01*
X340623Y235126D01*
X340608Y235113D01*
X340552Y235026D01*
X340491Y234942D01*
X340486Y234923D01*
X340475Y234906D01*
X340449Y234806D01*
X340419Y234707D01*
X340420Y234687D01*
X340415Y234668D01*
X340423Y234565D01*
X340425Y234461D01*
X340432Y234442D01*
X340434Y234422D01*
X340474Y234327D01*
X340510Y234230D01*
X340522Y234215D01*
X340530Y234196D01*
X340635Y234065D01*
X340751Y233949D01*
X340751Y225898D01*
X340765Y225808D01*
X340773Y225717D01*
X340785Y225688D01*
X340790Y225656D01*
X340833Y225575D01*
X340869Y225491D01*
X340895Y225459D01*
X340906Y225438D01*
X340929Y225416D01*
X340974Y225360D01*
X348414Y217920D01*
X350285Y216049D01*
X350285Y97895D01*
X283105Y30715D01*
X93323Y30715D01*
G37*
%LPD*%
G36*
X200101Y39404D02*
X200101Y39404D01*
X200198Y39414D01*
X200222Y39424D01*
X200248Y39428D01*
X200334Y39474D01*
X200423Y39514D01*
X200442Y39531D01*
X200465Y39544D01*
X200532Y39614D01*
X200604Y39680D01*
X200617Y39703D01*
X200635Y39722D01*
X200676Y39810D01*
X200723Y39896D01*
X200727Y39921D01*
X200738Y39945D01*
X200749Y40042D01*
X200766Y40138D01*
X200762Y40164D01*
X200765Y40189D01*
X200745Y40285D01*
X200730Y40381D01*
X200719Y40404D01*
X200713Y40430D01*
X200663Y40513D01*
X200619Y40600D01*
X200600Y40619D01*
X200587Y40641D01*
X200513Y40704D01*
X200443Y40772D01*
X200415Y40788D01*
X200400Y40801D01*
X200369Y40813D01*
X200296Y40853D01*
X197365Y42067D01*
X194467Y44965D01*
X192899Y48751D01*
X192899Y52849D01*
X194467Y56635D01*
X197365Y59533D01*
X201151Y61101D01*
X205249Y61101D01*
X209035Y59533D01*
X211933Y56635D01*
X213501Y52849D01*
X213501Y48751D01*
X211933Y44965D01*
X209035Y42067D01*
X206104Y40853D01*
X206021Y40802D01*
X205935Y40756D01*
X205917Y40737D01*
X205895Y40724D01*
X205832Y40649D01*
X205765Y40578D01*
X205754Y40554D01*
X205738Y40534D01*
X205703Y40443D01*
X205662Y40355D01*
X205659Y40329D01*
X205650Y40305D01*
X205645Y40207D01*
X205635Y40111D01*
X205640Y40085D01*
X205639Y40059D01*
X205666Y39965D01*
X205687Y39870D01*
X205700Y39848D01*
X205708Y39823D01*
X205763Y39743D01*
X205813Y39659D01*
X205833Y39642D01*
X205848Y39621D01*
X205926Y39562D01*
X206000Y39499D01*
X206024Y39489D01*
X206045Y39474D01*
X206138Y39444D01*
X206228Y39407D01*
X206261Y39404D01*
X206279Y39398D01*
X206312Y39398D01*
X206395Y39389D01*
X225405Y39389D01*
X225501Y39404D01*
X225598Y39414D01*
X225622Y39424D01*
X225648Y39428D01*
X225734Y39474D01*
X225823Y39514D01*
X225842Y39531D01*
X225865Y39544D01*
X225932Y39614D01*
X226004Y39680D01*
X226017Y39703D01*
X226035Y39722D01*
X226076Y39810D01*
X226123Y39896D01*
X226127Y39921D01*
X226138Y39945D01*
X226149Y40042D01*
X226166Y40138D01*
X226162Y40164D01*
X226165Y40189D01*
X226145Y40285D01*
X226130Y40381D01*
X226119Y40404D01*
X226113Y40430D01*
X226063Y40513D01*
X226019Y40600D01*
X226000Y40619D01*
X225987Y40641D01*
X225913Y40704D01*
X225843Y40772D01*
X225815Y40788D01*
X225800Y40801D01*
X225769Y40813D01*
X225696Y40853D01*
X222765Y42067D01*
X219867Y44965D01*
X218299Y48751D01*
X218299Y52849D01*
X219867Y56635D01*
X222765Y59533D01*
X226551Y61101D01*
X230649Y61101D01*
X234435Y59533D01*
X237333Y56635D01*
X238901Y52849D01*
X238901Y48751D01*
X237333Y44965D01*
X234435Y42067D01*
X231504Y40853D01*
X231421Y40802D01*
X231335Y40756D01*
X231317Y40737D01*
X231295Y40724D01*
X231232Y40649D01*
X231165Y40578D01*
X231154Y40554D01*
X231138Y40534D01*
X231103Y40443D01*
X231062Y40355D01*
X231059Y40329D01*
X231050Y40305D01*
X231045Y40207D01*
X231035Y40111D01*
X231040Y40085D01*
X231039Y40059D01*
X231066Y39965D01*
X231087Y39870D01*
X231100Y39848D01*
X231108Y39823D01*
X231163Y39743D01*
X231213Y39659D01*
X231233Y39642D01*
X231248Y39621D01*
X231326Y39562D01*
X231400Y39499D01*
X231424Y39489D01*
X231445Y39474D01*
X231538Y39444D01*
X231628Y39407D01*
X231661Y39404D01*
X231679Y39398D01*
X231712Y39398D01*
X231795Y39389D01*
X250805Y39389D01*
X250901Y39404D01*
X250998Y39414D01*
X251022Y39424D01*
X251048Y39428D01*
X251134Y39474D01*
X251223Y39514D01*
X251242Y39531D01*
X251265Y39544D01*
X251332Y39614D01*
X251404Y39680D01*
X251417Y39703D01*
X251435Y39722D01*
X251476Y39810D01*
X251523Y39896D01*
X251527Y39921D01*
X251538Y39945D01*
X251549Y40042D01*
X251566Y40138D01*
X251562Y40164D01*
X251565Y40189D01*
X251545Y40285D01*
X251530Y40381D01*
X251519Y40404D01*
X251513Y40430D01*
X251463Y40513D01*
X251419Y40600D01*
X251400Y40619D01*
X251387Y40641D01*
X251313Y40704D01*
X251243Y40772D01*
X251215Y40788D01*
X251200Y40801D01*
X251169Y40813D01*
X251096Y40853D01*
X248165Y42067D01*
X245267Y44965D01*
X243699Y48751D01*
X243699Y52849D01*
X245267Y56635D01*
X248165Y59533D01*
X251951Y61101D01*
X256049Y61101D01*
X259835Y59533D01*
X262733Y56635D01*
X264301Y52849D01*
X264301Y48751D01*
X262733Y44965D01*
X259835Y42067D01*
X256904Y40853D01*
X256821Y40802D01*
X256735Y40756D01*
X256717Y40737D01*
X256695Y40724D01*
X256632Y40649D01*
X256565Y40578D01*
X256554Y40554D01*
X256538Y40534D01*
X256503Y40443D01*
X256462Y40355D01*
X256459Y40329D01*
X256450Y40305D01*
X256445Y40207D01*
X256435Y40111D01*
X256440Y40085D01*
X256439Y40059D01*
X256466Y39965D01*
X256487Y39870D01*
X256500Y39848D01*
X256508Y39823D01*
X256563Y39743D01*
X256613Y39659D01*
X256633Y39642D01*
X256648Y39621D01*
X256726Y39562D01*
X256800Y39499D01*
X256824Y39489D01*
X256845Y39474D01*
X256938Y39444D01*
X257028Y39407D01*
X257061Y39404D01*
X257079Y39398D01*
X257112Y39398D01*
X257195Y39389D01*
X274856Y39389D01*
X274923Y39400D01*
X274991Y39401D01*
X275044Y39419D01*
X275099Y39428D01*
X275159Y39460D01*
X275223Y39483D01*
X275267Y39517D01*
X275317Y39544D01*
X275363Y39593D01*
X275417Y39635D01*
X275447Y39681D01*
X275486Y39722D01*
X275515Y39783D01*
X275552Y39840D01*
X275566Y39894D01*
X275590Y39945D01*
X275597Y40012D01*
X275614Y40078D01*
X275611Y40134D01*
X275617Y40189D01*
X275602Y40256D01*
X275598Y40323D01*
X275576Y40375D01*
X275564Y40430D01*
X275530Y40488D01*
X275504Y40551D01*
X275467Y40593D01*
X275438Y40641D01*
X275387Y40685D01*
X275342Y40736D01*
X275276Y40779D01*
X275251Y40801D01*
X275232Y40809D01*
X275202Y40828D01*
X273745Y41571D01*
X272370Y42569D01*
X271169Y43770D01*
X270171Y45145D01*
X269400Y46658D01*
X268875Y48273D01*
X268716Y49277D01*
X278638Y49277D01*
X278658Y49280D01*
X278677Y49278D01*
X278779Y49300D01*
X278881Y49317D01*
X278898Y49326D01*
X278918Y49330D01*
X279007Y49383D01*
X279098Y49432D01*
X279112Y49446D01*
X279129Y49456D01*
X279196Y49535D01*
X279267Y49610D01*
X279276Y49628D01*
X279289Y49643D01*
X279327Y49739D01*
X279371Y49833D01*
X279373Y49853D01*
X279381Y49871D01*
X279399Y50038D01*
X279399Y50801D01*
X280162Y50801D01*
X280182Y50804D01*
X280201Y50802D01*
X280303Y50824D01*
X280405Y50841D01*
X280422Y50850D01*
X280442Y50854D01*
X280531Y50907D01*
X280622Y50956D01*
X280636Y50970D01*
X280653Y50980D01*
X280720Y51059D01*
X280791Y51134D01*
X280800Y51152D01*
X280813Y51167D01*
X280852Y51263D01*
X280895Y51357D01*
X280897Y51377D01*
X280905Y51395D01*
X280923Y51562D01*
X280923Y61484D01*
X281927Y61325D01*
X283542Y60800D01*
X285055Y60029D01*
X286430Y59031D01*
X287631Y57830D01*
X288629Y56455D01*
X289400Y54942D01*
X289925Y53327D01*
X290138Y51985D01*
X290141Y51973D01*
X290142Y51961D01*
X290180Y51856D01*
X290215Y51751D01*
X290222Y51742D01*
X290226Y51730D01*
X290296Y51643D01*
X290362Y51555D01*
X290372Y51548D01*
X290380Y51538D01*
X290474Y51478D01*
X290565Y51415D01*
X290577Y51412D01*
X290587Y51405D01*
X290695Y51378D01*
X290802Y51348D01*
X290814Y51348D01*
X290825Y51345D01*
X290936Y51354D01*
X291047Y51359D01*
X291059Y51363D01*
X291070Y51364D01*
X291173Y51408D01*
X291277Y51448D01*
X291286Y51456D01*
X291297Y51461D01*
X291428Y51566D01*
X341388Y101526D01*
X341441Y101600D01*
X341501Y101670D01*
X341513Y101700D01*
X341532Y101726D01*
X341559Y101813D01*
X341593Y101898D01*
X341597Y101939D01*
X341604Y101961D01*
X341603Y101993D01*
X341611Y102064D01*
X341611Y107280D01*
X341600Y107351D01*
X341598Y107423D01*
X341580Y107472D01*
X341572Y107523D01*
X341538Y107586D01*
X341513Y107654D01*
X341481Y107695D01*
X341456Y107740D01*
X341405Y107790D01*
X341360Y107846D01*
X341316Y107874D01*
X341278Y107910D01*
X341213Y107940D01*
X341153Y107979D01*
X341102Y107992D01*
X341055Y108013D01*
X340984Y108021D01*
X340914Y108039D01*
X340862Y108035D01*
X340811Y108041D01*
X340740Y108025D01*
X340669Y108020D01*
X340621Y107999D01*
X340570Y107988D01*
X340509Y107951D01*
X340443Y107923D01*
X340387Y107879D01*
X340359Y107862D01*
X340344Y107844D01*
X340312Y107819D01*
X340260Y107767D01*
X339681Y107432D01*
X339034Y107259D01*
X331723Y107259D01*
X331723Y112777D01*
X340850Y112777D01*
X340870Y112780D01*
X340889Y112778D01*
X340991Y112800D01*
X341093Y112817D01*
X341110Y112826D01*
X341130Y112830D01*
X341219Y112883D01*
X341310Y112932D01*
X341324Y112946D01*
X341341Y112956D01*
X341408Y113035D01*
X341480Y113110D01*
X341488Y113128D01*
X341501Y113143D01*
X341540Y113239D01*
X341583Y113333D01*
X341585Y113353D01*
X341593Y113371D01*
X341611Y113538D01*
X341611Y115062D01*
X341608Y115082D01*
X341610Y115101D01*
X341588Y115203D01*
X341572Y115305D01*
X341562Y115322D01*
X341558Y115342D01*
X341505Y115431D01*
X341456Y115522D01*
X341442Y115536D01*
X341432Y115553D01*
X341353Y115620D01*
X341278Y115691D01*
X341260Y115700D01*
X341245Y115713D01*
X341149Y115752D01*
X341055Y115795D01*
X341035Y115797D01*
X341017Y115805D01*
X340850Y115823D01*
X330962Y115823D01*
X330942Y115820D01*
X330923Y115822D01*
X330821Y115800D01*
X330719Y115783D01*
X330702Y115774D01*
X330682Y115770D01*
X330593Y115717D01*
X330502Y115668D01*
X330488Y115654D01*
X330471Y115644D01*
X330404Y115565D01*
X330333Y115490D01*
X330324Y115472D01*
X330311Y115457D01*
X330272Y115361D01*
X330229Y115267D01*
X330227Y115247D01*
X330219Y115229D01*
X330201Y115062D01*
X330201Y114299D01*
X330199Y114299D01*
X330199Y115062D01*
X330196Y115082D01*
X330198Y115101D01*
X330176Y115203D01*
X330159Y115305D01*
X330150Y115322D01*
X330146Y115342D01*
X330093Y115431D01*
X330044Y115522D01*
X330030Y115536D01*
X330020Y115553D01*
X329941Y115620D01*
X329866Y115691D01*
X329848Y115700D01*
X329833Y115713D01*
X329737Y115752D01*
X329643Y115795D01*
X329623Y115797D01*
X329605Y115805D01*
X329438Y115823D01*
X319159Y115823D01*
X319159Y119134D01*
X319332Y119781D01*
X319667Y120360D01*
X319765Y120458D01*
X319777Y120474D01*
X319792Y120487D01*
X319848Y120574D01*
X319909Y120658D01*
X319914Y120677D01*
X319925Y120694D01*
X319951Y120794D01*
X319981Y120893D01*
X319980Y120913D01*
X319985Y120932D01*
X319977Y121035D01*
X319975Y121139D01*
X319968Y121158D01*
X319966Y121178D01*
X319926Y121273D01*
X319890Y121370D01*
X319878Y121385D01*
X319870Y121404D01*
X319765Y121535D01*
X319649Y121651D01*
X319649Y122918D01*
X319646Y122938D01*
X319648Y122957D01*
X319626Y123059D01*
X319610Y123161D01*
X319600Y123178D01*
X319596Y123198D01*
X319543Y123287D01*
X319494Y123378D01*
X319480Y123392D01*
X319470Y123409D01*
X319391Y123476D01*
X319316Y123548D01*
X319298Y123556D01*
X319283Y123569D01*
X319187Y123608D01*
X319093Y123651D01*
X319073Y123653D01*
X319055Y123661D01*
X318888Y123679D01*
X254464Y123679D01*
X254374Y123665D01*
X254283Y123657D01*
X254254Y123645D01*
X254222Y123640D01*
X254141Y123597D01*
X254057Y123561D01*
X254025Y123535D01*
X254004Y123524D01*
X253982Y123501D01*
X253926Y123456D01*
X187060Y56590D01*
X186992Y56496D01*
X186922Y56401D01*
X186920Y56395D01*
X186916Y56390D01*
X186882Y56279D01*
X186846Y56167D01*
X186846Y56161D01*
X186844Y56155D01*
X186847Y56038D01*
X186848Y55921D01*
X186850Y55914D01*
X186850Y55909D01*
X186857Y55892D01*
X186895Y55760D01*
X188101Y52849D01*
X188101Y48751D01*
X186533Y44965D01*
X183635Y42067D01*
X180704Y40853D01*
X180621Y40802D01*
X180535Y40756D01*
X180517Y40737D01*
X180495Y40724D01*
X180432Y40649D01*
X180365Y40578D01*
X180354Y40554D01*
X180338Y40534D01*
X180303Y40443D01*
X180262Y40355D01*
X180259Y40329D01*
X180250Y40305D01*
X180245Y40207D01*
X180235Y40111D01*
X180240Y40085D01*
X180239Y40059D01*
X180266Y39965D01*
X180287Y39870D01*
X180300Y39848D01*
X180308Y39823D01*
X180363Y39743D01*
X180413Y39659D01*
X180433Y39642D01*
X180448Y39621D01*
X180526Y39562D01*
X180600Y39499D01*
X180624Y39489D01*
X180645Y39474D01*
X180738Y39444D01*
X180828Y39407D01*
X180861Y39404D01*
X180879Y39398D01*
X180912Y39398D01*
X180995Y39389D01*
X200005Y39389D01*
X200101Y39404D01*
G37*
G36*
X141178Y177161D02*
X141178Y177161D01*
X141230Y177163D01*
X141298Y177187D01*
X141368Y177202D01*
X141413Y177229D01*
X141461Y177247D01*
X141517Y177292D01*
X141579Y177329D01*
X141613Y177368D01*
X141653Y177401D01*
X141692Y177461D01*
X141739Y177515D01*
X141758Y177564D01*
X141786Y177608D01*
X141804Y177677D01*
X141831Y177744D01*
X141839Y177815D01*
X141847Y177846D01*
X141845Y177869D01*
X141849Y177910D01*
X141849Y183149D01*
X141965Y183265D01*
X141977Y183281D01*
X141992Y183294D01*
X142048Y183381D01*
X142109Y183465D01*
X142114Y183484D01*
X142125Y183501D01*
X142151Y183601D01*
X142181Y183700D01*
X142180Y183720D01*
X142185Y183739D01*
X142177Y183842D01*
X142175Y183946D01*
X142168Y183965D01*
X142166Y183985D01*
X142126Y184080D01*
X142090Y184177D01*
X142078Y184193D01*
X142070Y184211D01*
X141965Y184342D01*
X141867Y184440D01*
X141532Y185019D01*
X141359Y185666D01*
X141359Y188977D01*
X151638Y188977D01*
X151658Y188980D01*
X151677Y188978D01*
X151779Y189000D01*
X151881Y189017D01*
X151898Y189026D01*
X151918Y189030D01*
X152007Y189083D01*
X152098Y189132D01*
X152112Y189146D01*
X152129Y189156D01*
X152196Y189235D01*
X152267Y189310D01*
X152276Y189328D01*
X152289Y189343D01*
X152328Y189439D01*
X152371Y189533D01*
X152373Y189553D01*
X152381Y189571D01*
X152399Y189738D01*
X152399Y191262D01*
X152396Y191282D01*
X152398Y191301D01*
X152376Y191403D01*
X152359Y191505D01*
X152350Y191522D01*
X152346Y191542D01*
X152293Y191631D01*
X152244Y191722D01*
X152230Y191736D01*
X152220Y191753D01*
X152141Y191820D01*
X152066Y191891D01*
X152048Y191900D01*
X152033Y191913D01*
X151937Y191952D01*
X151843Y191995D01*
X151823Y191997D01*
X151805Y192005D01*
X151638Y192023D01*
X141359Y192023D01*
X141359Y195334D01*
X141532Y195981D01*
X141867Y196560D01*
X141965Y196658D01*
X141977Y196674D01*
X141992Y196687D01*
X142048Y196774D01*
X142109Y196858D01*
X142114Y196877D01*
X142125Y196894D01*
X142151Y196994D01*
X142181Y197093D01*
X142180Y197113D01*
X142185Y197132D01*
X142177Y197235D01*
X142175Y197339D01*
X142168Y197358D01*
X142166Y197378D01*
X142126Y197473D01*
X142090Y197570D01*
X142078Y197585D01*
X142070Y197604D01*
X141965Y197735D01*
X141849Y197851D01*
X141849Y200642D01*
X141846Y200662D01*
X141848Y200681D01*
X141826Y200783D01*
X141810Y200885D01*
X141800Y200902D01*
X141796Y200922D01*
X141743Y201011D01*
X141694Y201102D01*
X141680Y201116D01*
X141670Y201133D01*
X141591Y201200D01*
X141516Y201272D01*
X141498Y201280D01*
X141483Y201293D01*
X141387Y201332D01*
X141293Y201375D01*
X141273Y201377D01*
X141255Y201385D01*
X141088Y201403D01*
X134471Y201403D01*
X94028Y241846D01*
X93970Y241888D01*
X93918Y241937D01*
X93871Y241959D01*
X93829Y241989D01*
X93760Y242011D01*
X93695Y242041D01*
X93643Y242047D01*
X93593Y242062D01*
X93522Y242060D01*
X93451Y242068D01*
X93400Y242057D01*
X93348Y242055D01*
X93280Y242031D01*
X93210Y242016D01*
X93165Y241989D01*
X93117Y241971D01*
X93061Y241926D01*
X92999Y241889D01*
X92965Y241850D01*
X92925Y241817D01*
X92886Y241757D01*
X92839Y241703D01*
X92820Y241654D01*
X92792Y241610D01*
X92774Y241541D01*
X92747Y241474D01*
X92739Y241403D01*
X92731Y241372D01*
X92733Y241349D01*
X92729Y241308D01*
X92729Y225508D01*
X92743Y225418D01*
X92751Y225327D01*
X92763Y225298D01*
X92768Y225266D01*
X92811Y225185D01*
X92847Y225101D01*
X92873Y225069D01*
X92884Y225048D01*
X92907Y225026D01*
X92952Y224970D01*
X140550Y177372D01*
X140608Y177330D01*
X140660Y177281D01*
X140707Y177259D01*
X140749Y177229D01*
X140818Y177207D01*
X140883Y177177D01*
X140935Y177171D01*
X140985Y177156D01*
X141056Y177158D01*
X141127Y177150D01*
X141178Y177161D01*
G37*
%LPC*%
G36*
X39623Y39623D02*
X39623Y39623D01*
X39623Y67311D01*
X39740Y67311D01*
X43001Y66943D01*
X44892Y66512D01*
X46199Y66213D01*
X49296Y65130D01*
X52252Y63706D01*
X55030Y61961D01*
X57595Y59915D01*
X59915Y57595D01*
X61961Y55030D01*
X63706Y52252D01*
X65130Y49296D01*
X66213Y46199D01*
X66943Y43001D01*
X67311Y39740D01*
X67311Y39623D01*
X39623Y39623D01*
G37*
%LPD*%
%LPC*%
G36*
X39623Y440689D02*
X39623Y440689D01*
X39623Y468377D01*
X67311Y468377D01*
X67311Y468260D01*
X66943Y464999D01*
X66213Y461801D01*
X65130Y458704D01*
X63706Y455748D01*
X61961Y452970D01*
X59915Y450405D01*
X57595Y448085D01*
X55030Y446039D01*
X52252Y444294D01*
X49296Y442870D01*
X46199Y441787D01*
X43001Y441057D01*
X39740Y440689D01*
X39623Y440689D01*
G37*
%LPD*%
%LPC*%
G36*
X313689Y420623D02*
X313689Y420623D01*
X313689Y420740D01*
X314057Y424001D01*
X314787Y427199D01*
X315870Y430296D01*
X317294Y433252D01*
X319039Y436030D01*
X321085Y438595D01*
X323405Y440915D01*
X325970Y442961D01*
X328748Y444706D01*
X331704Y446130D01*
X334801Y447213D01*
X337999Y447943D01*
X341260Y448311D01*
X341377Y448311D01*
X341377Y420623D01*
X313689Y420623D01*
G37*
%LPD*%
%LPC*%
G36*
X313689Y39623D02*
X313689Y39623D01*
X313689Y39740D01*
X314057Y43001D01*
X314787Y46199D01*
X315870Y49296D01*
X317294Y52252D01*
X319039Y55030D01*
X321085Y57595D01*
X323405Y59915D01*
X325970Y61961D01*
X328748Y63706D01*
X331704Y65130D01*
X334801Y66213D01*
X337999Y66943D01*
X341260Y67311D01*
X341377Y67311D01*
X341377Y39623D01*
X313689Y39623D01*
G37*
%LPD*%
%LPC*%
G36*
X341260Y389889D02*
X341260Y389889D01*
X337999Y390257D01*
X335762Y390767D01*
X334801Y390987D01*
X331704Y392070D01*
X328748Y393494D01*
X325970Y395239D01*
X323405Y397285D01*
X321085Y399605D01*
X319039Y402170D01*
X317294Y404948D01*
X315870Y407904D01*
X314787Y411001D01*
X314057Y414199D01*
X313689Y417460D01*
X313689Y417577D01*
X341377Y417577D01*
X341377Y389889D01*
X341260Y389889D01*
G37*
%LPD*%
G36*
X140618Y109496D02*
X140618Y109496D01*
X140637Y109494D01*
X140739Y109516D01*
X140841Y109532D01*
X140858Y109542D01*
X140878Y109546D01*
X140967Y109599D01*
X141058Y109648D01*
X141072Y109662D01*
X141089Y109672D01*
X141156Y109751D01*
X141228Y109826D01*
X141236Y109844D01*
X141249Y109859D01*
X141288Y109955D01*
X141331Y110049D01*
X141333Y110069D01*
X141341Y110087D01*
X141359Y110254D01*
X141359Y112777D01*
X151638Y112777D01*
X151658Y112780D01*
X151677Y112778D01*
X151779Y112800D01*
X151881Y112817D01*
X151898Y112826D01*
X151918Y112830D01*
X152007Y112883D01*
X152098Y112932D01*
X152112Y112946D01*
X152129Y112956D01*
X152196Y113035D01*
X152267Y113110D01*
X152276Y113128D01*
X152289Y113143D01*
X152328Y113239D01*
X152371Y113333D01*
X152373Y113353D01*
X152381Y113371D01*
X152399Y113538D01*
X152399Y115062D01*
X152396Y115082D01*
X152398Y115101D01*
X152376Y115203D01*
X152359Y115305D01*
X152350Y115322D01*
X152346Y115342D01*
X152293Y115431D01*
X152244Y115522D01*
X152230Y115536D01*
X152220Y115553D01*
X152141Y115620D01*
X152066Y115691D01*
X152048Y115700D01*
X152033Y115713D01*
X151937Y115752D01*
X151843Y115795D01*
X151823Y115797D01*
X151805Y115805D01*
X151638Y115823D01*
X141359Y115823D01*
X141359Y119134D01*
X141532Y119781D01*
X141867Y120360D01*
X141965Y120458D01*
X141977Y120474D01*
X141992Y120487D01*
X142048Y120574D01*
X142109Y120658D01*
X142114Y120677D01*
X142125Y120694D01*
X142151Y120794D01*
X142181Y120893D01*
X142180Y120913D01*
X142185Y120932D01*
X142177Y121035D01*
X142175Y121139D01*
X142168Y121158D01*
X142166Y121178D01*
X142126Y121273D01*
X142090Y121370D01*
X142078Y121385D01*
X142070Y121404D01*
X141965Y121535D01*
X141849Y121651D01*
X141849Y124442D01*
X141846Y124462D01*
X141848Y124481D01*
X141826Y124583D01*
X141810Y124685D01*
X141800Y124702D01*
X141796Y124722D01*
X141743Y124811D01*
X141694Y124902D01*
X141680Y124916D01*
X141670Y124933D01*
X141591Y125000D01*
X141516Y125072D01*
X141498Y125080D01*
X141483Y125093D01*
X141387Y125132D01*
X141293Y125175D01*
X141273Y125177D01*
X141255Y125185D01*
X141088Y125203D01*
X123803Y125203D01*
X87147Y161860D01*
X87109Y161886D01*
X87078Y161920D01*
X87010Y161958D01*
X86947Y162003D01*
X86903Y162017D01*
X86863Y162039D01*
X86786Y162053D01*
X86712Y162076D01*
X86666Y162074D01*
X86621Y162083D01*
X86544Y162071D01*
X86466Y162069D01*
X86423Y162053D01*
X86377Y162047D01*
X86308Y162012D01*
X86235Y161985D01*
X86199Y161956D01*
X86158Y161935D01*
X86104Y161880D01*
X86043Y161831D01*
X86018Y161792D01*
X85986Y161760D01*
X85920Y161640D01*
X85910Y161624D01*
X85909Y161619D01*
X85905Y161613D01*
X85295Y160140D01*
X85268Y160026D01*
X85240Y159913D01*
X85240Y159906D01*
X85239Y159900D01*
X85250Y159784D01*
X85259Y159667D01*
X85261Y159662D01*
X85262Y159655D01*
X85310Y159548D01*
X85355Y159441D01*
X85360Y159435D01*
X85362Y159431D01*
X85374Y159417D01*
X85460Y159310D01*
X135054Y109716D01*
X135128Y109663D01*
X135198Y109603D01*
X135228Y109591D01*
X135254Y109572D01*
X135341Y109545D01*
X135426Y109511D01*
X135467Y109507D01*
X135489Y109500D01*
X135521Y109501D01*
X135592Y109493D01*
X140598Y109493D01*
X140618Y109496D01*
G37*
%LPC*%
G36*
X220645Y466089D02*
X220645Y466089D01*
X219999Y466262D01*
X219420Y466597D01*
X218947Y467070D01*
X218612Y467649D01*
X218439Y468295D01*
X218439Y487427D01*
X221235Y487427D01*
X221235Y478282D01*
X221243Y478224D01*
X221241Y478166D01*
X221263Y478084D01*
X221275Y478001D01*
X221299Y477947D01*
X221313Y477891D01*
X221356Y477818D01*
X221391Y477741D01*
X221429Y477696D01*
X221459Y477646D01*
X221520Y477588D01*
X221575Y477524D01*
X221623Y477492D01*
X221666Y477452D01*
X221741Y477413D01*
X221811Y477367D01*
X221867Y477349D01*
X221919Y477322D01*
X221987Y477311D01*
X222082Y477281D01*
X222182Y477278D01*
X222250Y477267D01*
X227077Y477267D01*
X227077Y466089D01*
X220645Y466089D01*
G37*
%LPD*%
%LPC*%
G36*
X280923Y466089D02*
X280923Y466089D01*
X280923Y477267D01*
X285750Y477267D01*
X285808Y477275D01*
X285866Y477273D01*
X285948Y477295D01*
X286032Y477307D01*
X286085Y477331D01*
X286141Y477345D01*
X286214Y477388D01*
X286291Y477423D01*
X286336Y477461D01*
X286386Y477491D01*
X286444Y477552D01*
X286508Y477607D01*
X286540Y477655D01*
X286580Y477698D01*
X286619Y477773D01*
X286666Y477843D01*
X286683Y477899D01*
X286710Y477951D01*
X286721Y478019D01*
X286751Y478114D01*
X286754Y478214D01*
X286765Y478282D01*
X286765Y487427D01*
X289561Y487427D01*
X289561Y468295D01*
X289388Y467649D01*
X289053Y467070D01*
X288580Y466597D01*
X288001Y466262D01*
X287354Y466089D01*
X280923Y466089D01*
G37*
%LPD*%
%LPC*%
G36*
X204723Y369823D02*
X204723Y369823D01*
X204723Y379341D01*
X208035Y379341D01*
X208681Y379168D01*
X209169Y378885D01*
X209233Y378861D01*
X209292Y378829D01*
X209347Y378818D01*
X209399Y378798D01*
X209467Y378796D01*
X209533Y378784D01*
X209589Y378792D01*
X209645Y378789D01*
X209710Y378809D01*
X209777Y378818D01*
X209850Y378850D01*
X209881Y378859D01*
X209898Y378871D01*
X209931Y378885D01*
X210419Y379168D01*
X211066Y379341D01*
X214377Y379341D01*
X214377Y369823D01*
X204723Y369823D01*
G37*
%LPD*%
%LPC*%
G36*
X268223Y369823D02*
X268223Y369823D01*
X268223Y379341D01*
X271535Y379341D01*
X272181Y379168D01*
X272669Y378885D01*
X272733Y378862D01*
X272792Y378829D01*
X272847Y378818D01*
X272899Y378798D01*
X272967Y378796D01*
X273034Y378784D01*
X273089Y378791D01*
X273145Y378789D01*
X273210Y378809D01*
X273277Y378818D01*
X273350Y378850D01*
X273381Y378859D01*
X273398Y378871D01*
X273431Y378885D01*
X273919Y379168D01*
X274566Y379341D01*
X277877Y379341D01*
X277877Y369823D01*
X268223Y369823D01*
G37*
%LPD*%
%LPC*%
G36*
X204723Y366777D02*
X204723Y366777D01*
X214377Y366777D01*
X214377Y357259D01*
X211066Y357259D01*
X210419Y357432D01*
X209931Y357715D01*
X209867Y357738D01*
X209808Y357771D01*
X209753Y357782D01*
X209701Y357802D01*
X209633Y357804D01*
X209567Y357816D01*
X209511Y357809D01*
X209455Y357811D01*
X209390Y357791D01*
X209323Y357782D01*
X209250Y357750D01*
X209219Y357741D01*
X209202Y357729D01*
X209169Y357715D01*
X208681Y357432D01*
X208034Y357259D01*
X204723Y357259D01*
X204723Y366777D01*
G37*
%LPD*%
%LPC*%
G36*
X268223Y366777D02*
X268223Y366777D01*
X277877Y366777D01*
X277877Y357259D01*
X274566Y357259D01*
X273919Y357432D01*
X273431Y357715D01*
X273367Y357739D01*
X273308Y357771D01*
X273253Y357782D01*
X273201Y357802D01*
X273133Y357804D01*
X273067Y357816D01*
X273011Y357809D01*
X272955Y357811D01*
X272890Y357791D01*
X272823Y357782D01*
X272750Y357750D01*
X272719Y357741D01*
X272702Y357729D01*
X272669Y357715D01*
X272181Y357432D01*
X271534Y357259D01*
X268223Y357259D01*
X268223Y366777D01*
G37*
%LPD*%
%LPC*%
G36*
X268716Y52323D02*
X268716Y52323D01*
X268875Y53327D01*
X269400Y54942D01*
X270171Y56455D01*
X271169Y57830D01*
X272370Y59031D01*
X273745Y60029D01*
X275258Y60800D01*
X276873Y61325D01*
X277877Y61484D01*
X277877Y52323D01*
X268716Y52323D01*
G37*
%LPD*%
%LPC*%
G36*
X280923Y369823D02*
X280923Y369823D01*
X280923Y379341D01*
X284235Y379341D01*
X284881Y379168D01*
X285460Y378833D01*
X285933Y378360D01*
X286268Y377781D01*
X286441Y377134D01*
X286441Y369823D01*
X280923Y369823D01*
G37*
%LPD*%
%LPC*%
G36*
X331723Y357123D02*
X331723Y357123D01*
X331723Y362641D01*
X339034Y362641D01*
X339681Y362468D01*
X340260Y362133D01*
X340733Y361660D01*
X341068Y361081D01*
X341241Y360434D01*
X341241Y357123D01*
X331723Y357123D01*
G37*
%LPD*%
%LPC*%
G36*
X153923Y357123D02*
X153923Y357123D01*
X153923Y362641D01*
X161234Y362641D01*
X161881Y362468D01*
X162460Y362133D01*
X162933Y361660D01*
X163268Y361081D01*
X163441Y360434D01*
X163441Y357123D01*
X153923Y357123D01*
G37*
%LPD*%
%LPC*%
G36*
X319159Y357123D02*
X319159Y357123D01*
X319159Y360434D01*
X319332Y361081D01*
X319667Y361660D01*
X320140Y362133D01*
X320719Y362468D01*
X321366Y362641D01*
X328677Y362641D01*
X328677Y357123D01*
X319159Y357123D01*
G37*
%LPD*%
%LPC*%
G36*
X280923Y366777D02*
X280923Y366777D01*
X286441Y366777D01*
X286441Y359466D01*
X286268Y358819D01*
X285933Y358240D01*
X285460Y357767D01*
X284881Y357432D01*
X284234Y357259D01*
X280923Y357259D01*
X280923Y366777D01*
G37*
%LPD*%
%LPC*%
G36*
X196159Y369823D02*
X196159Y369823D01*
X196159Y377134D01*
X196332Y377781D01*
X196667Y378360D01*
X197140Y378833D01*
X197719Y379168D01*
X198366Y379341D01*
X201677Y379341D01*
X201677Y369823D01*
X196159Y369823D01*
G37*
%LPD*%
%LPC*%
G36*
X321366Y107259D02*
X321366Y107259D01*
X320719Y107432D01*
X320140Y107767D01*
X319667Y108240D01*
X319332Y108819D01*
X319159Y109466D01*
X319159Y112777D01*
X328677Y112777D01*
X328677Y107259D01*
X321366Y107259D01*
G37*
%LPD*%
%LPC*%
G36*
X198366Y357259D02*
X198366Y357259D01*
X197719Y357432D01*
X197140Y357767D01*
X196667Y358240D01*
X196332Y358819D01*
X196159Y359466D01*
X196159Y366777D01*
X201677Y366777D01*
X201677Y357259D01*
X198366Y357259D01*
G37*
%LPD*%
%LPC*%
G36*
X267574Y445374D02*
X267574Y445374D01*
X267574Y456326D01*
X272973Y456326D01*
X272780Y455356D01*
X272303Y454205D01*
X271611Y453169D01*
X270731Y452289D01*
X269695Y451597D01*
X269590Y451553D01*
X269529Y451516D01*
X269463Y451486D01*
X269425Y451451D01*
X269381Y451424D01*
X269335Y451369D01*
X269282Y451320D01*
X269257Y451274D01*
X269224Y451234D01*
X269198Y451167D01*
X269164Y451105D01*
X269154Y451053D01*
X269136Y451005D01*
X269133Y450933D01*
X269120Y450862D01*
X269127Y450811D01*
X269125Y450759D01*
X269145Y450690D01*
X269156Y450619D01*
X269179Y450573D01*
X269194Y450523D01*
X269235Y450464D01*
X269267Y450400D01*
X269304Y450363D01*
X269334Y450321D01*
X269392Y450278D01*
X269443Y450228D01*
X269506Y450193D01*
X269531Y450174D01*
X269554Y450167D01*
X269590Y450147D01*
X269695Y450103D01*
X270731Y449411D01*
X271611Y448531D01*
X272303Y447495D01*
X272780Y446344D01*
X272973Y445374D01*
X267574Y445374D01*
G37*
%LPD*%
%LPC*%
G36*
X242174Y445374D02*
X242174Y445374D01*
X242174Y456326D01*
X247573Y456326D01*
X247380Y455356D01*
X246903Y454205D01*
X246211Y453169D01*
X245331Y452289D01*
X244295Y451597D01*
X244190Y451553D01*
X244129Y451516D01*
X244063Y451486D01*
X244025Y451451D01*
X243981Y451424D01*
X243935Y451369D01*
X243882Y451320D01*
X243857Y451274D01*
X243824Y451234D01*
X243798Y451167D01*
X243764Y451104D01*
X243754Y451053D01*
X243736Y451005D01*
X243733Y450933D01*
X243720Y450862D01*
X243727Y450811D01*
X243725Y450759D01*
X243745Y450690D01*
X243756Y450619D01*
X243779Y450573D01*
X243794Y450523D01*
X243835Y450464D01*
X243867Y450400D01*
X243904Y450363D01*
X243934Y450321D01*
X243991Y450278D01*
X244043Y450228D01*
X244106Y450193D01*
X244131Y450174D01*
X244154Y450167D01*
X244190Y450147D01*
X244295Y450103D01*
X245331Y449411D01*
X246211Y448531D01*
X246903Y447495D01*
X247380Y446344D01*
X247573Y445374D01*
X242174Y445374D01*
G37*
%LPD*%
%LPC*%
G36*
X260427Y445374D02*
X260427Y445374D01*
X260620Y446344D01*
X261097Y447495D01*
X261789Y448531D01*
X262669Y449411D01*
X263705Y450103D01*
X263810Y450147D01*
X263871Y450185D01*
X263937Y450214D01*
X263975Y450249D01*
X264019Y450276D01*
X264065Y450332D01*
X264118Y450380D01*
X264143Y450426D01*
X264176Y450466D01*
X264202Y450533D01*
X264236Y450596D01*
X264246Y450647D01*
X264264Y450695D01*
X264267Y450767D01*
X264280Y450838D01*
X264273Y450889D01*
X264275Y450941D01*
X264255Y451010D01*
X264244Y451081D01*
X264221Y451127D01*
X264206Y451177D01*
X264165Y451236D01*
X264133Y451300D01*
X264095Y451337D01*
X264066Y451379D01*
X264008Y451422D01*
X263957Y451472D01*
X263894Y451507D01*
X263868Y451526D01*
X263846Y451534D01*
X263810Y451553D01*
X263705Y451597D01*
X262669Y452289D01*
X261789Y453169D01*
X261097Y454205D01*
X260620Y455356D01*
X260427Y456326D01*
X265826Y456326D01*
X265826Y445374D01*
X260427Y445374D01*
G37*
%LPD*%
%LPC*%
G36*
X235027Y445374D02*
X235027Y445374D01*
X235220Y446344D01*
X235697Y447495D01*
X236389Y448531D01*
X237269Y449411D01*
X238305Y450103D01*
X238410Y450147D01*
X238471Y450185D01*
X238537Y450214D01*
X238575Y450249D01*
X238619Y450276D01*
X238665Y450332D01*
X238718Y450380D01*
X238743Y450426D01*
X238776Y450466D01*
X238802Y450533D01*
X238836Y450596D01*
X238846Y450647D01*
X238864Y450695D01*
X238867Y450767D01*
X238880Y450838D01*
X238873Y450889D01*
X238875Y450941D01*
X238855Y451010D01*
X238844Y451081D01*
X238821Y451128D01*
X238806Y451177D01*
X238765Y451236D01*
X238733Y451300D01*
X238696Y451337D01*
X238666Y451379D01*
X238608Y451422D01*
X238557Y451473D01*
X238494Y451507D01*
X238469Y451526D01*
X238446Y451533D01*
X238410Y451553D01*
X238305Y451597D01*
X237269Y452289D01*
X236389Y453169D01*
X235697Y454205D01*
X235220Y455356D01*
X235027Y456326D01*
X240426Y456326D01*
X240426Y445374D01*
X235027Y445374D01*
G37*
%LPD*%
G36*
X340870Y201680D02*
X340870Y201680D01*
X340889Y201678D01*
X340991Y201700D01*
X341093Y201717D01*
X341110Y201726D01*
X341130Y201730D01*
X341219Y201783D01*
X341310Y201832D01*
X341324Y201846D01*
X341341Y201856D01*
X341408Y201935D01*
X341480Y202010D01*
X341488Y202028D01*
X341501Y202043D01*
X341540Y202139D01*
X341583Y202233D01*
X341585Y202253D01*
X341593Y202271D01*
X341611Y202438D01*
X341611Y203962D01*
X341608Y203982D01*
X341610Y204001D01*
X341588Y204103D01*
X341572Y204205D01*
X341562Y204222D01*
X341558Y204242D01*
X341505Y204331D01*
X341456Y204422D01*
X341442Y204436D01*
X341432Y204453D01*
X341353Y204520D01*
X341278Y204591D01*
X341260Y204600D01*
X341245Y204613D01*
X341149Y204652D01*
X341055Y204695D01*
X341035Y204697D01*
X341017Y204705D01*
X340850Y204723D01*
X330962Y204723D01*
X330942Y204720D01*
X330923Y204722D01*
X330821Y204700D01*
X330719Y204683D01*
X330702Y204674D01*
X330682Y204670D01*
X330593Y204617D01*
X330502Y204568D01*
X330488Y204554D01*
X330471Y204544D01*
X330404Y204465D01*
X330333Y204390D01*
X330324Y204372D01*
X330311Y204357D01*
X330272Y204261D01*
X330229Y204167D01*
X330227Y204147D01*
X330219Y204129D01*
X330201Y203962D01*
X330201Y202438D01*
X330204Y202418D01*
X330202Y202399D01*
X330224Y202297D01*
X330241Y202195D01*
X330250Y202178D01*
X330254Y202158D01*
X330307Y202069D01*
X330356Y201978D01*
X330370Y201964D01*
X330380Y201947D01*
X330459Y201880D01*
X330534Y201809D01*
X330552Y201800D01*
X330567Y201787D01*
X330663Y201748D01*
X330757Y201705D01*
X330777Y201703D01*
X330795Y201695D01*
X330962Y201677D01*
X340850Y201677D01*
X340870Y201680D01*
G37*
G36*
X161038Y112780D02*
X161038Y112780D01*
X161057Y112778D01*
X161159Y112800D01*
X161261Y112817D01*
X161278Y112826D01*
X161298Y112830D01*
X161387Y112883D01*
X161478Y112932D01*
X161492Y112946D01*
X161509Y112956D01*
X161576Y113035D01*
X161648Y113110D01*
X161656Y113128D01*
X161669Y113143D01*
X161708Y113239D01*
X161751Y113333D01*
X161753Y113353D01*
X161761Y113371D01*
X161779Y113538D01*
X161779Y115062D01*
X161776Y115082D01*
X161778Y115101D01*
X161756Y115203D01*
X161740Y115305D01*
X161730Y115322D01*
X161726Y115342D01*
X161673Y115431D01*
X161624Y115522D01*
X161610Y115536D01*
X161600Y115553D01*
X161521Y115620D01*
X161446Y115691D01*
X161428Y115700D01*
X161413Y115713D01*
X161317Y115752D01*
X161223Y115795D01*
X161203Y115797D01*
X161185Y115805D01*
X161018Y115823D01*
X153162Y115823D01*
X153142Y115820D01*
X153123Y115822D01*
X153021Y115800D01*
X152919Y115783D01*
X152902Y115774D01*
X152882Y115770D01*
X152793Y115717D01*
X152702Y115668D01*
X152688Y115654D01*
X152671Y115644D01*
X152604Y115565D01*
X152533Y115490D01*
X152524Y115472D01*
X152511Y115457D01*
X152472Y115361D01*
X152429Y115267D01*
X152427Y115247D01*
X152419Y115229D01*
X152401Y115062D01*
X152401Y113538D01*
X152404Y113518D01*
X152402Y113499D01*
X152424Y113397D01*
X152441Y113295D01*
X152450Y113278D01*
X152454Y113258D01*
X152507Y113169D01*
X152556Y113078D01*
X152570Y113064D01*
X152580Y113047D01*
X152659Y112980D01*
X152734Y112909D01*
X152752Y112900D01*
X152767Y112887D01*
X152863Y112848D01*
X152957Y112805D01*
X152977Y112803D01*
X152995Y112795D01*
X153162Y112777D01*
X161018Y112777D01*
X161038Y112780D01*
G37*
%LPC*%
G36*
X267574Y458074D02*
X267574Y458074D01*
X267574Y463473D01*
X268544Y463280D01*
X269695Y462803D01*
X270731Y462111D01*
X271611Y461231D01*
X272303Y460195D01*
X272780Y459044D01*
X272973Y458074D01*
X267574Y458074D01*
G37*
%LPD*%
%LPC*%
G36*
X242174Y458074D02*
X242174Y458074D01*
X242174Y463473D01*
X243144Y463280D01*
X244295Y462803D01*
X245331Y462111D01*
X246211Y461231D01*
X246903Y460195D01*
X247380Y459044D01*
X247573Y458074D01*
X242174Y458074D01*
G37*
%LPD*%
%LPC*%
G36*
X242174Y443626D02*
X242174Y443626D01*
X247573Y443626D01*
X247380Y442656D01*
X246903Y441505D01*
X246211Y440469D01*
X245331Y439589D01*
X244295Y438897D01*
X243144Y438420D01*
X242174Y438227D01*
X242174Y443626D01*
G37*
%LPD*%
%LPC*%
G36*
X267574Y443626D02*
X267574Y443626D01*
X272973Y443626D01*
X272780Y442656D01*
X272303Y441505D01*
X271611Y440469D01*
X270731Y439589D01*
X269695Y438897D01*
X268544Y438420D01*
X267574Y438227D01*
X267574Y443626D01*
G37*
%LPD*%
%LPC*%
G36*
X260427Y458074D02*
X260427Y458074D01*
X260620Y459044D01*
X261097Y460195D01*
X261789Y461231D01*
X262669Y462111D01*
X263705Y462803D01*
X264856Y463280D01*
X265826Y463473D01*
X265826Y458074D01*
X260427Y458074D01*
G37*
%LPD*%
%LPC*%
G36*
X235027Y458074D02*
X235027Y458074D01*
X235220Y459044D01*
X235697Y460195D01*
X236389Y461231D01*
X237269Y462111D01*
X238305Y462803D01*
X239456Y463280D01*
X240426Y463473D01*
X240426Y458074D01*
X235027Y458074D01*
G37*
%LPD*%
%LPC*%
G36*
X239456Y438420D02*
X239456Y438420D01*
X238305Y438897D01*
X237269Y439589D01*
X236389Y440469D01*
X235697Y441505D01*
X235220Y442656D01*
X235027Y443626D01*
X240426Y443626D01*
X240426Y438227D01*
X239456Y438420D01*
G37*
%LPD*%
%LPC*%
G36*
X264856Y438420D02*
X264856Y438420D01*
X263705Y438897D01*
X262669Y439589D01*
X261789Y440469D01*
X261097Y441505D01*
X260620Y442656D01*
X260427Y443626D01*
X265826Y443626D01*
X265826Y438227D01*
X264856Y438420D01*
G37*
%LPD*%
%LPC*%
G36*
X263524Y397382D02*
X263524Y397382D01*
X263524Y402591D01*
X265002Y402591D01*
X265649Y402418D01*
X266228Y402083D01*
X266701Y401610D01*
X267036Y401031D01*
X267209Y400384D01*
X267209Y397382D01*
X263524Y397382D01*
G37*
%LPD*%
%LPC*%
G36*
X263524Y430402D02*
X263524Y430402D01*
X263524Y435611D01*
X265002Y435611D01*
X265649Y435438D01*
X266228Y435103D01*
X266701Y434630D01*
X267036Y434051D01*
X267209Y433404D01*
X267209Y430402D01*
X263524Y430402D01*
G37*
%LPD*%
%LPC*%
G36*
X263524Y389889D02*
X263524Y389889D01*
X263524Y395098D01*
X267209Y395098D01*
X267209Y392096D01*
X267036Y391449D01*
X266701Y390870D01*
X266228Y390397D01*
X265649Y390062D01*
X265002Y389889D01*
X263524Y389889D01*
G37*
%LPD*%
%LPC*%
G36*
X263524Y422909D02*
X263524Y422909D01*
X263524Y428118D01*
X267209Y428118D01*
X267209Y425116D01*
X267036Y424469D01*
X266701Y423890D01*
X266228Y423417D01*
X265649Y423082D01*
X265002Y422909D01*
X263524Y422909D01*
G37*
%LPD*%
%LPC*%
G36*
X279399Y368299D02*
X279399Y368299D01*
X279399Y368301D01*
X279401Y368301D01*
X279401Y368299D01*
X279399Y368299D01*
G37*
%LPD*%
%LPC*%
G36*
X203199Y368299D02*
X203199Y368299D01*
X203199Y368301D01*
X203201Y368301D01*
X203201Y368299D01*
X203199Y368299D01*
G37*
%LPD*%
D10*
X330200Y114300D03*
X330200Y127000D03*
X330200Y139700D03*
X330200Y152400D03*
X330200Y165100D03*
X330200Y177800D03*
X330200Y190500D03*
X330200Y203200D03*
X330200Y215900D03*
X330200Y228600D03*
X330200Y241300D03*
X330200Y254000D03*
X330200Y266700D03*
X330200Y279400D03*
X330200Y292100D03*
X330200Y304800D03*
X330200Y317500D03*
X330200Y330200D03*
X330200Y342900D03*
X330200Y355600D03*
D11*
X279400Y368300D03*
X266700Y368300D03*
X254000Y368300D03*
X241300Y368300D03*
X228600Y368300D03*
X215900Y368300D03*
X203200Y368300D03*
D10*
X152400Y355600D03*
X152400Y342900D03*
X152400Y330200D03*
X152400Y317500D03*
X152400Y304800D03*
X152400Y292100D03*
X152400Y279400D03*
X152400Y266700D03*
X152400Y254000D03*
X152400Y241300D03*
X152400Y228600D03*
X152400Y215900D03*
X152400Y203200D03*
X152400Y190500D03*
X152400Y177800D03*
X152400Y165100D03*
X152400Y152400D03*
X152400Y139700D03*
X152400Y127000D03*
X152400Y114300D03*
D12*
X342900Y38100D03*
X342900Y419100D03*
X38100Y469900D03*
X38100Y38100D03*
D13*
X76200Y419100D03*
D14*
X76200Y393700D03*
X76200Y368300D03*
X76200Y342900D03*
X76200Y317500D03*
X76200Y292100D03*
X76200Y266700D03*
X76200Y241300D03*
X76200Y215900D03*
X76200Y190500D03*
X76200Y165100D03*
X76200Y139700D03*
X76200Y114300D03*
X76200Y88900D03*
D13*
X101600Y50800D03*
D14*
X127000Y50800D03*
X152400Y50800D03*
X177800Y50800D03*
X203200Y50800D03*
X228600Y50800D03*
X254000Y50800D03*
X279400Y50800D03*
D15*
X279400Y488950D03*
X228600Y488950D03*
D16*
X254000Y478790D03*
D13*
X152400Y419100D03*
D14*
X177800Y419100D03*
D17*
X254000Y418592D03*
X254000Y409448D03*
D18*
X253238Y396240D03*
X262382Y396240D03*
X253238Y429260D03*
X262382Y429260D03*
D19*
X127000Y81400D03*
X127000Y96400D03*
X101600Y81400D03*
X101600Y96400D03*
D20*
X324612Y252984D02*
X329184Y252984D01*
X324612Y252984D02*
X315468Y243840D01*
X329184Y252984D02*
X330200Y254000D01*
X156972Y278892D02*
X152400Y278892D01*
X156972Y278892D02*
X167640Y268224D01*
X152400Y278892D02*
X152400Y279400D01*
D21*
X315468Y243840D03*
X167640Y268224D03*
D20*
X324612Y204216D02*
X329184Y204216D01*
X324612Y204216D02*
X318516Y210312D01*
X318516Y233172D01*
X326136Y240792D01*
X329184Y240792D01*
X329184Y204216D02*
X330200Y203200D01*
X329184Y240792D02*
X330200Y241300D01*
X329184Y114300D02*
X329184Y100584D01*
X279400Y50800D01*
X329184Y114300D02*
X330200Y114300D01*
X330708Y202692D02*
X335280Y202692D01*
X341376Y196596D01*
X341376Y121920D01*
X333756Y114300D01*
X330200Y114300D01*
X330708Y202692D02*
X330200Y203200D01*
X156972Y114300D02*
X152400Y114300D01*
X156972Y114300D02*
X164592Y121920D01*
X164592Y182880D01*
X156972Y190500D01*
X266700Y368808D02*
X278892Y368808D01*
X266700Y368808D02*
X266700Y368300D01*
X278892Y368808D02*
X279400Y368300D01*
X291084Y356616D02*
X329184Y356616D01*
X291084Y356616D02*
X279400Y368300D01*
X329184Y356616D02*
X330200Y355600D01*
X156972Y292608D02*
X152400Y292608D01*
X156972Y292608D02*
X202692Y338328D01*
X202692Y367284D01*
X152400Y292608D02*
X152400Y292100D01*
X202692Y367284D02*
X203200Y368300D01*
X152400Y355600D02*
X152400Y399288D01*
X166116Y413004D01*
X166116Y423672D01*
X172212Y429768D01*
X182880Y429768D01*
X202692Y409956D01*
X202692Y368808D01*
X203200Y368300D01*
X204216Y368808D02*
X214884Y368808D01*
X215900Y368300D01*
X204216Y368808D02*
X203200Y368300D01*
X240792Y367284D02*
X240792Y364236D01*
X233172Y356616D01*
X224028Y356616D01*
X216408Y364236D01*
X216408Y367284D01*
X240792Y367284D02*
X241300Y368300D01*
X216408Y367284D02*
X215900Y368300D01*
X266700Y368300D02*
X266700Y364236D01*
X259080Y356616D01*
X248412Y356616D01*
X240792Y364236D01*
X241300Y368300D01*
X173736Y207264D02*
X156972Y190500D01*
X173736Y207264D02*
X173736Y275844D01*
X156972Y292608D01*
X156972Y190500D02*
X152400Y190500D01*
X152400Y292100D02*
X156972Y292608D01*
X330708Y242316D02*
X335280Y242316D01*
X341376Y248412D01*
X341376Y348996D01*
X335280Y355092D01*
X330708Y355092D01*
X330708Y242316D02*
X330200Y241300D01*
X330708Y355092D02*
X330200Y355600D01*
D21*
X241300Y457200D03*
X241300Y444500D03*
X266700Y457200D03*
X266700Y444500D03*
D20*
X152400Y266700D02*
X147828Y266700D01*
X96012Y318516D01*
X96012Y399288D01*
X76200Y419100D01*
X147828Y254508D02*
X152400Y254508D01*
X147828Y254508D02*
X99060Y303276D01*
X99060Y310896D01*
X92964Y316992D01*
X92964Y376428D01*
X76200Y393192D01*
X152400Y254508D02*
X152400Y254000D01*
X76200Y393192D02*
X76200Y393700D01*
X147828Y242316D02*
X152400Y242316D01*
X147828Y242316D02*
X96012Y294132D01*
X96012Y307848D01*
X89916Y313944D01*
X89916Y353568D01*
X76200Y367284D01*
X152400Y242316D02*
X152400Y241300D01*
X76200Y367284D02*
X76200Y368300D01*
X147828Y228600D02*
X152400Y228600D01*
X147828Y228600D02*
X92964Y283464D01*
X92964Y306324D01*
X86868Y312420D01*
X86868Y332232D01*
X76200Y342900D01*
X137160Y216408D02*
X152400Y216408D01*
X137160Y216408D02*
X89916Y263652D01*
X89916Y303276D01*
X76200Y316992D01*
X152400Y216408D02*
X152400Y215900D01*
X76200Y316992D02*
X76200Y317500D01*
X135636Y204216D02*
X152400Y204216D01*
X135636Y204216D02*
X92964Y246888D01*
X92964Y256032D01*
X86868Y262128D01*
X86868Y280416D01*
X76200Y291084D01*
X152400Y204216D02*
X152400Y203200D01*
X76200Y291084D02*
X76200Y292100D01*
X147828Y166116D02*
X152400Y166116D01*
X147828Y166116D02*
X89916Y224028D01*
X89916Y252984D01*
X76200Y266700D01*
X152400Y166116D02*
X152400Y165100D01*
X152400Y152400D02*
X147828Y152400D01*
X86868Y213360D01*
X86868Y230124D01*
X76200Y240792D01*
X76200Y241300D01*
X117348Y140208D02*
X152400Y140208D01*
X117348Y140208D02*
X89916Y167640D01*
X89916Y201168D01*
X76200Y214884D01*
X152400Y140208D02*
X152400Y139700D01*
X76200Y214884D02*
X76200Y215900D01*
X124968Y128016D02*
X152400Y128016D01*
X124968Y128016D02*
X86868Y166116D01*
X86868Y179832D01*
X76200Y190500D01*
X152400Y128016D02*
X152400Y127000D01*
X326136Y278892D02*
X329184Y278892D01*
X326136Y278892D02*
X164592Y117348D01*
X164592Y109728D01*
X161544Y106680D01*
X134112Y106680D01*
X76200Y164592D01*
X329184Y278892D02*
X330200Y279400D01*
X76200Y165100D02*
X76200Y164592D01*
X326136Y266700D02*
X330200Y266700D01*
X326136Y266700D02*
X175260Y115824D01*
X175260Y112776D01*
X166116Y103632D01*
X111252Y103632D01*
X76200Y138684D01*
X76200Y139700D01*
X330200Y228600D02*
X333756Y228600D01*
X347472Y214884D01*
X347472Y99060D01*
X281940Y33528D01*
X94488Y33528D01*
X65532Y62484D01*
X65532Y103632D01*
X76200Y114300D01*
X330708Y214884D02*
X335280Y214884D01*
X344424Y205740D01*
X344424Y100584D01*
X280416Y36576D01*
X96012Y36576D01*
X76200Y56388D01*
X76200Y88900D01*
X330200Y215900D02*
X330708Y214884D01*
X156972Y330708D02*
X152400Y330708D01*
X156972Y330708D02*
X176784Y350520D01*
X176784Y419100D01*
X152400Y330708D02*
X152400Y330200D01*
X176784Y419100D02*
X177800Y419100D01*
X152400Y318516D02*
X147828Y318516D01*
X140208Y326136D01*
X140208Y406908D01*
X152400Y419100D01*
X152400Y318516D02*
X152400Y317500D01*
X152400Y304800D02*
X147828Y304800D01*
X137160Y294132D01*
D21*
X137160Y294132D03*
D20*
X127000Y81400D02*
X128016Y80772D01*
X127000Y81400D02*
X127000Y50800D01*
X152400Y76200D01*
X187713Y76200D01*
X302013Y190500D02*
X330200Y190500D01*
X302013Y190500D02*
X187713Y76200D01*
X292608Y176784D02*
X329184Y176784D01*
X292608Y176784D02*
X181356Y65532D01*
X150876Y65532D01*
X138684Y53340D01*
X138684Y47244D01*
X131064Y39624D01*
X112776Y39624D01*
X101600Y50800D01*
X329184Y176784D02*
X330200Y177800D01*
X102108Y80772D02*
X102108Y51816D01*
X102108Y80772D02*
X101600Y81400D01*
X102108Y51816D02*
X101600Y50800D01*
X259080Y138684D02*
X329184Y138684D01*
X259080Y138684D02*
X182880Y62484D01*
X163068Y62484D01*
X152400Y51816D01*
X329184Y138684D02*
X330200Y139700D01*
X152400Y51816D02*
X152400Y50800D01*
X252984Y126492D02*
X329184Y126492D01*
X252984Y126492D02*
X178308Y51816D01*
X329184Y126492D02*
X330200Y127000D01*
X178308Y51816D02*
X177800Y50800D01*
D22*
X254000Y368300D02*
X254000Y395478D01*
D20*
X253238Y396240D01*
X253238Y408686D02*
X254000Y409448D01*
X254000Y397002D02*
X253998Y396948D01*
X253992Y396894D01*
X253983Y396840D01*
X253969Y396787D01*
X253952Y396736D01*
X253931Y396685D01*
X253907Y396637D01*
X253879Y396590D01*
X253848Y396545D01*
X253814Y396503D01*
X253777Y396463D01*
X253737Y396426D01*
X253695Y396392D01*
X253650Y396361D01*
X253603Y396333D01*
X253555Y396309D01*
X253504Y396288D01*
X253453Y396271D01*
X253400Y396257D01*
X253346Y396248D01*
X253292Y396242D01*
X253238Y396240D01*
D22*
X254000Y397002D02*
X254000Y409448D01*
X254000Y418592D02*
X254000Y428498D01*
D20*
X253238Y429260D01*
X253238Y477012D02*
X254000Y478790D01*
X254000Y430022D02*
X253998Y429968D01*
X253992Y429914D01*
X253983Y429860D01*
X253969Y429807D01*
X253952Y429756D01*
X253931Y429705D01*
X253907Y429657D01*
X253879Y429610D01*
X253848Y429565D01*
X253814Y429523D01*
X253777Y429483D01*
X253737Y429446D01*
X253695Y429412D01*
X253650Y429381D01*
X253603Y429353D01*
X253555Y429329D01*
X253504Y429308D01*
X253453Y429291D01*
X253400Y429277D01*
X253346Y429268D01*
X253292Y429262D01*
X253238Y429260D01*
D22*
X254000Y430022D02*
X254000Y478790D01*
D20*
X254000Y482600D01*
X126492Y96012D02*
X115824Y96012D01*
X126492Y96012D02*
X127000Y96400D01*
D21*
X115824Y96012D03*
D20*
X100584Y96012D02*
X89916Y96012D01*
X100584Y96012D02*
X101600Y96400D01*
D21*
X89916Y96012D03*
M02*
