M48
;GenerationSoftware,Autodesk,EAGLE,9.1.0*%
;CreationDate,2018-07-07T00:16:31Z*%
FMAT,2
ICI,OFF
METRIC,TZ,000.000
T3C0.350
T2C1.100
T1C2.800
%
G90
M71
T1
X3810Y3810
X34290Y3810
X34290Y41910
X3810Y46990
T2
X7620Y29210
X12700Y5080
X15240Y5080
X17780Y5080
X20320Y5080
X22860Y5080
X25400Y5080
X27940Y5080
X15240Y41910
X7620Y41910
X7620Y39370
X7620Y36830
X7620Y34290
X7620Y31750
X17780Y41910
X7620Y26670
X7620Y24130
X7620Y21590
X7620Y19050
X7620Y16510
X7620Y13970
X7620Y11430
X7620Y8890
X10160Y5080
T3
X16764Y26822
X24130Y45720
X24130Y44450
X26670Y45720
X26670Y44450
X13716Y29413
X11582Y9601
X8992Y9601
X31547Y24384
M30