G04 EAGLE Gerber RS-274X export*
G75*
%MOMM*%
%FSLAX34Y34*%
%LPD*%
%AMOC8*
5,1,8,0,0,1.08239X$1,22.5*%
G01*
%ADD10C,0.152400*%
%ADD11C,0.203200*%
%ADD12C,0.101600*%
%ADD13C,0.127000*%


D10*
X330962Y185787D02*
X330962Y178562D01*
X347218Y178562D01*
X347218Y185787D01*
X339993Y183981D02*
X339993Y178562D01*
X341799Y192218D02*
X330962Y192218D01*
X341799Y192218D02*
X341799Y200346D01*
X341797Y200447D01*
X341791Y200548D01*
X341782Y200649D01*
X341769Y200750D01*
X341752Y200850D01*
X341731Y200949D01*
X341707Y201047D01*
X341679Y201144D01*
X341647Y201241D01*
X341612Y201336D01*
X341573Y201429D01*
X341531Y201521D01*
X341485Y201612D01*
X341436Y201701D01*
X341384Y201787D01*
X341328Y201872D01*
X341270Y201955D01*
X341208Y202035D01*
X341143Y202113D01*
X341076Y202189D01*
X341006Y202262D01*
X340933Y202332D01*
X340857Y202399D01*
X340779Y202464D01*
X340699Y202526D01*
X340616Y202584D01*
X340531Y202640D01*
X340445Y202692D01*
X340356Y202741D01*
X340265Y202787D01*
X340173Y202829D01*
X340080Y202868D01*
X339985Y202903D01*
X339888Y202935D01*
X339791Y202963D01*
X339693Y202987D01*
X339594Y203008D01*
X339494Y203025D01*
X339393Y203038D01*
X339292Y203047D01*
X339191Y203053D01*
X339090Y203055D01*
X339090Y203056D02*
X330962Y203056D01*
X330962Y197637D02*
X341799Y197637D01*
X342702Y210316D02*
X335478Y210316D01*
X342702Y210315D02*
X342835Y210317D01*
X342967Y210323D01*
X343099Y210333D01*
X343231Y210346D01*
X343363Y210364D01*
X343493Y210385D01*
X343624Y210410D01*
X343753Y210439D01*
X343881Y210472D01*
X344009Y210508D01*
X344135Y210548D01*
X344260Y210592D01*
X344384Y210640D01*
X344506Y210691D01*
X344627Y210746D01*
X344746Y210804D01*
X344864Y210866D01*
X344979Y210931D01*
X345093Y211000D01*
X345204Y211071D01*
X345313Y211147D01*
X345420Y211225D01*
X345525Y211306D01*
X345627Y211391D01*
X345727Y211478D01*
X345824Y211568D01*
X345919Y211661D01*
X346010Y211757D01*
X346099Y211855D01*
X346185Y211956D01*
X346268Y212060D01*
X346348Y212166D01*
X346424Y212274D01*
X346498Y212384D01*
X346568Y212497D01*
X346635Y212611D01*
X346698Y212728D01*
X346758Y212846D01*
X346815Y212966D01*
X346868Y213088D01*
X346917Y213211D01*
X346963Y213335D01*
X347005Y213461D01*
X347043Y213588D01*
X347078Y213716D01*
X347109Y213845D01*
X347136Y213974D01*
X347159Y214105D01*
X347179Y214236D01*
X347194Y214368D01*
X347206Y214500D01*
X347214Y214632D01*
X347218Y214765D01*
X347218Y214897D01*
X347214Y215030D01*
X347206Y215162D01*
X347194Y215294D01*
X347179Y215426D01*
X347159Y215557D01*
X347136Y215688D01*
X347109Y215817D01*
X347078Y215946D01*
X347043Y216074D01*
X347005Y216201D01*
X346963Y216327D01*
X346917Y216451D01*
X346868Y216574D01*
X346815Y216696D01*
X346758Y216816D01*
X346698Y216934D01*
X346635Y217051D01*
X346568Y217165D01*
X346498Y217278D01*
X346424Y217388D01*
X346348Y217496D01*
X346268Y217602D01*
X346185Y217706D01*
X346099Y217807D01*
X346010Y217905D01*
X345919Y218001D01*
X345824Y218094D01*
X345727Y218184D01*
X345627Y218271D01*
X345525Y218356D01*
X345420Y218437D01*
X345313Y218515D01*
X345204Y218591D01*
X345093Y218662D01*
X344979Y218731D01*
X344864Y218796D01*
X344746Y218858D01*
X344627Y218916D01*
X344506Y218971D01*
X344384Y219022D01*
X344260Y219070D01*
X344135Y219114D01*
X344009Y219154D01*
X343881Y219190D01*
X343753Y219223D01*
X343624Y219252D01*
X343493Y219277D01*
X343363Y219298D01*
X343231Y219316D01*
X343099Y219329D01*
X342967Y219339D01*
X342835Y219345D01*
X342702Y219347D01*
X335478Y219347D01*
X335345Y219345D01*
X335213Y219339D01*
X335081Y219329D01*
X334949Y219316D01*
X334817Y219298D01*
X334687Y219277D01*
X334556Y219252D01*
X334427Y219223D01*
X334299Y219190D01*
X334171Y219154D01*
X334045Y219114D01*
X333920Y219070D01*
X333796Y219022D01*
X333674Y218971D01*
X333553Y218916D01*
X333434Y218858D01*
X333316Y218796D01*
X333201Y218731D01*
X333087Y218662D01*
X332976Y218591D01*
X332867Y218515D01*
X332760Y218437D01*
X332655Y218356D01*
X332553Y218271D01*
X332453Y218184D01*
X332356Y218094D01*
X332261Y218001D01*
X332170Y217905D01*
X332081Y217807D01*
X331995Y217706D01*
X331912Y217602D01*
X331832Y217496D01*
X331756Y217388D01*
X331682Y217278D01*
X331612Y217165D01*
X331545Y217051D01*
X331482Y216934D01*
X331422Y216816D01*
X331365Y216696D01*
X331312Y216574D01*
X331263Y216451D01*
X331217Y216327D01*
X331175Y216201D01*
X331137Y216074D01*
X331102Y215946D01*
X331071Y215817D01*
X331044Y215688D01*
X331021Y215557D01*
X331001Y215426D01*
X330986Y215294D01*
X330974Y215162D01*
X330966Y215030D01*
X330962Y214897D01*
X330962Y214765D01*
X330966Y214632D01*
X330974Y214500D01*
X330986Y214368D01*
X331001Y214236D01*
X331021Y214105D01*
X331044Y213974D01*
X331071Y213845D01*
X331102Y213716D01*
X331137Y213588D01*
X331175Y213461D01*
X331217Y213335D01*
X331263Y213211D01*
X331312Y213088D01*
X331365Y212966D01*
X331422Y212846D01*
X331482Y212728D01*
X331545Y212611D01*
X331612Y212497D01*
X331682Y212384D01*
X331756Y212274D01*
X331832Y212166D01*
X331912Y212060D01*
X331995Y211956D01*
X332081Y211855D01*
X332170Y211757D01*
X332261Y211661D01*
X332356Y211568D01*
X332453Y211478D01*
X332553Y211391D01*
X332655Y211306D01*
X332760Y211225D01*
X332867Y211147D01*
X332976Y211071D01*
X333087Y211000D01*
X333201Y210931D01*
X333316Y210866D01*
X333434Y210804D01*
X333553Y210746D01*
X333674Y210691D01*
X333796Y210640D01*
X333920Y210592D01*
X334045Y210548D01*
X334171Y210508D01*
X334299Y210472D01*
X334427Y210439D01*
X334556Y210410D01*
X334687Y210385D01*
X334817Y210364D01*
X334949Y210346D01*
X335081Y210333D01*
X335213Y210323D01*
X335345Y210317D01*
X335478Y210315D01*
X330962Y226329D02*
X341799Y226329D01*
X341799Y230845D01*
X341797Y230946D01*
X341791Y231047D01*
X341782Y231148D01*
X341769Y231249D01*
X341752Y231349D01*
X341731Y231448D01*
X341707Y231546D01*
X341679Y231643D01*
X341647Y231740D01*
X341612Y231835D01*
X341573Y231928D01*
X341531Y232020D01*
X341485Y232111D01*
X341436Y232200D01*
X341384Y232286D01*
X341328Y232371D01*
X341270Y232454D01*
X341208Y232534D01*
X341143Y232612D01*
X341076Y232688D01*
X341006Y232761D01*
X340933Y232831D01*
X340857Y232898D01*
X340779Y232963D01*
X340699Y233025D01*
X340616Y233083D01*
X340531Y233139D01*
X340445Y233191D01*
X340356Y233240D01*
X340265Y233286D01*
X340173Y233328D01*
X340080Y233367D01*
X339985Y233402D01*
X339888Y233434D01*
X339791Y233462D01*
X339693Y233486D01*
X339594Y233507D01*
X339494Y233524D01*
X339393Y233537D01*
X339292Y233546D01*
X339191Y233552D01*
X339090Y233554D01*
X330962Y233554D01*
X330962Y243106D02*
X330962Y247622D01*
X330962Y243106D02*
X330964Y243005D01*
X330970Y242904D01*
X330979Y242803D01*
X330992Y242702D01*
X331009Y242602D01*
X331030Y242503D01*
X331054Y242405D01*
X331082Y242308D01*
X331114Y242211D01*
X331149Y242116D01*
X331188Y242023D01*
X331230Y241931D01*
X331276Y241840D01*
X331325Y241752D01*
X331377Y241665D01*
X331433Y241580D01*
X331491Y241497D01*
X331553Y241417D01*
X331618Y241339D01*
X331685Y241263D01*
X331755Y241190D01*
X331828Y241120D01*
X331904Y241053D01*
X331982Y240988D01*
X332062Y240926D01*
X332145Y240868D01*
X332230Y240812D01*
X332317Y240760D01*
X332405Y240711D01*
X332496Y240665D01*
X332588Y240623D01*
X332681Y240584D01*
X332776Y240549D01*
X332873Y240517D01*
X332970Y240489D01*
X333068Y240465D01*
X333167Y240444D01*
X333267Y240427D01*
X333368Y240414D01*
X333469Y240405D01*
X333570Y240399D01*
X333671Y240397D01*
X338187Y240397D01*
X338187Y240398D02*
X338306Y240400D01*
X338426Y240406D01*
X338545Y240416D01*
X338663Y240430D01*
X338782Y240447D01*
X338899Y240469D01*
X339016Y240494D01*
X339131Y240524D01*
X339246Y240557D01*
X339360Y240594D01*
X339472Y240634D01*
X339583Y240679D01*
X339692Y240727D01*
X339800Y240778D01*
X339906Y240833D01*
X340010Y240892D01*
X340112Y240954D01*
X340212Y241019D01*
X340310Y241088D01*
X340406Y241160D01*
X340499Y241235D01*
X340589Y241312D01*
X340677Y241393D01*
X340762Y241477D01*
X340844Y241564D01*
X340924Y241653D01*
X341000Y241745D01*
X341074Y241839D01*
X341144Y241936D01*
X341211Y242034D01*
X341275Y242135D01*
X341335Y242239D01*
X341392Y242344D01*
X341445Y242451D01*
X341495Y242559D01*
X341541Y242669D01*
X341583Y242781D01*
X341622Y242894D01*
X341657Y243008D01*
X341688Y243123D01*
X341716Y243240D01*
X341739Y243357D01*
X341759Y243474D01*
X341775Y243593D01*
X341787Y243712D01*
X341795Y243831D01*
X341799Y243950D01*
X341799Y244070D01*
X341795Y244189D01*
X341787Y244308D01*
X341775Y244427D01*
X341759Y244546D01*
X341739Y244663D01*
X341716Y244780D01*
X341688Y244897D01*
X341657Y245012D01*
X341622Y245126D01*
X341583Y245239D01*
X341541Y245351D01*
X341495Y245461D01*
X341445Y245569D01*
X341392Y245676D01*
X341335Y245781D01*
X341275Y245885D01*
X341211Y245986D01*
X341144Y246084D01*
X341074Y246181D01*
X341000Y246275D01*
X340924Y246367D01*
X340844Y246456D01*
X340762Y246543D01*
X340677Y246627D01*
X340589Y246708D01*
X340499Y246785D01*
X340406Y246860D01*
X340310Y246932D01*
X340212Y247001D01*
X340112Y247066D01*
X340010Y247128D01*
X339906Y247187D01*
X339800Y247242D01*
X339692Y247293D01*
X339583Y247341D01*
X339472Y247386D01*
X339360Y247426D01*
X339246Y247463D01*
X339131Y247496D01*
X339016Y247526D01*
X338899Y247551D01*
X338782Y247573D01*
X338663Y247590D01*
X338545Y247604D01*
X338426Y247614D01*
X338306Y247620D01*
X338187Y247622D01*
X336381Y247622D01*
X336381Y240397D01*
X335478Y259919D02*
X342702Y259919D01*
X342702Y262177D01*
X342700Y262260D01*
X342694Y262344D01*
X342685Y262427D01*
X342671Y262509D01*
X342654Y262590D01*
X342633Y262671D01*
X342608Y262751D01*
X342580Y262829D01*
X342548Y262906D01*
X342513Y262982D01*
X342474Y263056D01*
X342431Y263128D01*
X342386Y263198D01*
X342337Y263265D01*
X342285Y263331D01*
X342231Y263394D01*
X342173Y263454D01*
X342113Y263512D01*
X342050Y263566D01*
X341984Y263618D01*
X341917Y263667D01*
X341847Y263712D01*
X341775Y263755D01*
X341701Y263794D01*
X341625Y263829D01*
X341548Y263861D01*
X341470Y263889D01*
X341390Y263914D01*
X341309Y263935D01*
X341228Y263952D01*
X341146Y263966D01*
X341063Y263975D01*
X340979Y263981D01*
X340896Y263983D01*
X340813Y263981D01*
X340729Y263975D01*
X340646Y263966D01*
X340564Y263952D01*
X340483Y263935D01*
X340402Y263914D01*
X340322Y263889D01*
X340244Y263861D01*
X340167Y263829D01*
X340091Y263794D01*
X340017Y263755D01*
X339945Y263712D01*
X339875Y263667D01*
X339808Y263618D01*
X339742Y263566D01*
X339679Y263512D01*
X339619Y263454D01*
X339561Y263394D01*
X339507Y263331D01*
X339455Y263265D01*
X339406Y263198D01*
X339361Y263128D01*
X339318Y263056D01*
X339279Y262982D01*
X339244Y262906D01*
X339212Y262829D01*
X339184Y262751D01*
X339159Y262671D01*
X339138Y262590D01*
X339121Y262509D01*
X339107Y262427D01*
X339098Y262344D01*
X339092Y262260D01*
X339090Y262177D01*
X339090Y259919D01*
X339090Y262177D02*
X335478Y263983D01*
X339090Y269401D02*
X339277Y269399D01*
X339464Y269392D01*
X339650Y269381D01*
X339837Y269365D01*
X340022Y269344D01*
X340208Y269319D01*
X340392Y269290D01*
X340576Y269256D01*
X340759Y269217D01*
X340941Y269174D01*
X341122Y269127D01*
X341301Y269076D01*
X341480Y269020D01*
X341657Y268959D01*
X341832Y268895D01*
X342006Y268826D01*
X342178Y268752D01*
X342348Y268675D01*
X342516Y268594D01*
X342683Y268508D01*
X342847Y268419D01*
X343009Y268325D01*
X343168Y268228D01*
X343325Y268127D01*
X343480Y268022D01*
X343632Y267913D01*
X343781Y267801D01*
X343928Y267684D01*
X344072Y267565D01*
X344212Y267442D01*
X344350Y267315D01*
X344485Y267186D01*
X344616Y267053D01*
X344744Y266917D01*
X344869Y266777D01*
X344990Y266635D01*
X345108Y266490D01*
X345222Y266342D01*
X345333Y266191D01*
X345440Y266038D01*
X345543Y265882D01*
X345642Y265724D01*
X345738Y265563D01*
X345829Y265400D01*
X345917Y265235D01*
X346000Y265068D01*
X346079Y264898D01*
X346155Y264727D01*
X346226Y264554D01*
X346292Y264380D01*
X346355Y264203D01*
X346413Y264026D01*
X346467Y263847D01*
X346516Y263667D01*
X346561Y263485D01*
X346602Y263303D01*
X346638Y263119D01*
X346670Y262935D01*
X346697Y262750D01*
X346720Y262565D01*
X346738Y262378D01*
X346752Y262192D01*
X346761Y262005D01*
X346765Y261818D01*
X346765Y261632D01*
X346761Y261445D01*
X346752Y261258D01*
X346738Y261072D01*
X346720Y260885D01*
X346697Y260700D01*
X346670Y260515D01*
X346638Y260331D01*
X346602Y260147D01*
X346561Y259965D01*
X346516Y259783D01*
X346467Y259603D01*
X346413Y259424D01*
X346355Y259247D01*
X346292Y259070D01*
X346226Y258896D01*
X346155Y258723D01*
X346079Y258552D01*
X346000Y258382D01*
X345917Y258215D01*
X345829Y258050D01*
X345738Y257887D01*
X345642Y257726D01*
X345543Y257568D01*
X345440Y257412D01*
X345333Y257259D01*
X345222Y257108D01*
X345108Y256960D01*
X344990Y256815D01*
X344869Y256673D01*
X344744Y256533D01*
X344616Y256397D01*
X344485Y256264D01*
X344350Y256135D01*
X344212Y256008D01*
X344072Y255885D01*
X343928Y255766D01*
X343781Y255649D01*
X343632Y255537D01*
X343480Y255428D01*
X343325Y255323D01*
X343168Y255222D01*
X343009Y255125D01*
X342847Y255031D01*
X342683Y254942D01*
X342516Y254856D01*
X342348Y254775D01*
X342178Y254698D01*
X342006Y254624D01*
X341832Y254555D01*
X341657Y254491D01*
X341480Y254430D01*
X341301Y254374D01*
X341122Y254323D01*
X340941Y254276D01*
X340759Y254233D01*
X340576Y254194D01*
X340392Y254160D01*
X340208Y254131D01*
X340022Y254106D01*
X339837Y254085D01*
X339650Y254069D01*
X339464Y254058D01*
X339277Y254051D01*
X339090Y254049D01*
X338903Y254051D01*
X338716Y254058D01*
X338530Y254069D01*
X338343Y254085D01*
X338158Y254106D01*
X337972Y254131D01*
X337788Y254160D01*
X337604Y254194D01*
X337421Y254233D01*
X337239Y254276D01*
X337058Y254323D01*
X336879Y254374D01*
X336700Y254430D01*
X336523Y254491D01*
X336348Y254555D01*
X336174Y254624D01*
X336002Y254698D01*
X335832Y254775D01*
X335664Y254856D01*
X335497Y254942D01*
X335333Y255031D01*
X335171Y255125D01*
X335012Y255222D01*
X334855Y255323D01*
X334700Y255428D01*
X334548Y255537D01*
X334399Y255649D01*
X334252Y255766D01*
X334108Y255885D01*
X333968Y256008D01*
X333830Y256135D01*
X333695Y256264D01*
X333564Y256397D01*
X333436Y256533D01*
X333311Y256673D01*
X333190Y256815D01*
X333072Y256960D01*
X332958Y257108D01*
X332847Y257259D01*
X332740Y257412D01*
X332637Y257568D01*
X332538Y257726D01*
X332442Y257887D01*
X332351Y258050D01*
X332263Y258215D01*
X332180Y258382D01*
X332101Y258552D01*
X332025Y258723D01*
X331954Y258896D01*
X331888Y259070D01*
X331825Y259247D01*
X331767Y259424D01*
X331713Y259603D01*
X331664Y259783D01*
X331619Y259965D01*
X331578Y260147D01*
X331542Y260331D01*
X331510Y260515D01*
X331483Y260700D01*
X331460Y260885D01*
X331442Y261072D01*
X331428Y261258D01*
X331419Y261445D01*
X331415Y261632D01*
X331415Y261818D01*
X331419Y262005D01*
X331428Y262192D01*
X331442Y262378D01*
X331460Y262565D01*
X331483Y262750D01*
X331510Y262935D01*
X331542Y263119D01*
X331578Y263303D01*
X331619Y263485D01*
X331664Y263667D01*
X331713Y263847D01*
X331767Y264026D01*
X331825Y264203D01*
X331888Y264380D01*
X331954Y264554D01*
X332025Y264727D01*
X332101Y264898D01*
X332180Y265068D01*
X332263Y265235D01*
X332351Y265400D01*
X332442Y265563D01*
X332538Y265724D01*
X332637Y265882D01*
X332740Y266038D01*
X332847Y266191D01*
X332958Y266342D01*
X333072Y266490D01*
X333190Y266635D01*
X333311Y266777D01*
X333436Y266917D01*
X333564Y267053D01*
X333695Y267186D01*
X333830Y267315D01*
X333968Y267442D01*
X334108Y267565D01*
X334252Y267684D01*
X334399Y267801D01*
X334548Y267913D01*
X334700Y268022D01*
X334855Y268127D01*
X335012Y268228D01*
X335171Y268325D01*
X335333Y268419D01*
X335497Y268508D01*
X335664Y268594D01*
X335832Y268675D01*
X336002Y268752D01*
X336174Y268826D01*
X336348Y268895D01*
X336523Y268959D01*
X336700Y269020D01*
X336879Y269076D01*
X337058Y269127D01*
X337239Y269174D01*
X337421Y269217D01*
X337604Y269256D01*
X337788Y269290D01*
X337972Y269319D01*
X338158Y269344D01*
X338343Y269365D01*
X338530Y269381D01*
X338716Y269392D01*
X338903Y269399D01*
X339090Y269401D01*
X296418Y178562D02*
X280162Y178562D01*
X287387Y183981D02*
X296418Y178562D01*
X287387Y183981D02*
X296418Y189399D01*
X280162Y189399D01*
X286484Y199608D02*
X286484Y203672D01*
X286484Y199608D02*
X286482Y199496D01*
X286476Y199385D01*
X286466Y199274D01*
X286453Y199163D01*
X286435Y199053D01*
X286413Y198944D01*
X286388Y198835D01*
X286359Y198727D01*
X286326Y198621D01*
X286289Y198515D01*
X286249Y198411D01*
X286205Y198309D01*
X286157Y198208D01*
X286106Y198109D01*
X286051Y198011D01*
X285993Y197916D01*
X285932Y197823D01*
X285867Y197732D01*
X285799Y197643D01*
X285728Y197557D01*
X285655Y197474D01*
X285578Y197393D01*
X285498Y197314D01*
X285416Y197239D01*
X285331Y197167D01*
X285244Y197097D01*
X285154Y197031D01*
X285062Y196968D01*
X284967Y196908D01*
X284871Y196852D01*
X284773Y196799D01*
X284673Y196750D01*
X284571Y196704D01*
X284468Y196662D01*
X284363Y196623D01*
X284257Y196588D01*
X284150Y196557D01*
X284042Y196530D01*
X283933Y196506D01*
X283823Y196487D01*
X283713Y196471D01*
X283602Y196459D01*
X283490Y196451D01*
X283379Y196447D01*
X283267Y196447D01*
X283156Y196451D01*
X283044Y196459D01*
X282933Y196471D01*
X282823Y196487D01*
X282713Y196506D01*
X282604Y196530D01*
X282496Y196557D01*
X282389Y196588D01*
X282283Y196623D01*
X282178Y196662D01*
X282075Y196704D01*
X281973Y196750D01*
X281873Y196799D01*
X281775Y196852D01*
X281679Y196908D01*
X281584Y196968D01*
X281492Y197031D01*
X281402Y197097D01*
X281315Y197167D01*
X281230Y197239D01*
X281148Y197314D01*
X281068Y197393D01*
X280991Y197474D01*
X280918Y197557D01*
X280847Y197643D01*
X280779Y197732D01*
X280714Y197823D01*
X280653Y197916D01*
X280595Y198011D01*
X280540Y198109D01*
X280489Y198208D01*
X280441Y198309D01*
X280397Y198411D01*
X280357Y198515D01*
X280320Y198621D01*
X280287Y198727D01*
X280258Y198835D01*
X280233Y198944D01*
X280211Y199053D01*
X280193Y199163D01*
X280180Y199274D01*
X280170Y199385D01*
X280164Y199496D01*
X280162Y199608D01*
X280162Y203672D01*
X288290Y203672D01*
X288391Y203670D01*
X288492Y203664D01*
X288593Y203655D01*
X288694Y203642D01*
X288794Y203625D01*
X288893Y203604D01*
X288991Y203580D01*
X289088Y203552D01*
X289185Y203520D01*
X289280Y203485D01*
X289373Y203446D01*
X289465Y203404D01*
X289556Y203358D01*
X289645Y203309D01*
X289731Y203257D01*
X289816Y203201D01*
X289899Y203143D01*
X289979Y203081D01*
X290057Y203016D01*
X290133Y202949D01*
X290206Y202879D01*
X290276Y202806D01*
X290343Y202730D01*
X290408Y202652D01*
X290470Y202572D01*
X290528Y202489D01*
X290584Y202404D01*
X290636Y202318D01*
X290685Y202229D01*
X290731Y202138D01*
X290773Y202046D01*
X290812Y201953D01*
X290847Y201858D01*
X290879Y201761D01*
X290907Y201664D01*
X290931Y201566D01*
X290952Y201467D01*
X290969Y201367D01*
X290982Y201266D01*
X290991Y201165D01*
X290997Y201064D01*
X290999Y200963D01*
X290999Y197350D01*
X296418Y217740D02*
X280162Y217740D01*
X280162Y213225D01*
X280164Y213124D01*
X280170Y213023D01*
X280179Y212922D01*
X280192Y212821D01*
X280209Y212721D01*
X280230Y212622D01*
X280254Y212524D01*
X280282Y212427D01*
X280314Y212330D01*
X280349Y212235D01*
X280388Y212142D01*
X280430Y212050D01*
X280476Y211959D01*
X280525Y211871D01*
X280577Y211784D01*
X280633Y211699D01*
X280691Y211616D01*
X280753Y211536D01*
X280818Y211458D01*
X280885Y211382D01*
X280955Y211309D01*
X281028Y211239D01*
X281104Y211172D01*
X281182Y211107D01*
X281262Y211045D01*
X281345Y210987D01*
X281430Y210931D01*
X281517Y210879D01*
X281605Y210830D01*
X281696Y210784D01*
X281788Y210742D01*
X281881Y210703D01*
X281976Y210668D01*
X282073Y210636D01*
X282170Y210608D01*
X282268Y210584D01*
X282367Y210563D01*
X282467Y210546D01*
X282568Y210533D01*
X282669Y210524D01*
X282770Y210518D01*
X282871Y210516D01*
X282871Y210515D02*
X288290Y210515D01*
X288290Y210516D02*
X288391Y210518D01*
X288492Y210524D01*
X288593Y210533D01*
X288694Y210546D01*
X288794Y210563D01*
X288893Y210584D01*
X288991Y210608D01*
X289088Y210636D01*
X289185Y210668D01*
X289280Y210703D01*
X289373Y210742D01*
X289465Y210784D01*
X289556Y210830D01*
X289645Y210879D01*
X289731Y210931D01*
X289816Y210987D01*
X289899Y211045D01*
X289979Y211107D01*
X290057Y211172D01*
X290133Y211239D01*
X290206Y211309D01*
X290276Y211382D01*
X290343Y211458D01*
X290408Y211536D01*
X290470Y211616D01*
X290528Y211699D01*
X290584Y211784D01*
X290636Y211870D01*
X290685Y211959D01*
X290731Y212050D01*
X290773Y212142D01*
X290812Y212235D01*
X290847Y212330D01*
X290879Y212427D01*
X290907Y212524D01*
X290931Y212622D01*
X290952Y212721D01*
X290969Y212821D01*
X290982Y212922D01*
X290991Y213023D01*
X290997Y213124D01*
X290999Y213225D01*
X290999Y217740D01*
X280162Y227366D02*
X280162Y231882D01*
X280162Y227366D02*
X280164Y227265D01*
X280170Y227164D01*
X280179Y227063D01*
X280192Y226962D01*
X280209Y226862D01*
X280230Y226763D01*
X280254Y226665D01*
X280282Y226568D01*
X280314Y226471D01*
X280349Y226376D01*
X280388Y226283D01*
X280430Y226191D01*
X280476Y226100D01*
X280525Y226012D01*
X280577Y225925D01*
X280633Y225840D01*
X280691Y225757D01*
X280753Y225677D01*
X280818Y225599D01*
X280885Y225523D01*
X280955Y225450D01*
X281028Y225380D01*
X281104Y225313D01*
X281182Y225248D01*
X281262Y225186D01*
X281345Y225128D01*
X281430Y225072D01*
X281517Y225020D01*
X281605Y224971D01*
X281696Y224925D01*
X281788Y224883D01*
X281881Y224844D01*
X281976Y224809D01*
X282073Y224777D01*
X282170Y224749D01*
X282268Y224725D01*
X282367Y224704D01*
X282467Y224687D01*
X282568Y224674D01*
X282669Y224665D01*
X282770Y224659D01*
X282871Y224657D01*
X287387Y224657D01*
X287506Y224659D01*
X287626Y224665D01*
X287745Y224675D01*
X287863Y224689D01*
X287982Y224706D01*
X288099Y224728D01*
X288216Y224753D01*
X288331Y224783D01*
X288446Y224816D01*
X288560Y224853D01*
X288672Y224893D01*
X288783Y224938D01*
X288892Y224986D01*
X289000Y225037D01*
X289106Y225092D01*
X289210Y225151D01*
X289312Y225213D01*
X289412Y225278D01*
X289510Y225347D01*
X289606Y225419D01*
X289699Y225494D01*
X289789Y225571D01*
X289877Y225652D01*
X289962Y225736D01*
X290044Y225823D01*
X290124Y225912D01*
X290200Y226004D01*
X290274Y226098D01*
X290344Y226195D01*
X290411Y226293D01*
X290475Y226394D01*
X290535Y226498D01*
X290592Y226603D01*
X290645Y226710D01*
X290695Y226818D01*
X290741Y226928D01*
X290783Y227040D01*
X290822Y227153D01*
X290857Y227267D01*
X290888Y227382D01*
X290916Y227499D01*
X290939Y227616D01*
X290959Y227733D01*
X290975Y227852D01*
X290987Y227971D01*
X290995Y228090D01*
X290999Y228209D01*
X290999Y228329D01*
X290995Y228448D01*
X290987Y228567D01*
X290975Y228686D01*
X290959Y228805D01*
X290939Y228922D01*
X290916Y229039D01*
X290888Y229156D01*
X290857Y229271D01*
X290822Y229385D01*
X290783Y229498D01*
X290741Y229610D01*
X290695Y229720D01*
X290645Y229828D01*
X290592Y229935D01*
X290535Y230040D01*
X290475Y230144D01*
X290411Y230245D01*
X290344Y230343D01*
X290274Y230440D01*
X290200Y230534D01*
X290124Y230626D01*
X290044Y230715D01*
X289962Y230802D01*
X289877Y230886D01*
X289789Y230967D01*
X289699Y231044D01*
X289606Y231119D01*
X289510Y231191D01*
X289412Y231260D01*
X289312Y231325D01*
X289210Y231387D01*
X289106Y231446D01*
X289000Y231501D01*
X288892Y231552D01*
X288783Y231600D01*
X288672Y231645D01*
X288560Y231685D01*
X288446Y231722D01*
X288331Y231755D01*
X288216Y231785D01*
X288099Y231810D01*
X287982Y231832D01*
X287863Y231849D01*
X287745Y231863D01*
X287626Y231873D01*
X287506Y231879D01*
X287387Y231881D01*
X287387Y231882D02*
X285581Y231882D01*
X285581Y224657D01*
X280162Y247135D02*
X296418Y247135D01*
X280162Y247135D02*
X280162Y251650D01*
X280164Y251754D01*
X280170Y251857D01*
X280180Y251961D01*
X280194Y252064D01*
X280212Y252166D01*
X280233Y252267D01*
X280259Y252368D01*
X280288Y252467D01*
X280321Y252566D01*
X280358Y252663D01*
X280399Y252758D01*
X280443Y252852D01*
X280491Y252944D01*
X280542Y253034D01*
X280597Y253123D01*
X280655Y253209D01*
X280717Y253292D01*
X280781Y253374D01*
X280849Y253452D01*
X280919Y253528D01*
X280992Y253602D01*
X281069Y253672D01*
X281147Y253740D01*
X281229Y253804D01*
X281312Y253866D01*
X281398Y253924D01*
X281487Y253979D01*
X281577Y254030D01*
X281669Y254078D01*
X281763Y254122D01*
X281858Y254163D01*
X281955Y254200D01*
X282054Y254233D01*
X282153Y254262D01*
X282254Y254288D01*
X282355Y254309D01*
X282457Y254327D01*
X282560Y254341D01*
X282664Y254351D01*
X282767Y254357D01*
X282871Y254359D01*
X282871Y254360D02*
X288290Y254360D01*
X288290Y254359D02*
X288391Y254357D01*
X288492Y254351D01*
X288593Y254342D01*
X288694Y254329D01*
X288794Y254312D01*
X288893Y254291D01*
X288991Y254267D01*
X289088Y254239D01*
X289185Y254207D01*
X289280Y254172D01*
X289373Y254133D01*
X289465Y254091D01*
X289556Y254045D01*
X289645Y253996D01*
X289731Y253944D01*
X289816Y253888D01*
X289899Y253830D01*
X289979Y253768D01*
X290057Y253703D01*
X290133Y253636D01*
X290206Y253566D01*
X290276Y253493D01*
X290343Y253417D01*
X290408Y253339D01*
X290470Y253259D01*
X290528Y253176D01*
X290584Y253091D01*
X290636Y253005D01*
X290685Y252916D01*
X290731Y252825D01*
X290773Y252733D01*
X290812Y252640D01*
X290847Y252545D01*
X290879Y252448D01*
X290907Y252351D01*
X290931Y252253D01*
X290952Y252154D01*
X290969Y252054D01*
X290982Y251953D01*
X290991Y251852D01*
X290997Y251751D01*
X290999Y251650D01*
X290999Y247135D01*
X274743Y260087D02*
X274743Y261894D01*
X290999Y267312D01*
X290999Y260087D02*
X280162Y263700D01*
X280162Y285062D02*
X296418Y285062D01*
X296418Y280547D02*
X296418Y289578D01*
X296418Y295518D02*
X280162Y295518D01*
X290999Y295518D02*
X290999Y300034D01*
X290997Y300135D01*
X290991Y300236D01*
X290982Y300337D01*
X290969Y300438D01*
X290952Y300538D01*
X290931Y300637D01*
X290907Y300735D01*
X290879Y300832D01*
X290847Y300929D01*
X290812Y301024D01*
X290773Y301117D01*
X290731Y301209D01*
X290685Y301300D01*
X290636Y301389D01*
X290584Y301475D01*
X290528Y301560D01*
X290470Y301643D01*
X290408Y301723D01*
X290343Y301801D01*
X290276Y301877D01*
X290206Y301950D01*
X290133Y302020D01*
X290057Y302087D01*
X289979Y302152D01*
X289899Y302214D01*
X289816Y302272D01*
X289731Y302328D01*
X289645Y302380D01*
X289556Y302429D01*
X289465Y302475D01*
X289373Y302517D01*
X289280Y302556D01*
X289185Y302591D01*
X289088Y302623D01*
X288991Y302651D01*
X288893Y302675D01*
X288794Y302696D01*
X288694Y302713D01*
X288593Y302726D01*
X288492Y302735D01*
X288391Y302741D01*
X288290Y302743D01*
X280162Y302743D01*
X286484Y312674D02*
X286484Y316738D01*
X286484Y312674D02*
X286482Y312562D01*
X286476Y312451D01*
X286466Y312340D01*
X286453Y312229D01*
X286435Y312119D01*
X286413Y312010D01*
X286388Y311901D01*
X286359Y311793D01*
X286326Y311687D01*
X286289Y311581D01*
X286249Y311477D01*
X286205Y311375D01*
X286157Y311274D01*
X286106Y311175D01*
X286051Y311077D01*
X285993Y310982D01*
X285932Y310889D01*
X285867Y310798D01*
X285799Y310709D01*
X285728Y310623D01*
X285655Y310540D01*
X285578Y310459D01*
X285498Y310380D01*
X285416Y310305D01*
X285331Y310233D01*
X285244Y310163D01*
X285154Y310097D01*
X285062Y310034D01*
X284967Y309974D01*
X284871Y309918D01*
X284773Y309865D01*
X284673Y309816D01*
X284571Y309770D01*
X284468Y309728D01*
X284363Y309689D01*
X284257Y309654D01*
X284150Y309623D01*
X284042Y309596D01*
X283933Y309572D01*
X283823Y309553D01*
X283713Y309537D01*
X283602Y309525D01*
X283490Y309517D01*
X283379Y309513D01*
X283267Y309513D01*
X283156Y309517D01*
X283044Y309525D01*
X282933Y309537D01*
X282823Y309553D01*
X282713Y309572D01*
X282604Y309596D01*
X282496Y309623D01*
X282389Y309654D01*
X282283Y309689D01*
X282178Y309728D01*
X282075Y309770D01*
X281973Y309816D01*
X281873Y309865D01*
X281775Y309918D01*
X281679Y309974D01*
X281584Y310034D01*
X281492Y310097D01*
X281402Y310163D01*
X281315Y310233D01*
X281230Y310305D01*
X281148Y310380D01*
X281068Y310459D01*
X280991Y310540D01*
X280918Y310623D01*
X280847Y310709D01*
X280779Y310798D01*
X280714Y310889D01*
X280653Y310982D01*
X280595Y311077D01*
X280540Y311175D01*
X280489Y311274D01*
X280441Y311375D01*
X280397Y311477D01*
X280357Y311581D01*
X280320Y311687D01*
X280287Y311793D01*
X280258Y311901D01*
X280233Y312010D01*
X280211Y312119D01*
X280193Y312229D01*
X280180Y312340D01*
X280170Y312451D01*
X280164Y312562D01*
X280162Y312674D01*
X280162Y316738D01*
X288290Y316738D01*
X288391Y316736D01*
X288492Y316730D01*
X288593Y316721D01*
X288694Y316708D01*
X288794Y316691D01*
X288893Y316670D01*
X288991Y316646D01*
X289088Y316618D01*
X289185Y316586D01*
X289280Y316551D01*
X289373Y316512D01*
X289465Y316470D01*
X289556Y316424D01*
X289645Y316375D01*
X289731Y316323D01*
X289816Y316267D01*
X289899Y316209D01*
X289979Y316147D01*
X290057Y316082D01*
X290133Y316015D01*
X290206Y315945D01*
X290276Y315872D01*
X290343Y315796D01*
X290408Y315718D01*
X290470Y315638D01*
X290528Y315555D01*
X290584Y315470D01*
X290636Y315384D01*
X290685Y315295D01*
X290731Y315204D01*
X290773Y315112D01*
X290812Y315019D01*
X290847Y314924D01*
X290879Y314827D01*
X290907Y314730D01*
X290931Y314632D01*
X290952Y314533D01*
X290969Y314433D01*
X290982Y314332D01*
X290991Y314231D01*
X290997Y314130D01*
X290999Y314029D01*
X290999Y310416D01*
X290999Y323619D02*
X280162Y323619D01*
X295515Y323168D02*
X296418Y323168D01*
X296418Y324071D01*
X295515Y324071D01*
X295515Y323168D01*
X296418Y338903D02*
X280162Y338903D01*
X289193Y338903D02*
X289193Y347935D01*
X296418Y347935D02*
X280162Y347935D01*
X282871Y355438D02*
X290999Y355438D01*
X282871Y355438D02*
X282770Y355440D01*
X282669Y355446D01*
X282568Y355455D01*
X282467Y355468D01*
X282367Y355485D01*
X282268Y355506D01*
X282170Y355530D01*
X282073Y355558D01*
X281976Y355590D01*
X281881Y355625D01*
X281788Y355664D01*
X281696Y355706D01*
X281605Y355752D01*
X281517Y355801D01*
X281430Y355853D01*
X281345Y355909D01*
X281262Y355967D01*
X281182Y356029D01*
X281104Y356094D01*
X281028Y356161D01*
X280955Y356231D01*
X280885Y356304D01*
X280818Y356380D01*
X280753Y356458D01*
X280691Y356538D01*
X280633Y356621D01*
X280577Y356706D01*
X280525Y356793D01*
X280476Y356881D01*
X280430Y356972D01*
X280388Y357064D01*
X280349Y357157D01*
X280314Y357252D01*
X280282Y357349D01*
X280254Y357446D01*
X280230Y357544D01*
X280209Y357643D01*
X280192Y357743D01*
X280179Y357844D01*
X280170Y357945D01*
X280164Y358046D01*
X280162Y358147D01*
X280162Y362663D01*
X290999Y362663D01*
X290999Y370305D02*
X280162Y370305D01*
X290999Y370305D02*
X290999Y378433D01*
X290997Y378534D01*
X290991Y378635D01*
X290982Y378736D01*
X290969Y378837D01*
X290952Y378937D01*
X290931Y379036D01*
X290907Y379134D01*
X290879Y379231D01*
X290847Y379328D01*
X290812Y379423D01*
X290773Y379516D01*
X290731Y379608D01*
X290685Y379699D01*
X290636Y379788D01*
X290584Y379874D01*
X290528Y379959D01*
X290470Y380042D01*
X290408Y380122D01*
X290343Y380200D01*
X290276Y380276D01*
X290206Y380349D01*
X290133Y380419D01*
X290057Y380486D01*
X289979Y380551D01*
X289899Y380613D01*
X289816Y380671D01*
X289731Y380727D01*
X289645Y380779D01*
X289556Y380828D01*
X289465Y380874D01*
X289373Y380916D01*
X289280Y380955D01*
X289185Y380990D01*
X289088Y381022D01*
X288991Y381050D01*
X288893Y381074D01*
X288794Y381095D01*
X288694Y381112D01*
X288593Y381125D01*
X288492Y381134D01*
X288391Y381140D01*
X288290Y381142D01*
X280162Y381142D01*
X280162Y375724D02*
X290999Y375724D01*
X286484Y391351D02*
X286484Y395415D01*
X286484Y391351D02*
X286482Y391239D01*
X286476Y391128D01*
X286466Y391017D01*
X286453Y390906D01*
X286435Y390796D01*
X286413Y390687D01*
X286388Y390578D01*
X286359Y390470D01*
X286326Y390364D01*
X286289Y390258D01*
X286249Y390154D01*
X286205Y390052D01*
X286157Y389951D01*
X286106Y389852D01*
X286051Y389754D01*
X285993Y389659D01*
X285932Y389566D01*
X285867Y389475D01*
X285799Y389386D01*
X285728Y389300D01*
X285655Y389217D01*
X285578Y389136D01*
X285498Y389057D01*
X285416Y388982D01*
X285331Y388910D01*
X285244Y388840D01*
X285154Y388774D01*
X285062Y388711D01*
X284967Y388651D01*
X284871Y388595D01*
X284773Y388542D01*
X284673Y388493D01*
X284571Y388447D01*
X284468Y388405D01*
X284363Y388366D01*
X284257Y388331D01*
X284150Y388300D01*
X284042Y388273D01*
X283933Y388249D01*
X283823Y388230D01*
X283713Y388214D01*
X283602Y388202D01*
X283490Y388194D01*
X283379Y388190D01*
X283267Y388190D01*
X283156Y388194D01*
X283044Y388202D01*
X282933Y388214D01*
X282823Y388230D01*
X282713Y388249D01*
X282604Y388273D01*
X282496Y388300D01*
X282389Y388331D01*
X282283Y388366D01*
X282178Y388405D01*
X282075Y388447D01*
X281973Y388493D01*
X281873Y388542D01*
X281775Y388595D01*
X281679Y388651D01*
X281584Y388711D01*
X281492Y388774D01*
X281402Y388840D01*
X281315Y388910D01*
X281230Y388982D01*
X281148Y389057D01*
X281068Y389136D01*
X280991Y389217D01*
X280918Y389300D01*
X280847Y389386D01*
X280779Y389475D01*
X280714Y389566D01*
X280653Y389659D01*
X280595Y389754D01*
X280540Y389852D01*
X280489Y389951D01*
X280441Y390052D01*
X280397Y390154D01*
X280357Y390258D01*
X280320Y390364D01*
X280287Y390470D01*
X280258Y390578D01*
X280233Y390687D01*
X280211Y390796D01*
X280193Y390906D01*
X280180Y391017D01*
X280170Y391128D01*
X280164Y391239D01*
X280162Y391351D01*
X280162Y395415D01*
X288290Y395415D01*
X288391Y395413D01*
X288492Y395407D01*
X288593Y395398D01*
X288694Y395385D01*
X288794Y395368D01*
X288893Y395347D01*
X288991Y395323D01*
X289088Y395295D01*
X289185Y395263D01*
X289280Y395228D01*
X289373Y395189D01*
X289465Y395147D01*
X289556Y395101D01*
X289645Y395052D01*
X289731Y395000D01*
X289816Y394944D01*
X289899Y394886D01*
X289979Y394824D01*
X290057Y394759D01*
X290133Y394692D01*
X290206Y394622D01*
X290276Y394549D01*
X290343Y394473D01*
X290408Y394395D01*
X290470Y394315D01*
X290528Y394232D01*
X290584Y394147D01*
X290636Y394061D01*
X290685Y393972D01*
X290731Y393881D01*
X290773Y393789D01*
X290812Y393696D01*
X290847Y393601D01*
X290879Y393504D01*
X290907Y393407D01*
X290931Y393309D01*
X290952Y393210D01*
X290969Y393110D01*
X290982Y393009D01*
X290991Y392908D01*
X290997Y392807D01*
X290999Y392706D01*
X290999Y389093D01*
X290999Y402853D02*
X280162Y402853D01*
X290999Y402853D02*
X290999Y407368D01*
X290997Y407469D01*
X290991Y407570D01*
X290982Y407671D01*
X290969Y407772D01*
X290952Y407872D01*
X290931Y407971D01*
X290907Y408069D01*
X290879Y408166D01*
X290847Y408263D01*
X290812Y408358D01*
X290773Y408451D01*
X290731Y408543D01*
X290685Y408634D01*
X290636Y408723D01*
X290584Y408809D01*
X290528Y408894D01*
X290470Y408977D01*
X290408Y409057D01*
X290343Y409135D01*
X290276Y409211D01*
X290206Y409284D01*
X290133Y409354D01*
X290057Y409421D01*
X289979Y409486D01*
X289899Y409548D01*
X289816Y409606D01*
X289731Y409662D01*
X289645Y409714D01*
X289556Y409763D01*
X289465Y409809D01*
X289373Y409851D01*
X289280Y409890D01*
X289185Y409925D01*
X289088Y409957D01*
X288991Y409985D01*
X288893Y410009D01*
X288794Y410030D01*
X288694Y410047D01*
X288593Y410060D01*
X288492Y410069D01*
X288391Y410075D01*
X288290Y410077D01*
X280162Y410077D01*
X258318Y178562D02*
X242062Y178562D01*
X258318Y178562D02*
X258318Y183078D01*
X258316Y183211D01*
X258310Y183343D01*
X258300Y183475D01*
X258287Y183607D01*
X258269Y183739D01*
X258248Y183869D01*
X258223Y184000D01*
X258194Y184129D01*
X258161Y184257D01*
X258125Y184385D01*
X258085Y184511D01*
X258041Y184636D01*
X257993Y184760D01*
X257942Y184882D01*
X257887Y185003D01*
X257829Y185122D01*
X257767Y185240D01*
X257702Y185355D01*
X257633Y185469D01*
X257562Y185580D01*
X257486Y185689D01*
X257408Y185796D01*
X257327Y185901D01*
X257242Y186003D01*
X257155Y186103D01*
X257065Y186200D01*
X256972Y186295D01*
X256876Y186386D01*
X256778Y186475D01*
X256677Y186561D01*
X256573Y186644D01*
X256467Y186724D01*
X256359Y186800D01*
X256249Y186874D01*
X256136Y186944D01*
X256022Y187011D01*
X255905Y187074D01*
X255787Y187134D01*
X255667Y187191D01*
X255545Y187244D01*
X255422Y187293D01*
X255298Y187339D01*
X255172Y187381D01*
X255045Y187419D01*
X254917Y187454D01*
X254788Y187485D01*
X254659Y187512D01*
X254528Y187535D01*
X254397Y187555D01*
X254265Y187570D01*
X254133Y187582D01*
X254001Y187590D01*
X253868Y187594D01*
X253736Y187594D01*
X253603Y187590D01*
X253471Y187582D01*
X253339Y187570D01*
X253207Y187555D01*
X253076Y187535D01*
X252945Y187512D01*
X252816Y187485D01*
X252687Y187454D01*
X252559Y187419D01*
X252432Y187381D01*
X252306Y187339D01*
X252182Y187293D01*
X252059Y187244D01*
X251937Y187191D01*
X251817Y187134D01*
X251699Y187074D01*
X251582Y187011D01*
X251468Y186944D01*
X251355Y186874D01*
X251245Y186800D01*
X251137Y186724D01*
X251031Y186644D01*
X250927Y186561D01*
X250826Y186475D01*
X250728Y186386D01*
X250632Y186295D01*
X250539Y186200D01*
X250449Y186103D01*
X250362Y186003D01*
X250277Y185901D01*
X250196Y185796D01*
X250118Y185689D01*
X250042Y185580D01*
X249971Y185469D01*
X249902Y185355D01*
X249837Y185240D01*
X249775Y185122D01*
X249717Y185003D01*
X249662Y184882D01*
X249611Y184760D01*
X249563Y184636D01*
X249519Y184511D01*
X249479Y184385D01*
X249443Y184257D01*
X249410Y184129D01*
X249381Y184000D01*
X249356Y183869D01*
X249335Y183739D01*
X249317Y183607D01*
X249304Y183475D01*
X249294Y183343D01*
X249288Y183211D01*
X249286Y183078D01*
X249287Y183078D02*
X249287Y178562D01*
X249287Y183981D02*
X242062Y187593D01*
X242062Y194623D02*
X258318Y194623D01*
X242062Y203654D01*
X258318Y203654D01*
X258318Y215742D02*
X258316Y215867D01*
X258310Y215992D01*
X258301Y216117D01*
X258287Y216241D01*
X258270Y216365D01*
X258249Y216489D01*
X258224Y216611D01*
X258195Y216733D01*
X258163Y216854D01*
X258127Y216974D01*
X258087Y217093D01*
X258044Y217210D01*
X257997Y217326D01*
X257946Y217441D01*
X257892Y217553D01*
X257834Y217665D01*
X257774Y217774D01*
X257709Y217881D01*
X257642Y217987D01*
X257571Y218090D01*
X257497Y218191D01*
X257420Y218290D01*
X257340Y218386D01*
X257257Y218480D01*
X257172Y218571D01*
X257083Y218660D01*
X256992Y218745D01*
X256898Y218828D01*
X256802Y218908D01*
X256703Y218985D01*
X256602Y219059D01*
X256499Y219130D01*
X256393Y219197D01*
X256286Y219262D01*
X256177Y219322D01*
X256065Y219380D01*
X255953Y219434D01*
X255838Y219485D01*
X255722Y219532D01*
X255605Y219575D01*
X255486Y219615D01*
X255366Y219651D01*
X255245Y219683D01*
X255123Y219712D01*
X255001Y219737D01*
X254877Y219758D01*
X254753Y219775D01*
X254629Y219789D01*
X254504Y219798D01*
X254379Y219804D01*
X254254Y219806D01*
X258318Y215742D02*
X258316Y215599D01*
X258310Y215457D01*
X258300Y215314D01*
X258287Y215172D01*
X258269Y215031D01*
X258248Y214889D01*
X258223Y214749D01*
X258194Y214609D01*
X258161Y214470D01*
X258124Y214332D01*
X258084Y214195D01*
X258040Y214060D01*
X257992Y213925D01*
X257940Y213792D01*
X257885Y213660D01*
X257826Y213530D01*
X257764Y213402D01*
X257698Y213275D01*
X257629Y213150D01*
X257557Y213027D01*
X257481Y212907D01*
X257402Y212788D01*
X257319Y212671D01*
X257234Y212557D01*
X257145Y212445D01*
X257054Y212336D01*
X256959Y212229D01*
X256862Y212124D01*
X256761Y212023D01*
X256658Y211924D01*
X256553Y211828D01*
X256444Y211735D01*
X256333Y211645D01*
X256220Y211558D01*
X256105Y211474D01*
X255987Y211394D01*
X255867Y211316D01*
X255745Y211242D01*
X255621Y211172D01*
X255495Y211104D01*
X255367Y211041D01*
X255238Y210980D01*
X255107Y210923D01*
X254975Y210870D01*
X254841Y210821D01*
X254706Y210775D01*
X251093Y218451D02*
X251185Y218545D01*
X251279Y218635D01*
X251376Y218723D01*
X251476Y218808D01*
X251578Y218890D01*
X251683Y218969D01*
X251790Y219044D01*
X251899Y219116D01*
X252010Y219185D01*
X252124Y219251D01*
X252239Y219313D01*
X252356Y219372D01*
X252475Y219427D01*
X252595Y219478D01*
X252717Y219526D01*
X252840Y219571D01*
X252964Y219611D01*
X253090Y219648D01*
X253217Y219681D01*
X253344Y219710D01*
X253473Y219736D01*
X253602Y219757D01*
X253732Y219775D01*
X253862Y219788D01*
X253992Y219798D01*
X254123Y219804D01*
X254254Y219806D01*
X251093Y218451D02*
X242062Y210775D01*
X242062Y219806D01*
X242062Y225746D02*
X252899Y232971D01*
X252899Y225746D02*
X242062Y232971D01*
X242062Y238251D02*
X252899Y245476D01*
X252899Y238251D02*
X242062Y245476D01*
X242062Y251416D02*
X242062Y255932D01*
X242064Y256065D01*
X242070Y256197D01*
X242080Y256329D01*
X242093Y256461D01*
X242111Y256593D01*
X242132Y256723D01*
X242157Y256854D01*
X242186Y256983D01*
X242219Y257111D01*
X242255Y257239D01*
X242295Y257365D01*
X242339Y257490D01*
X242387Y257614D01*
X242438Y257736D01*
X242493Y257857D01*
X242551Y257976D01*
X242613Y258094D01*
X242678Y258209D01*
X242747Y258323D01*
X242818Y258434D01*
X242894Y258543D01*
X242972Y258650D01*
X243053Y258755D01*
X243138Y258857D01*
X243225Y258957D01*
X243315Y259054D01*
X243408Y259149D01*
X243504Y259240D01*
X243602Y259329D01*
X243703Y259415D01*
X243807Y259498D01*
X243913Y259578D01*
X244021Y259654D01*
X244131Y259728D01*
X244244Y259798D01*
X244358Y259865D01*
X244475Y259928D01*
X244593Y259988D01*
X244713Y260045D01*
X244835Y260098D01*
X244958Y260147D01*
X245082Y260193D01*
X245208Y260235D01*
X245335Y260273D01*
X245463Y260308D01*
X245592Y260339D01*
X245721Y260366D01*
X245852Y260389D01*
X245983Y260409D01*
X246115Y260424D01*
X246247Y260436D01*
X246379Y260444D01*
X246512Y260448D01*
X246644Y260448D01*
X246777Y260444D01*
X246909Y260436D01*
X247041Y260424D01*
X247173Y260409D01*
X247304Y260389D01*
X247435Y260366D01*
X247564Y260339D01*
X247693Y260308D01*
X247821Y260273D01*
X247948Y260235D01*
X248074Y260193D01*
X248198Y260147D01*
X248321Y260098D01*
X248443Y260045D01*
X248563Y259988D01*
X248681Y259928D01*
X248798Y259865D01*
X248912Y259798D01*
X249025Y259728D01*
X249135Y259654D01*
X249243Y259578D01*
X249349Y259498D01*
X249453Y259415D01*
X249554Y259329D01*
X249652Y259240D01*
X249748Y259149D01*
X249841Y259054D01*
X249931Y258957D01*
X250018Y258857D01*
X250103Y258755D01*
X250184Y258650D01*
X250262Y258543D01*
X250338Y258434D01*
X250409Y258323D01*
X250478Y258209D01*
X250543Y258094D01*
X250605Y257976D01*
X250663Y257857D01*
X250718Y257736D01*
X250769Y257614D01*
X250817Y257490D01*
X250861Y257365D01*
X250901Y257239D01*
X250937Y257111D01*
X250970Y256983D01*
X250999Y256854D01*
X251024Y256723D01*
X251045Y256593D01*
X251063Y256461D01*
X251076Y256329D01*
X251086Y256197D01*
X251092Y256065D01*
X251094Y255932D01*
X258318Y256835D02*
X258318Y251416D01*
X258318Y256835D02*
X258316Y256954D01*
X258310Y257074D01*
X258300Y257193D01*
X258286Y257311D01*
X258269Y257430D01*
X258247Y257547D01*
X258222Y257664D01*
X258192Y257779D01*
X258159Y257894D01*
X258122Y258008D01*
X258082Y258120D01*
X258037Y258231D01*
X257989Y258340D01*
X257938Y258448D01*
X257883Y258554D01*
X257824Y258658D01*
X257762Y258760D01*
X257697Y258860D01*
X257628Y258958D01*
X257556Y259054D01*
X257481Y259147D01*
X257404Y259237D01*
X257323Y259325D01*
X257239Y259410D01*
X257152Y259492D01*
X257063Y259572D01*
X256971Y259648D01*
X256877Y259722D01*
X256780Y259792D01*
X256682Y259859D01*
X256581Y259923D01*
X256477Y259983D01*
X256372Y260040D01*
X256265Y260093D01*
X256157Y260143D01*
X256047Y260189D01*
X255935Y260231D01*
X255822Y260270D01*
X255708Y260305D01*
X255593Y260336D01*
X255476Y260364D01*
X255359Y260387D01*
X255242Y260407D01*
X255123Y260423D01*
X255004Y260435D01*
X254885Y260443D01*
X254766Y260447D01*
X254646Y260447D01*
X254527Y260443D01*
X254408Y260435D01*
X254289Y260423D01*
X254170Y260407D01*
X254053Y260387D01*
X253936Y260364D01*
X253819Y260336D01*
X253704Y260305D01*
X253590Y260270D01*
X253477Y260231D01*
X253365Y260189D01*
X253255Y260143D01*
X253147Y260093D01*
X253040Y260040D01*
X252935Y259983D01*
X252831Y259923D01*
X252730Y259859D01*
X252632Y259792D01*
X252535Y259722D01*
X252441Y259648D01*
X252349Y259572D01*
X252260Y259492D01*
X252173Y259410D01*
X252089Y259325D01*
X252008Y259237D01*
X251931Y259147D01*
X251856Y259054D01*
X251784Y258958D01*
X251715Y258860D01*
X251650Y258760D01*
X251588Y258658D01*
X251529Y258554D01*
X251474Y258448D01*
X251423Y258340D01*
X251375Y258231D01*
X251330Y258120D01*
X251290Y258008D01*
X251253Y257894D01*
X251220Y257779D01*
X251190Y257664D01*
X251165Y257547D01*
X251143Y257430D01*
X251126Y257311D01*
X251112Y257193D01*
X251102Y257074D01*
X251096Y256954D01*
X251094Y256835D01*
X251093Y256835D02*
X251093Y253222D01*
X251093Y276116D02*
X251093Y280632D01*
X251094Y280632D02*
X251092Y280765D01*
X251086Y280897D01*
X251076Y281029D01*
X251063Y281161D01*
X251045Y281293D01*
X251024Y281423D01*
X250999Y281554D01*
X250970Y281683D01*
X250937Y281811D01*
X250901Y281939D01*
X250861Y282065D01*
X250817Y282190D01*
X250769Y282314D01*
X250718Y282436D01*
X250663Y282557D01*
X250605Y282676D01*
X250543Y282794D01*
X250478Y282909D01*
X250409Y283023D01*
X250338Y283134D01*
X250262Y283243D01*
X250184Y283350D01*
X250103Y283455D01*
X250018Y283557D01*
X249931Y283657D01*
X249841Y283754D01*
X249748Y283849D01*
X249652Y283940D01*
X249554Y284029D01*
X249453Y284115D01*
X249349Y284198D01*
X249243Y284278D01*
X249135Y284354D01*
X249025Y284428D01*
X248912Y284498D01*
X248798Y284565D01*
X248681Y284628D01*
X248563Y284688D01*
X248443Y284745D01*
X248321Y284798D01*
X248198Y284847D01*
X248074Y284893D01*
X247948Y284935D01*
X247821Y284973D01*
X247693Y285008D01*
X247564Y285039D01*
X247435Y285066D01*
X247304Y285089D01*
X247173Y285109D01*
X247041Y285124D01*
X246909Y285136D01*
X246777Y285144D01*
X246644Y285148D01*
X246512Y285148D01*
X246379Y285144D01*
X246247Y285136D01*
X246115Y285124D01*
X245983Y285109D01*
X245852Y285089D01*
X245721Y285066D01*
X245592Y285039D01*
X245463Y285008D01*
X245335Y284973D01*
X245208Y284935D01*
X245082Y284893D01*
X244958Y284847D01*
X244835Y284798D01*
X244713Y284745D01*
X244593Y284688D01*
X244475Y284628D01*
X244358Y284565D01*
X244244Y284498D01*
X244131Y284428D01*
X244021Y284354D01*
X243913Y284278D01*
X243807Y284198D01*
X243703Y284115D01*
X243602Y284029D01*
X243504Y283940D01*
X243408Y283849D01*
X243315Y283754D01*
X243225Y283657D01*
X243138Y283557D01*
X243053Y283455D01*
X242972Y283350D01*
X242894Y283243D01*
X242818Y283134D01*
X242747Y283023D01*
X242678Y282909D01*
X242613Y282794D01*
X242551Y282676D01*
X242493Y282557D01*
X242438Y282436D01*
X242387Y282314D01*
X242339Y282190D01*
X242295Y282065D01*
X242255Y281939D01*
X242219Y281811D01*
X242186Y281683D01*
X242157Y281554D01*
X242132Y281423D01*
X242111Y281293D01*
X242093Y281161D01*
X242080Y281029D01*
X242070Y280897D01*
X242064Y280765D01*
X242062Y280632D01*
X242062Y276116D01*
X258318Y276116D01*
X258318Y280632D01*
X258316Y280751D01*
X258310Y280871D01*
X258300Y280990D01*
X258286Y281108D01*
X258269Y281227D01*
X258247Y281344D01*
X258222Y281461D01*
X258192Y281576D01*
X258159Y281691D01*
X258122Y281805D01*
X258082Y281917D01*
X258037Y282028D01*
X257989Y282137D01*
X257938Y282245D01*
X257883Y282351D01*
X257824Y282455D01*
X257762Y282557D01*
X257697Y282657D01*
X257628Y282755D01*
X257556Y282851D01*
X257481Y282944D01*
X257404Y283034D01*
X257323Y283122D01*
X257239Y283207D01*
X257152Y283289D01*
X257063Y283369D01*
X256971Y283445D01*
X256877Y283519D01*
X256780Y283589D01*
X256682Y283656D01*
X256581Y283720D01*
X256477Y283780D01*
X256372Y283837D01*
X256265Y283890D01*
X256157Y283940D01*
X256047Y283986D01*
X255935Y284028D01*
X255822Y284067D01*
X255708Y284102D01*
X255593Y284133D01*
X255476Y284161D01*
X255359Y284184D01*
X255242Y284204D01*
X255123Y284220D01*
X255004Y284232D01*
X254885Y284240D01*
X254766Y284244D01*
X254646Y284244D01*
X254527Y284240D01*
X254408Y284232D01*
X254289Y284220D01*
X254170Y284204D01*
X254053Y284184D01*
X253936Y284161D01*
X253819Y284133D01*
X253704Y284102D01*
X253590Y284067D01*
X253477Y284028D01*
X253365Y283986D01*
X253255Y283940D01*
X253147Y283890D01*
X253040Y283837D01*
X252935Y283780D01*
X252831Y283720D01*
X252730Y283656D01*
X252632Y283589D01*
X252535Y283519D01*
X252441Y283445D01*
X252349Y283369D01*
X252260Y283289D01*
X252173Y283207D01*
X252089Y283122D01*
X252008Y283034D01*
X251931Y282944D01*
X251856Y282851D01*
X251784Y282755D01*
X251715Y282657D01*
X251650Y282557D01*
X251588Y282455D01*
X251529Y282351D01*
X251474Y282245D01*
X251423Y282137D01*
X251375Y282028D01*
X251330Y281917D01*
X251290Y281805D01*
X251253Y281691D01*
X251220Y281576D01*
X251190Y281461D01*
X251165Y281344D01*
X251143Y281227D01*
X251126Y281108D01*
X251112Y280990D01*
X251102Y280871D01*
X251096Y280751D01*
X251094Y280632D01*
X252899Y291482D02*
X242062Y291482D01*
X252899Y291482D02*
X252899Y296901D01*
X251093Y296901D01*
X242062Y304527D02*
X242062Y309043D01*
X242062Y304527D02*
X242064Y304426D01*
X242070Y304325D01*
X242079Y304224D01*
X242092Y304123D01*
X242109Y304023D01*
X242130Y303924D01*
X242154Y303826D01*
X242182Y303729D01*
X242214Y303632D01*
X242249Y303537D01*
X242288Y303444D01*
X242330Y303352D01*
X242376Y303261D01*
X242425Y303173D01*
X242477Y303086D01*
X242533Y303001D01*
X242591Y302918D01*
X242653Y302838D01*
X242718Y302760D01*
X242785Y302684D01*
X242855Y302611D01*
X242928Y302541D01*
X243004Y302474D01*
X243082Y302409D01*
X243162Y302347D01*
X243245Y302289D01*
X243330Y302233D01*
X243417Y302181D01*
X243505Y302132D01*
X243596Y302086D01*
X243688Y302044D01*
X243781Y302005D01*
X243876Y301970D01*
X243973Y301938D01*
X244070Y301910D01*
X244168Y301886D01*
X244267Y301865D01*
X244367Y301848D01*
X244468Y301835D01*
X244569Y301826D01*
X244670Y301820D01*
X244771Y301818D01*
X249287Y301818D01*
X249287Y301819D02*
X249406Y301821D01*
X249526Y301827D01*
X249645Y301837D01*
X249763Y301851D01*
X249882Y301868D01*
X249999Y301890D01*
X250116Y301915D01*
X250231Y301945D01*
X250346Y301978D01*
X250460Y302015D01*
X250572Y302055D01*
X250683Y302100D01*
X250792Y302148D01*
X250900Y302199D01*
X251006Y302254D01*
X251110Y302313D01*
X251212Y302375D01*
X251312Y302440D01*
X251410Y302509D01*
X251506Y302581D01*
X251599Y302656D01*
X251689Y302733D01*
X251777Y302814D01*
X251862Y302898D01*
X251944Y302985D01*
X252024Y303074D01*
X252100Y303166D01*
X252174Y303260D01*
X252244Y303357D01*
X252311Y303455D01*
X252375Y303556D01*
X252435Y303660D01*
X252492Y303765D01*
X252545Y303872D01*
X252595Y303980D01*
X252641Y304090D01*
X252683Y304202D01*
X252722Y304315D01*
X252757Y304429D01*
X252788Y304544D01*
X252816Y304661D01*
X252839Y304778D01*
X252859Y304895D01*
X252875Y305014D01*
X252887Y305133D01*
X252895Y305252D01*
X252899Y305371D01*
X252899Y305491D01*
X252895Y305610D01*
X252887Y305729D01*
X252875Y305848D01*
X252859Y305967D01*
X252839Y306084D01*
X252816Y306201D01*
X252788Y306318D01*
X252757Y306433D01*
X252722Y306547D01*
X252683Y306660D01*
X252641Y306772D01*
X252595Y306882D01*
X252545Y306990D01*
X252492Y307097D01*
X252435Y307202D01*
X252375Y307306D01*
X252311Y307407D01*
X252244Y307505D01*
X252174Y307602D01*
X252100Y307696D01*
X252024Y307788D01*
X251944Y307877D01*
X251862Y307964D01*
X251777Y308048D01*
X251689Y308129D01*
X251599Y308206D01*
X251506Y308281D01*
X251410Y308353D01*
X251312Y308422D01*
X251212Y308487D01*
X251110Y308549D01*
X251006Y308608D01*
X250900Y308663D01*
X250792Y308714D01*
X250683Y308762D01*
X250572Y308807D01*
X250460Y308847D01*
X250346Y308884D01*
X250231Y308917D01*
X250116Y308947D01*
X249999Y308972D01*
X249882Y308994D01*
X249763Y309011D01*
X249645Y309025D01*
X249526Y309035D01*
X249406Y309041D01*
X249287Y309043D01*
X247481Y309043D01*
X247481Y301818D01*
X248384Y318453D02*
X248384Y322517D01*
X248384Y318453D02*
X248382Y318341D01*
X248376Y318230D01*
X248366Y318119D01*
X248353Y318008D01*
X248335Y317898D01*
X248313Y317789D01*
X248288Y317680D01*
X248259Y317572D01*
X248226Y317466D01*
X248189Y317360D01*
X248149Y317256D01*
X248105Y317154D01*
X248057Y317053D01*
X248006Y316954D01*
X247951Y316856D01*
X247893Y316761D01*
X247832Y316668D01*
X247767Y316577D01*
X247699Y316488D01*
X247628Y316402D01*
X247555Y316319D01*
X247478Y316238D01*
X247398Y316159D01*
X247316Y316084D01*
X247231Y316012D01*
X247144Y315942D01*
X247054Y315876D01*
X246962Y315813D01*
X246867Y315753D01*
X246771Y315697D01*
X246673Y315644D01*
X246573Y315595D01*
X246471Y315549D01*
X246368Y315507D01*
X246263Y315468D01*
X246157Y315433D01*
X246050Y315402D01*
X245942Y315375D01*
X245833Y315351D01*
X245723Y315332D01*
X245613Y315316D01*
X245502Y315304D01*
X245390Y315296D01*
X245279Y315292D01*
X245167Y315292D01*
X245056Y315296D01*
X244944Y315304D01*
X244833Y315316D01*
X244723Y315332D01*
X244613Y315351D01*
X244504Y315375D01*
X244396Y315402D01*
X244289Y315433D01*
X244183Y315468D01*
X244078Y315507D01*
X243975Y315549D01*
X243873Y315595D01*
X243773Y315644D01*
X243675Y315697D01*
X243579Y315753D01*
X243484Y315813D01*
X243392Y315876D01*
X243302Y315942D01*
X243215Y316012D01*
X243130Y316084D01*
X243048Y316159D01*
X242968Y316238D01*
X242891Y316319D01*
X242818Y316402D01*
X242747Y316488D01*
X242679Y316577D01*
X242614Y316668D01*
X242553Y316761D01*
X242495Y316856D01*
X242440Y316954D01*
X242389Y317053D01*
X242341Y317154D01*
X242297Y317256D01*
X242257Y317360D01*
X242220Y317466D01*
X242187Y317572D01*
X242158Y317680D01*
X242133Y317789D01*
X242111Y317898D01*
X242093Y318008D01*
X242080Y318119D01*
X242070Y318230D01*
X242064Y318341D01*
X242062Y318453D01*
X242062Y322517D01*
X250190Y322517D01*
X250190Y322516D02*
X250291Y322514D01*
X250392Y322508D01*
X250493Y322499D01*
X250594Y322486D01*
X250694Y322469D01*
X250793Y322448D01*
X250891Y322424D01*
X250988Y322396D01*
X251085Y322364D01*
X251180Y322329D01*
X251273Y322290D01*
X251365Y322248D01*
X251456Y322202D01*
X251545Y322153D01*
X251631Y322101D01*
X251716Y322045D01*
X251799Y321987D01*
X251879Y321925D01*
X251957Y321860D01*
X252033Y321793D01*
X252106Y321723D01*
X252176Y321650D01*
X252243Y321574D01*
X252308Y321496D01*
X252370Y321416D01*
X252428Y321333D01*
X252484Y321248D01*
X252536Y321162D01*
X252585Y321073D01*
X252631Y320982D01*
X252673Y320890D01*
X252712Y320797D01*
X252747Y320702D01*
X252779Y320605D01*
X252807Y320508D01*
X252831Y320410D01*
X252852Y320311D01*
X252869Y320211D01*
X252882Y320110D01*
X252891Y320009D01*
X252897Y319908D01*
X252899Y319807D01*
X252899Y316195D01*
X258318Y330123D02*
X242062Y330123D01*
X247481Y330123D02*
X252899Y337348D01*
X249738Y333284D02*
X242062Y337348D01*
X245674Y342980D02*
X249287Y342980D01*
X249287Y342981D02*
X249406Y342983D01*
X249526Y342989D01*
X249645Y342999D01*
X249763Y343013D01*
X249882Y343030D01*
X249999Y343052D01*
X250116Y343077D01*
X250231Y343107D01*
X250346Y343140D01*
X250460Y343177D01*
X250572Y343217D01*
X250683Y343262D01*
X250792Y343310D01*
X250900Y343361D01*
X251006Y343416D01*
X251110Y343475D01*
X251212Y343537D01*
X251312Y343602D01*
X251410Y343671D01*
X251506Y343743D01*
X251599Y343818D01*
X251689Y343895D01*
X251777Y343976D01*
X251862Y344060D01*
X251944Y344147D01*
X252024Y344236D01*
X252100Y344328D01*
X252174Y344422D01*
X252244Y344519D01*
X252311Y344617D01*
X252375Y344718D01*
X252435Y344822D01*
X252492Y344927D01*
X252545Y345034D01*
X252595Y345142D01*
X252641Y345252D01*
X252683Y345364D01*
X252722Y345477D01*
X252757Y345591D01*
X252788Y345706D01*
X252816Y345823D01*
X252839Y345940D01*
X252859Y346057D01*
X252875Y346176D01*
X252887Y346295D01*
X252895Y346414D01*
X252899Y346533D01*
X252899Y346653D01*
X252895Y346772D01*
X252887Y346891D01*
X252875Y347010D01*
X252859Y347129D01*
X252839Y347246D01*
X252816Y347363D01*
X252788Y347480D01*
X252757Y347595D01*
X252722Y347709D01*
X252683Y347822D01*
X252641Y347934D01*
X252595Y348044D01*
X252545Y348152D01*
X252492Y348259D01*
X252435Y348364D01*
X252375Y348468D01*
X252311Y348569D01*
X252244Y348667D01*
X252174Y348764D01*
X252100Y348858D01*
X252024Y348950D01*
X251944Y349039D01*
X251862Y349126D01*
X251777Y349210D01*
X251689Y349291D01*
X251599Y349368D01*
X251506Y349443D01*
X251410Y349515D01*
X251312Y349584D01*
X251212Y349649D01*
X251110Y349711D01*
X251006Y349770D01*
X250900Y349825D01*
X250792Y349876D01*
X250683Y349924D01*
X250572Y349969D01*
X250460Y350009D01*
X250346Y350046D01*
X250231Y350079D01*
X250116Y350109D01*
X249999Y350134D01*
X249882Y350156D01*
X249763Y350173D01*
X249645Y350187D01*
X249526Y350197D01*
X249406Y350203D01*
X249287Y350205D01*
X245674Y350205D01*
X245555Y350203D01*
X245435Y350197D01*
X245316Y350187D01*
X245198Y350173D01*
X245079Y350156D01*
X244962Y350134D01*
X244845Y350109D01*
X244730Y350079D01*
X244615Y350046D01*
X244501Y350009D01*
X244389Y349969D01*
X244278Y349924D01*
X244169Y349876D01*
X244061Y349825D01*
X243955Y349770D01*
X243851Y349711D01*
X243749Y349649D01*
X243649Y349584D01*
X243551Y349515D01*
X243455Y349443D01*
X243362Y349368D01*
X243272Y349291D01*
X243184Y349210D01*
X243099Y349126D01*
X243017Y349039D01*
X242937Y348950D01*
X242861Y348858D01*
X242787Y348764D01*
X242717Y348667D01*
X242650Y348569D01*
X242586Y348468D01*
X242526Y348364D01*
X242469Y348259D01*
X242416Y348152D01*
X242366Y348044D01*
X242320Y347934D01*
X242278Y347822D01*
X242239Y347709D01*
X242204Y347595D01*
X242173Y347480D01*
X242145Y347363D01*
X242122Y347246D01*
X242102Y347129D01*
X242086Y347010D01*
X242074Y346891D01*
X242066Y346772D01*
X242062Y346653D01*
X242062Y346533D01*
X242066Y346414D01*
X242074Y346295D01*
X242086Y346176D01*
X242102Y346057D01*
X242122Y345940D01*
X242145Y345823D01*
X242173Y345706D01*
X242204Y345591D01*
X242239Y345477D01*
X242278Y345364D01*
X242320Y345252D01*
X242366Y345142D01*
X242416Y345034D01*
X242469Y344927D01*
X242526Y344822D01*
X242586Y344718D01*
X242650Y344617D01*
X242717Y344519D01*
X242787Y344422D01*
X242861Y344328D01*
X242937Y344236D01*
X243017Y344147D01*
X243099Y344060D01*
X243184Y343976D01*
X243272Y343895D01*
X243362Y343818D01*
X243455Y343743D01*
X243551Y343671D01*
X243649Y343602D01*
X243749Y343537D01*
X243851Y343475D01*
X243955Y343416D01*
X244061Y343361D01*
X244169Y343310D01*
X244278Y343262D01*
X244389Y343217D01*
X244501Y343177D01*
X244615Y343140D01*
X244730Y343107D01*
X244845Y343077D01*
X244962Y343052D01*
X245079Y343030D01*
X245198Y343013D01*
X245316Y342999D01*
X245435Y342989D01*
X245555Y342983D01*
X245674Y342981D01*
X244771Y357048D02*
X252899Y357048D01*
X244771Y357049D02*
X244670Y357051D01*
X244569Y357057D01*
X244468Y357066D01*
X244367Y357079D01*
X244267Y357096D01*
X244168Y357117D01*
X244070Y357141D01*
X243973Y357169D01*
X243876Y357201D01*
X243781Y357236D01*
X243688Y357275D01*
X243596Y357317D01*
X243505Y357363D01*
X243417Y357412D01*
X243330Y357464D01*
X243245Y357520D01*
X243162Y357578D01*
X243082Y357640D01*
X243004Y357705D01*
X242928Y357772D01*
X242855Y357842D01*
X242785Y357915D01*
X242718Y357991D01*
X242653Y358069D01*
X242591Y358149D01*
X242533Y358232D01*
X242477Y358317D01*
X242425Y358404D01*
X242376Y358492D01*
X242330Y358583D01*
X242288Y358675D01*
X242249Y358768D01*
X242214Y358863D01*
X242182Y358960D01*
X242154Y359057D01*
X242130Y359155D01*
X242109Y359254D01*
X242092Y359354D01*
X242079Y359455D01*
X242070Y359556D01*
X242064Y359657D01*
X242062Y359758D01*
X242062Y364273D01*
X252899Y364273D01*
X252899Y369819D02*
X252899Y375238D01*
X258318Y371625D02*
X244771Y371625D01*
X244771Y371626D02*
X244670Y371628D01*
X244569Y371634D01*
X244468Y371643D01*
X244367Y371656D01*
X244267Y371673D01*
X244168Y371694D01*
X244070Y371718D01*
X243973Y371746D01*
X243876Y371778D01*
X243781Y371813D01*
X243688Y371852D01*
X243596Y371894D01*
X243505Y371940D01*
X243417Y371989D01*
X243330Y372041D01*
X243245Y372097D01*
X243162Y372155D01*
X243082Y372217D01*
X243004Y372282D01*
X242928Y372349D01*
X242855Y372419D01*
X242785Y372492D01*
X242718Y372568D01*
X242653Y372646D01*
X242591Y372726D01*
X242533Y372809D01*
X242477Y372894D01*
X242425Y372981D01*
X242376Y373069D01*
X242330Y373160D01*
X242288Y373252D01*
X242249Y373345D01*
X242214Y373440D01*
X242182Y373537D01*
X242154Y373634D01*
X242130Y373732D01*
X242109Y373831D01*
X242092Y373931D01*
X242079Y374032D01*
X242070Y374133D01*
X242064Y374234D01*
X242062Y374335D01*
X242062Y375238D01*
X203962Y181271D02*
X214799Y178562D01*
X211187Y183981D02*
X203962Y181271D01*
X203962Y186690D02*
X211187Y183981D01*
X214799Y189399D02*
X203962Y186690D01*
X203962Y197945D02*
X214799Y195235D01*
X211187Y200654D02*
X203962Y197945D01*
X203962Y203363D02*
X211187Y200654D01*
X214799Y206073D02*
X203962Y203363D01*
X203962Y214618D02*
X214799Y211909D01*
X211187Y217327D02*
X203962Y214618D01*
X203962Y220037D02*
X211187Y217327D01*
X214799Y222746D02*
X203962Y220037D01*
X203962Y228339D02*
X204865Y228339D01*
X204865Y229242D01*
X203962Y229242D01*
X203962Y228339D01*
X203962Y237787D02*
X203962Y242302D01*
X203962Y237787D02*
X203964Y237686D01*
X203970Y237585D01*
X203979Y237484D01*
X203992Y237383D01*
X204009Y237283D01*
X204030Y237184D01*
X204054Y237086D01*
X204082Y236989D01*
X204114Y236892D01*
X204149Y236797D01*
X204188Y236704D01*
X204230Y236612D01*
X204276Y236521D01*
X204325Y236433D01*
X204377Y236346D01*
X204433Y236261D01*
X204491Y236178D01*
X204553Y236098D01*
X204618Y236020D01*
X204685Y235944D01*
X204755Y235871D01*
X204828Y235801D01*
X204904Y235734D01*
X204982Y235669D01*
X205062Y235607D01*
X205145Y235549D01*
X205230Y235493D01*
X205317Y235441D01*
X205405Y235392D01*
X205496Y235346D01*
X205588Y235304D01*
X205681Y235265D01*
X205776Y235230D01*
X205873Y235198D01*
X205970Y235170D01*
X206068Y235146D01*
X206167Y235125D01*
X206267Y235108D01*
X206368Y235095D01*
X206469Y235086D01*
X206570Y235080D01*
X206671Y235078D01*
X211187Y235078D01*
X211306Y235080D01*
X211426Y235086D01*
X211545Y235096D01*
X211663Y235110D01*
X211782Y235127D01*
X211899Y235149D01*
X212016Y235174D01*
X212131Y235204D01*
X212246Y235237D01*
X212360Y235274D01*
X212472Y235314D01*
X212583Y235359D01*
X212692Y235407D01*
X212800Y235458D01*
X212906Y235513D01*
X213010Y235572D01*
X213112Y235634D01*
X213212Y235699D01*
X213310Y235768D01*
X213406Y235840D01*
X213499Y235915D01*
X213589Y235992D01*
X213677Y236073D01*
X213762Y236157D01*
X213844Y236244D01*
X213924Y236333D01*
X214000Y236425D01*
X214074Y236519D01*
X214144Y236616D01*
X214211Y236714D01*
X214275Y236815D01*
X214335Y236919D01*
X214392Y237024D01*
X214445Y237131D01*
X214495Y237239D01*
X214541Y237349D01*
X214583Y237461D01*
X214622Y237574D01*
X214657Y237688D01*
X214688Y237803D01*
X214716Y237920D01*
X214739Y238037D01*
X214759Y238154D01*
X214775Y238273D01*
X214787Y238392D01*
X214795Y238511D01*
X214799Y238630D01*
X214799Y238750D01*
X214795Y238869D01*
X214787Y238988D01*
X214775Y239107D01*
X214759Y239226D01*
X214739Y239343D01*
X214716Y239460D01*
X214688Y239577D01*
X214657Y239692D01*
X214622Y239806D01*
X214583Y239919D01*
X214541Y240031D01*
X214495Y240141D01*
X214445Y240249D01*
X214392Y240356D01*
X214335Y240461D01*
X214275Y240565D01*
X214211Y240666D01*
X214144Y240764D01*
X214074Y240861D01*
X214000Y240955D01*
X213924Y241047D01*
X213844Y241136D01*
X213762Y241223D01*
X213677Y241307D01*
X213589Y241388D01*
X213499Y241465D01*
X213406Y241540D01*
X213310Y241612D01*
X213212Y241681D01*
X213112Y241746D01*
X213010Y241808D01*
X212906Y241867D01*
X212800Y241922D01*
X212692Y241973D01*
X212583Y242021D01*
X212472Y242066D01*
X212360Y242106D01*
X212246Y242143D01*
X212131Y242176D01*
X212016Y242206D01*
X211899Y242231D01*
X211782Y242253D01*
X211663Y242270D01*
X211545Y242284D01*
X211426Y242294D01*
X211306Y242300D01*
X211187Y242302D01*
X209381Y242302D01*
X209381Y235078D01*
X203962Y249424D02*
X214799Y249424D01*
X214799Y257552D01*
X214797Y257653D01*
X214791Y257754D01*
X214782Y257855D01*
X214769Y257956D01*
X214752Y258056D01*
X214731Y258155D01*
X214707Y258253D01*
X214679Y258350D01*
X214647Y258447D01*
X214612Y258542D01*
X214573Y258635D01*
X214531Y258727D01*
X214485Y258818D01*
X214436Y258907D01*
X214384Y258993D01*
X214328Y259078D01*
X214270Y259161D01*
X214208Y259241D01*
X214143Y259319D01*
X214076Y259395D01*
X214006Y259468D01*
X213933Y259538D01*
X213857Y259605D01*
X213779Y259670D01*
X213699Y259732D01*
X213616Y259790D01*
X213531Y259846D01*
X213445Y259898D01*
X213356Y259947D01*
X213265Y259993D01*
X213173Y260035D01*
X213080Y260074D01*
X212985Y260109D01*
X212888Y260141D01*
X212791Y260169D01*
X212693Y260193D01*
X212594Y260214D01*
X212494Y260231D01*
X212393Y260244D01*
X212292Y260253D01*
X212191Y260259D01*
X212090Y260261D01*
X203962Y260261D01*
X203962Y254842D02*
X214799Y254842D01*
X211187Y267382D02*
X207574Y267382D01*
X211187Y267383D02*
X211306Y267385D01*
X211426Y267391D01*
X211545Y267401D01*
X211663Y267415D01*
X211782Y267432D01*
X211899Y267454D01*
X212016Y267479D01*
X212131Y267509D01*
X212246Y267542D01*
X212360Y267579D01*
X212472Y267619D01*
X212583Y267664D01*
X212692Y267712D01*
X212800Y267763D01*
X212906Y267818D01*
X213010Y267877D01*
X213112Y267939D01*
X213212Y268004D01*
X213310Y268073D01*
X213406Y268145D01*
X213499Y268220D01*
X213589Y268297D01*
X213677Y268378D01*
X213762Y268462D01*
X213844Y268549D01*
X213924Y268638D01*
X214000Y268730D01*
X214074Y268824D01*
X214144Y268921D01*
X214211Y269019D01*
X214275Y269120D01*
X214335Y269224D01*
X214392Y269329D01*
X214445Y269436D01*
X214495Y269544D01*
X214541Y269654D01*
X214583Y269766D01*
X214622Y269879D01*
X214657Y269993D01*
X214688Y270108D01*
X214716Y270225D01*
X214739Y270342D01*
X214759Y270459D01*
X214775Y270578D01*
X214787Y270697D01*
X214795Y270816D01*
X214799Y270935D01*
X214799Y271055D01*
X214795Y271174D01*
X214787Y271293D01*
X214775Y271412D01*
X214759Y271531D01*
X214739Y271648D01*
X214716Y271765D01*
X214688Y271882D01*
X214657Y271997D01*
X214622Y272111D01*
X214583Y272224D01*
X214541Y272336D01*
X214495Y272446D01*
X214445Y272554D01*
X214392Y272661D01*
X214335Y272766D01*
X214275Y272870D01*
X214211Y272971D01*
X214144Y273069D01*
X214074Y273166D01*
X214000Y273260D01*
X213924Y273352D01*
X213844Y273441D01*
X213762Y273528D01*
X213677Y273612D01*
X213589Y273693D01*
X213499Y273770D01*
X213406Y273845D01*
X213310Y273917D01*
X213212Y273986D01*
X213112Y274051D01*
X213010Y274113D01*
X212906Y274172D01*
X212800Y274227D01*
X212692Y274278D01*
X212583Y274326D01*
X212472Y274371D01*
X212360Y274411D01*
X212246Y274448D01*
X212131Y274481D01*
X212016Y274511D01*
X211899Y274536D01*
X211782Y274558D01*
X211663Y274575D01*
X211545Y274589D01*
X211426Y274599D01*
X211306Y274605D01*
X211187Y274607D01*
X207574Y274607D01*
X207455Y274605D01*
X207335Y274599D01*
X207216Y274589D01*
X207098Y274575D01*
X206979Y274558D01*
X206862Y274536D01*
X206745Y274511D01*
X206630Y274481D01*
X206515Y274448D01*
X206401Y274411D01*
X206289Y274371D01*
X206178Y274326D01*
X206069Y274278D01*
X205961Y274227D01*
X205855Y274172D01*
X205751Y274113D01*
X205649Y274051D01*
X205549Y273986D01*
X205451Y273917D01*
X205355Y273845D01*
X205262Y273770D01*
X205172Y273693D01*
X205084Y273612D01*
X204999Y273528D01*
X204917Y273441D01*
X204837Y273352D01*
X204761Y273260D01*
X204687Y273166D01*
X204617Y273069D01*
X204550Y272971D01*
X204486Y272870D01*
X204426Y272766D01*
X204369Y272661D01*
X204316Y272554D01*
X204266Y272446D01*
X204220Y272336D01*
X204178Y272224D01*
X204139Y272111D01*
X204104Y271997D01*
X204073Y271882D01*
X204045Y271765D01*
X204022Y271648D01*
X204002Y271531D01*
X203986Y271412D01*
X203974Y271293D01*
X203966Y271174D01*
X203962Y271055D01*
X203962Y270935D01*
X203966Y270816D01*
X203974Y270697D01*
X203986Y270578D01*
X204002Y270459D01*
X204022Y270342D01*
X204045Y270225D01*
X204073Y270108D01*
X204104Y269993D01*
X204139Y269879D01*
X204178Y269766D01*
X204220Y269654D01*
X204266Y269544D01*
X204316Y269436D01*
X204369Y269329D01*
X204426Y269224D01*
X204486Y269120D01*
X204550Y269019D01*
X204617Y268921D01*
X204687Y268824D01*
X204761Y268730D01*
X204837Y268638D01*
X204917Y268549D01*
X204999Y268462D01*
X205084Y268378D01*
X205172Y268297D01*
X205262Y268220D01*
X205355Y268145D01*
X205451Y268073D01*
X205549Y268004D01*
X205649Y267939D01*
X205751Y267877D01*
X205855Y267818D01*
X205961Y267763D01*
X206069Y267712D01*
X206178Y267664D01*
X206289Y267619D01*
X206401Y267579D01*
X206515Y267542D01*
X206630Y267509D01*
X206745Y267479D01*
X206862Y267454D01*
X206979Y267432D01*
X207098Y267415D01*
X207216Y267401D01*
X207335Y267391D01*
X207455Y267385D01*
X207574Y267383D01*
X203962Y281450D02*
X214799Y281450D01*
X214799Y285966D01*
X214797Y286067D01*
X214791Y286168D01*
X214782Y286269D01*
X214769Y286370D01*
X214752Y286470D01*
X214731Y286569D01*
X214707Y286667D01*
X214679Y286764D01*
X214647Y286861D01*
X214612Y286956D01*
X214573Y287049D01*
X214531Y287141D01*
X214485Y287232D01*
X214436Y287321D01*
X214384Y287407D01*
X214328Y287492D01*
X214270Y287575D01*
X214208Y287655D01*
X214143Y287733D01*
X214076Y287809D01*
X214006Y287882D01*
X213933Y287952D01*
X213857Y288019D01*
X213779Y288084D01*
X213699Y288146D01*
X213616Y288204D01*
X213531Y288260D01*
X213445Y288312D01*
X213356Y288361D01*
X213265Y288407D01*
X213173Y288449D01*
X213080Y288488D01*
X212985Y288523D01*
X212888Y288555D01*
X212791Y288583D01*
X212693Y288607D01*
X212594Y288628D01*
X212494Y288645D01*
X212393Y288658D01*
X212292Y288667D01*
X212191Y288673D01*
X212090Y288675D01*
X203962Y288675D01*
X203962Y298228D02*
X203962Y302743D01*
X203962Y298228D02*
X203964Y298127D01*
X203970Y298026D01*
X203979Y297925D01*
X203992Y297824D01*
X204009Y297724D01*
X204030Y297625D01*
X204054Y297527D01*
X204082Y297430D01*
X204114Y297333D01*
X204149Y297238D01*
X204188Y297145D01*
X204230Y297053D01*
X204276Y296962D01*
X204325Y296874D01*
X204377Y296787D01*
X204433Y296702D01*
X204491Y296619D01*
X204553Y296539D01*
X204618Y296461D01*
X204685Y296385D01*
X204755Y296312D01*
X204828Y296242D01*
X204904Y296175D01*
X204982Y296110D01*
X205062Y296048D01*
X205145Y295990D01*
X205230Y295934D01*
X205317Y295882D01*
X205405Y295833D01*
X205496Y295787D01*
X205588Y295745D01*
X205681Y295706D01*
X205776Y295671D01*
X205873Y295639D01*
X205970Y295611D01*
X206068Y295587D01*
X206167Y295566D01*
X206267Y295549D01*
X206368Y295536D01*
X206469Y295527D01*
X206570Y295521D01*
X206671Y295519D01*
X206671Y295518D02*
X211187Y295518D01*
X211187Y295519D02*
X211306Y295521D01*
X211426Y295527D01*
X211545Y295537D01*
X211663Y295551D01*
X211782Y295568D01*
X211899Y295590D01*
X212016Y295615D01*
X212131Y295645D01*
X212246Y295678D01*
X212360Y295715D01*
X212472Y295755D01*
X212583Y295800D01*
X212692Y295848D01*
X212800Y295899D01*
X212906Y295954D01*
X213010Y296013D01*
X213112Y296075D01*
X213212Y296140D01*
X213310Y296209D01*
X213406Y296281D01*
X213499Y296356D01*
X213589Y296433D01*
X213677Y296514D01*
X213762Y296598D01*
X213844Y296685D01*
X213924Y296774D01*
X214000Y296866D01*
X214074Y296960D01*
X214144Y297057D01*
X214211Y297155D01*
X214275Y297256D01*
X214335Y297360D01*
X214392Y297465D01*
X214445Y297572D01*
X214495Y297680D01*
X214541Y297790D01*
X214583Y297902D01*
X214622Y298015D01*
X214657Y298129D01*
X214688Y298244D01*
X214716Y298361D01*
X214739Y298478D01*
X214759Y298595D01*
X214775Y298714D01*
X214787Y298833D01*
X214795Y298952D01*
X214799Y299071D01*
X214799Y299191D01*
X214795Y299310D01*
X214787Y299429D01*
X214775Y299548D01*
X214759Y299667D01*
X214739Y299784D01*
X214716Y299901D01*
X214688Y300018D01*
X214657Y300133D01*
X214622Y300247D01*
X214583Y300360D01*
X214541Y300472D01*
X214495Y300582D01*
X214445Y300690D01*
X214392Y300797D01*
X214335Y300902D01*
X214275Y301006D01*
X214211Y301107D01*
X214144Y301205D01*
X214074Y301302D01*
X214000Y301396D01*
X213924Y301488D01*
X213844Y301577D01*
X213762Y301664D01*
X213677Y301748D01*
X213589Y301829D01*
X213499Y301906D01*
X213406Y301981D01*
X213310Y302053D01*
X213212Y302122D01*
X213112Y302187D01*
X213010Y302249D01*
X212906Y302308D01*
X212800Y302363D01*
X212692Y302414D01*
X212583Y302462D01*
X212472Y302507D01*
X212360Y302547D01*
X212246Y302584D01*
X212131Y302617D01*
X212016Y302647D01*
X211899Y302672D01*
X211782Y302694D01*
X211663Y302711D01*
X211545Y302725D01*
X211426Y302735D01*
X211306Y302741D01*
X211187Y302743D01*
X209381Y302743D01*
X209381Y295518D01*
X204865Y308579D02*
X203962Y308579D01*
X204865Y308579D02*
X204865Y309482D01*
X203962Y309482D01*
X203962Y308579D01*
X203962Y318045D02*
X203962Y321657D01*
X203962Y318045D02*
X203964Y317944D01*
X203970Y317843D01*
X203979Y317742D01*
X203992Y317641D01*
X204009Y317541D01*
X204030Y317442D01*
X204054Y317344D01*
X204082Y317247D01*
X204114Y317150D01*
X204149Y317055D01*
X204188Y316962D01*
X204230Y316870D01*
X204276Y316779D01*
X204325Y316691D01*
X204377Y316604D01*
X204433Y316519D01*
X204491Y316436D01*
X204553Y316356D01*
X204618Y316278D01*
X204685Y316202D01*
X204755Y316129D01*
X204828Y316059D01*
X204904Y315992D01*
X204982Y315927D01*
X205062Y315865D01*
X205145Y315807D01*
X205230Y315751D01*
X205317Y315699D01*
X205405Y315650D01*
X205496Y315604D01*
X205588Y315562D01*
X205681Y315523D01*
X205776Y315488D01*
X205873Y315456D01*
X205970Y315428D01*
X206068Y315404D01*
X206167Y315383D01*
X206267Y315366D01*
X206368Y315353D01*
X206469Y315344D01*
X206570Y315338D01*
X206671Y315336D01*
X206671Y315335D02*
X212090Y315335D01*
X212090Y315336D02*
X212191Y315338D01*
X212292Y315344D01*
X212393Y315353D01*
X212494Y315366D01*
X212594Y315383D01*
X212693Y315404D01*
X212791Y315428D01*
X212888Y315456D01*
X212985Y315488D01*
X213080Y315523D01*
X213173Y315562D01*
X213265Y315604D01*
X213356Y315650D01*
X213445Y315699D01*
X213531Y315751D01*
X213616Y315807D01*
X213699Y315865D01*
X213779Y315927D01*
X213857Y315992D01*
X213933Y316059D01*
X214006Y316129D01*
X214076Y316202D01*
X214143Y316278D01*
X214208Y316356D01*
X214270Y316436D01*
X214328Y316519D01*
X214384Y316604D01*
X214436Y316691D01*
X214485Y316779D01*
X214531Y316870D01*
X214573Y316962D01*
X214612Y317055D01*
X214647Y317150D01*
X214679Y317247D01*
X214707Y317344D01*
X214731Y317442D01*
X214752Y317541D01*
X214769Y317641D01*
X214782Y317742D01*
X214791Y317843D01*
X214797Y317944D01*
X214799Y318045D01*
X214799Y321657D01*
X211187Y327302D02*
X207574Y327302D01*
X211187Y327302D02*
X211306Y327304D01*
X211426Y327310D01*
X211545Y327320D01*
X211663Y327334D01*
X211782Y327351D01*
X211899Y327373D01*
X212016Y327398D01*
X212131Y327428D01*
X212246Y327461D01*
X212360Y327498D01*
X212472Y327538D01*
X212583Y327583D01*
X212692Y327631D01*
X212800Y327682D01*
X212906Y327737D01*
X213010Y327796D01*
X213112Y327858D01*
X213212Y327923D01*
X213310Y327992D01*
X213406Y328064D01*
X213499Y328139D01*
X213589Y328216D01*
X213677Y328297D01*
X213762Y328381D01*
X213844Y328468D01*
X213924Y328557D01*
X214000Y328649D01*
X214074Y328743D01*
X214144Y328840D01*
X214211Y328938D01*
X214275Y329039D01*
X214335Y329143D01*
X214392Y329248D01*
X214445Y329355D01*
X214495Y329463D01*
X214541Y329573D01*
X214583Y329685D01*
X214622Y329798D01*
X214657Y329912D01*
X214688Y330027D01*
X214716Y330144D01*
X214739Y330261D01*
X214759Y330378D01*
X214775Y330497D01*
X214787Y330616D01*
X214795Y330735D01*
X214799Y330854D01*
X214799Y330974D01*
X214795Y331093D01*
X214787Y331212D01*
X214775Y331331D01*
X214759Y331450D01*
X214739Y331567D01*
X214716Y331684D01*
X214688Y331801D01*
X214657Y331916D01*
X214622Y332030D01*
X214583Y332143D01*
X214541Y332255D01*
X214495Y332365D01*
X214445Y332473D01*
X214392Y332580D01*
X214335Y332685D01*
X214275Y332789D01*
X214211Y332890D01*
X214144Y332988D01*
X214074Y333085D01*
X214000Y333179D01*
X213924Y333271D01*
X213844Y333360D01*
X213762Y333447D01*
X213677Y333531D01*
X213589Y333612D01*
X213499Y333689D01*
X213406Y333764D01*
X213310Y333836D01*
X213212Y333905D01*
X213112Y333970D01*
X213010Y334032D01*
X212906Y334091D01*
X212800Y334146D01*
X212692Y334197D01*
X212583Y334245D01*
X212472Y334290D01*
X212360Y334330D01*
X212246Y334367D01*
X212131Y334400D01*
X212016Y334430D01*
X211899Y334455D01*
X211782Y334477D01*
X211663Y334494D01*
X211545Y334508D01*
X211426Y334518D01*
X211306Y334524D01*
X211187Y334526D01*
X211187Y334527D02*
X207574Y334527D01*
X207574Y334526D02*
X207455Y334524D01*
X207335Y334518D01*
X207216Y334508D01*
X207098Y334494D01*
X206979Y334477D01*
X206862Y334455D01*
X206745Y334430D01*
X206630Y334400D01*
X206515Y334367D01*
X206401Y334330D01*
X206289Y334290D01*
X206178Y334245D01*
X206069Y334197D01*
X205961Y334146D01*
X205855Y334091D01*
X205751Y334032D01*
X205649Y333970D01*
X205549Y333905D01*
X205451Y333836D01*
X205355Y333764D01*
X205262Y333689D01*
X205172Y333612D01*
X205084Y333531D01*
X204999Y333447D01*
X204917Y333360D01*
X204837Y333271D01*
X204761Y333179D01*
X204687Y333085D01*
X204617Y332988D01*
X204550Y332890D01*
X204486Y332789D01*
X204426Y332685D01*
X204369Y332580D01*
X204316Y332473D01*
X204266Y332365D01*
X204220Y332255D01*
X204178Y332143D01*
X204139Y332030D01*
X204104Y331916D01*
X204073Y331801D01*
X204045Y331684D01*
X204022Y331567D01*
X204002Y331450D01*
X203986Y331331D01*
X203974Y331212D01*
X203966Y331093D01*
X203962Y330974D01*
X203962Y330854D01*
X203966Y330735D01*
X203974Y330616D01*
X203986Y330497D01*
X204002Y330378D01*
X204022Y330261D01*
X204045Y330144D01*
X204073Y330027D01*
X204104Y329912D01*
X204139Y329798D01*
X204178Y329685D01*
X204220Y329573D01*
X204266Y329463D01*
X204316Y329355D01*
X204369Y329248D01*
X204426Y329143D01*
X204486Y329039D01*
X204550Y328938D01*
X204617Y328840D01*
X204687Y328743D01*
X204761Y328649D01*
X204837Y328557D01*
X204917Y328468D01*
X204999Y328381D01*
X205084Y328297D01*
X205172Y328216D01*
X205262Y328139D01*
X205355Y328064D01*
X205451Y327992D01*
X205549Y327923D01*
X205649Y327858D01*
X205751Y327796D01*
X205855Y327737D01*
X205961Y327682D01*
X206069Y327631D01*
X206178Y327583D01*
X206289Y327538D01*
X206401Y327498D01*
X206515Y327461D01*
X206630Y327428D01*
X206745Y327398D01*
X206862Y327373D01*
X206979Y327351D01*
X207098Y327334D01*
X207216Y327320D01*
X207335Y327310D01*
X207455Y327304D01*
X207574Y327302D01*
X204865Y340362D02*
X203962Y340362D01*
X204865Y340362D02*
X204865Y341266D01*
X203962Y341266D01*
X203962Y340362D01*
X214799Y345804D02*
X214799Y351223D01*
X220218Y347610D02*
X206671Y347610D01*
X206671Y347611D02*
X206570Y347613D01*
X206469Y347619D01*
X206368Y347628D01*
X206267Y347641D01*
X206167Y347658D01*
X206068Y347679D01*
X205970Y347703D01*
X205873Y347731D01*
X205776Y347763D01*
X205681Y347798D01*
X205588Y347837D01*
X205496Y347879D01*
X205405Y347925D01*
X205317Y347974D01*
X205230Y348026D01*
X205145Y348082D01*
X205062Y348140D01*
X204982Y348202D01*
X204904Y348267D01*
X204828Y348334D01*
X204755Y348404D01*
X204685Y348477D01*
X204618Y348553D01*
X204553Y348631D01*
X204491Y348711D01*
X204433Y348794D01*
X204377Y348879D01*
X204325Y348966D01*
X204276Y349054D01*
X204230Y349145D01*
X204188Y349237D01*
X204149Y349330D01*
X204114Y349425D01*
X204082Y349522D01*
X204054Y349619D01*
X204030Y349717D01*
X204009Y349816D01*
X203992Y349916D01*
X203979Y350017D01*
X203970Y350118D01*
X203964Y350219D01*
X203962Y350320D01*
X203962Y351223D01*
X203962Y357522D02*
X220218Y357522D01*
X214799Y357522D02*
X214799Y362038D01*
X214797Y362139D01*
X214791Y362240D01*
X214782Y362341D01*
X214769Y362442D01*
X214752Y362542D01*
X214731Y362641D01*
X214707Y362739D01*
X214679Y362836D01*
X214647Y362933D01*
X214612Y363028D01*
X214573Y363121D01*
X214531Y363213D01*
X214485Y363304D01*
X214436Y363393D01*
X214384Y363479D01*
X214328Y363564D01*
X214270Y363647D01*
X214208Y363727D01*
X214143Y363805D01*
X214076Y363881D01*
X214006Y363954D01*
X213933Y364024D01*
X213857Y364091D01*
X213779Y364156D01*
X213699Y364218D01*
X213616Y364276D01*
X213531Y364332D01*
X213445Y364384D01*
X213356Y364433D01*
X213265Y364479D01*
X213173Y364521D01*
X213080Y364560D01*
X212985Y364595D01*
X212888Y364627D01*
X212791Y364655D01*
X212693Y364679D01*
X212594Y364700D01*
X212494Y364717D01*
X212393Y364730D01*
X212292Y364739D01*
X212191Y364745D01*
X212090Y364747D01*
X203962Y364747D01*
X330962Y310981D02*
X347218Y305562D01*
X347218Y316399D02*
X330962Y310981D01*
X339090Y322097D02*
X339410Y322101D01*
X339729Y322112D01*
X340049Y322131D01*
X340367Y322158D01*
X340685Y322192D01*
X341002Y322234D01*
X341318Y322284D01*
X341633Y322341D01*
X341946Y322405D01*
X342258Y322477D01*
X342568Y322556D01*
X342875Y322643D01*
X343181Y322737D01*
X343484Y322838D01*
X343785Y322947D01*
X344083Y323062D01*
X344379Y323185D01*
X344671Y323315D01*
X344960Y323452D01*
X344961Y323451D02*
X345069Y323490D01*
X345176Y323533D01*
X345281Y323579D01*
X345385Y323630D01*
X345487Y323683D01*
X345587Y323740D01*
X345685Y323801D01*
X345780Y323865D01*
X345874Y323932D01*
X345965Y324003D01*
X346054Y324076D01*
X346140Y324153D01*
X346223Y324232D01*
X346304Y324314D01*
X346382Y324399D01*
X346456Y324487D01*
X346528Y324577D01*
X346596Y324669D01*
X346662Y324764D01*
X346724Y324861D01*
X346782Y324960D01*
X346838Y325062D01*
X346889Y325164D01*
X346937Y325269D01*
X346982Y325375D01*
X347023Y325483D01*
X347060Y325592D01*
X347093Y325702D01*
X347122Y325814D01*
X347148Y325926D01*
X347170Y326039D01*
X347187Y326153D01*
X347201Y326267D01*
X347211Y326382D01*
X347217Y326497D01*
X347219Y326612D01*
X347218Y326612D02*
X347216Y326727D01*
X347210Y326842D01*
X347200Y326957D01*
X347186Y327071D01*
X347169Y327185D01*
X347147Y327298D01*
X347121Y327410D01*
X347092Y327522D01*
X347059Y327632D01*
X347022Y327741D01*
X346981Y327849D01*
X346936Y327955D01*
X346888Y328060D01*
X346837Y328162D01*
X346781Y328263D01*
X346723Y328363D01*
X346661Y328460D01*
X346596Y328554D01*
X346527Y328647D01*
X346455Y328737D01*
X346381Y328825D01*
X346303Y328910D01*
X346222Y328992D01*
X346139Y329071D01*
X346053Y329148D01*
X345964Y329221D01*
X345873Y329292D01*
X345779Y329359D01*
X345684Y329423D01*
X345586Y329484D01*
X345486Y329541D01*
X345384Y329594D01*
X345280Y329645D01*
X345175Y329691D01*
X345068Y329734D01*
X344960Y329773D01*
X344960Y329772D02*
X344671Y329909D01*
X344379Y330039D01*
X344083Y330162D01*
X343785Y330277D01*
X343484Y330386D01*
X343181Y330487D01*
X342875Y330581D01*
X342568Y330668D01*
X342258Y330747D01*
X341946Y330819D01*
X341633Y330883D01*
X341318Y330940D01*
X341002Y330990D01*
X340685Y331032D01*
X340367Y331066D01*
X340049Y331093D01*
X339729Y331112D01*
X339410Y331123D01*
X339090Y331127D01*
X339090Y322097D02*
X338770Y322101D01*
X338451Y322112D01*
X338131Y322131D01*
X337813Y322158D01*
X337495Y322192D01*
X337178Y322234D01*
X336862Y322284D01*
X336547Y322341D01*
X336234Y322405D01*
X335922Y322477D01*
X335612Y322556D01*
X335305Y322643D01*
X334999Y322737D01*
X334696Y322838D01*
X334395Y322947D01*
X334097Y323062D01*
X333801Y323185D01*
X333509Y323315D01*
X333220Y323452D01*
X333220Y323451D02*
X333112Y323490D01*
X333005Y323533D01*
X332900Y323579D01*
X332796Y323630D01*
X332694Y323683D01*
X332594Y323740D01*
X332496Y323801D01*
X332401Y323865D01*
X332307Y323932D01*
X332216Y324003D01*
X332127Y324076D01*
X332041Y324153D01*
X331958Y324232D01*
X331877Y324314D01*
X331799Y324399D01*
X331725Y324487D01*
X331653Y324577D01*
X331584Y324670D01*
X331519Y324764D01*
X331457Y324861D01*
X331399Y324961D01*
X331343Y325062D01*
X331292Y325164D01*
X331244Y325269D01*
X331199Y325375D01*
X331158Y325483D01*
X331121Y325592D01*
X331088Y325702D01*
X331059Y325814D01*
X331033Y325926D01*
X331011Y326039D01*
X330994Y326153D01*
X330980Y326267D01*
X330970Y326382D01*
X330964Y326497D01*
X330962Y326612D01*
X333220Y329772D02*
X333509Y329909D01*
X333801Y330039D01*
X334097Y330162D01*
X334395Y330277D01*
X334696Y330386D01*
X334999Y330487D01*
X335305Y330581D01*
X335612Y330668D01*
X335922Y330747D01*
X336234Y330819D01*
X336547Y330883D01*
X336862Y330940D01*
X337178Y330990D01*
X337495Y331032D01*
X337813Y331066D01*
X338131Y331093D01*
X338451Y331112D01*
X338770Y331123D01*
X339090Y331127D01*
X333220Y329773D02*
X333112Y329734D01*
X333005Y329691D01*
X332900Y329645D01*
X332796Y329594D01*
X332694Y329541D01*
X332594Y329484D01*
X332496Y329423D01*
X332401Y329359D01*
X332307Y329292D01*
X332216Y329221D01*
X332127Y329148D01*
X332041Y329071D01*
X331958Y328992D01*
X331877Y328910D01*
X331799Y328825D01*
X331725Y328737D01*
X331653Y328647D01*
X331584Y328554D01*
X331519Y328460D01*
X331457Y328363D01*
X331399Y328263D01*
X331343Y328162D01*
X331292Y328059D01*
X331244Y327955D01*
X331199Y327849D01*
X331158Y327741D01*
X331121Y327632D01*
X331088Y327522D01*
X331059Y327410D01*
X331033Y327298D01*
X331011Y327185D01*
X330994Y327071D01*
X330980Y326957D01*
X330970Y326842D01*
X330964Y326727D01*
X330962Y326612D01*
X334574Y322999D02*
X343606Y330224D01*
X331865Y337102D02*
X330962Y337102D01*
X331865Y337102D02*
X331865Y338005D01*
X330962Y338005D01*
X330962Y337102D01*
X343606Y343980D02*
X347218Y348496D01*
X330962Y348496D01*
X330962Y353011D02*
X330962Y343980D01*
D11*
X261366Y130810D02*
X261366Y97790D01*
X261366Y130810D02*
X195834Y130810D01*
X195834Y97790D01*
X261366Y97790D01*
D12*
X204599Y93792D02*
X204599Y90123D01*
X204597Y90049D01*
X204591Y89976D01*
X204582Y89902D01*
X204568Y89830D01*
X204551Y89758D01*
X204530Y89687D01*
X204505Y89617D01*
X204477Y89549D01*
X204445Y89482D01*
X204410Y89418D01*
X204371Y89355D01*
X204330Y89294D01*
X204285Y89235D01*
X204237Y89179D01*
X204186Y89125D01*
X204132Y89074D01*
X204076Y89026D01*
X204017Y88981D01*
X203956Y88940D01*
X203894Y88901D01*
X203829Y88866D01*
X203762Y88834D01*
X203694Y88806D01*
X203624Y88781D01*
X203553Y88760D01*
X203481Y88743D01*
X203409Y88729D01*
X203335Y88720D01*
X203262Y88714D01*
X203188Y88712D01*
X203114Y88714D01*
X203041Y88720D01*
X202967Y88729D01*
X202895Y88743D01*
X202823Y88760D01*
X202752Y88781D01*
X202682Y88806D01*
X202614Y88834D01*
X202547Y88866D01*
X202483Y88901D01*
X202420Y88940D01*
X202359Y88981D01*
X202300Y89026D01*
X202244Y89074D01*
X202190Y89125D01*
X202139Y89179D01*
X202091Y89235D01*
X202046Y89294D01*
X202005Y89355D01*
X201966Y89418D01*
X201931Y89482D01*
X201899Y89549D01*
X201871Y89617D01*
X201846Y89687D01*
X201825Y89758D01*
X201808Y89830D01*
X201794Y89902D01*
X201785Y89976D01*
X201779Y90049D01*
X201777Y90123D01*
X201777Y93792D01*
X197378Y93792D02*
X197309Y93790D01*
X197241Y93785D01*
X197173Y93775D01*
X197105Y93762D01*
X197038Y93746D01*
X196972Y93726D01*
X196908Y93702D01*
X196845Y93675D01*
X196783Y93644D01*
X196723Y93610D01*
X196665Y93573D01*
X196609Y93533D01*
X196556Y93490D01*
X196505Y93444D01*
X196456Y93395D01*
X196410Y93344D01*
X196367Y93291D01*
X196327Y93235D01*
X196290Y93177D01*
X196256Y93117D01*
X196225Y93055D01*
X196198Y92992D01*
X196174Y92928D01*
X196154Y92862D01*
X196138Y92795D01*
X196125Y92727D01*
X196115Y92659D01*
X196110Y92591D01*
X196108Y92522D01*
X197378Y93792D02*
X197457Y93790D01*
X197536Y93784D01*
X197614Y93775D01*
X197692Y93762D01*
X197769Y93745D01*
X197845Y93724D01*
X197920Y93699D01*
X197994Y93671D01*
X198066Y93640D01*
X198137Y93605D01*
X198206Y93566D01*
X198273Y93525D01*
X198338Y93480D01*
X198401Y93432D01*
X198461Y93381D01*
X198519Y93327D01*
X198574Y93271D01*
X198626Y93212D01*
X198675Y93150D01*
X198722Y93086D01*
X198765Y93020D01*
X198805Y92952D01*
X198842Y92882D01*
X198875Y92810D01*
X198904Y92737D01*
X198931Y92663D01*
X196531Y91534D02*
X196483Y91583D01*
X196436Y91634D01*
X196393Y91688D01*
X196352Y91744D01*
X196314Y91801D01*
X196279Y91861D01*
X196247Y91922D01*
X196218Y91985D01*
X196193Y92049D01*
X196170Y92114D01*
X196151Y92181D01*
X196136Y92248D01*
X196124Y92316D01*
X196115Y92384D01*
X196110Y92453D01*
X196108Y92522D01*
X196531Y91534D02*
X198930Y88712D01*
X196108Y88712D01*
D13*
X320675Y141148D02*
X320675Y143123D01*
X320675Y141148D02*
X320677Y141062D01*
X320683Y140976D01*
X320692Y140890D01*
X320705Y140805D01*
X320722Y140720D01*
X320742Y140637D01*
X320766Y140554D01*
X320794Y140472D01*
X320825Y140392D01*
X320860Y140313D01*
X320898Y140236D01*
X320940Y140160D01*
X320984Y140086D01*
X321032Y140015D01*
X321083Y139945D01*
X321137Y139878D01*
X321194Y139813D01*
X321254Y139751D01*
X321316Y139691D01*
X321381Y139634D01*
X321448Y139580D01*
X321518Y139529D01*
X321589Y139481D01*
X321663Y139437D01*
X321739Y139395D01*
X321816Y139357D01*
X321895Y139322D01*
X321975Y139291D01*
X322057Y139263D01*
X322140Y139239D01*
X322223Y139219D01*
X322308Y139202D01*
X322393Y139189D01*
X322479Y139180D01*
X322565Y139174D01*
X322651Y139172D01*
X327589Y139172D01*
X327678Y139174D01*
X327766Y139180D01*
X327854Y139190D01*
X327942Y139204D01*
X328029Y139222D01*
X328115Y139243D01*
X328200Y139269D01*
X328283Y139298D01*
X328366Y139331D01*
X328446Y139368D01*
X328525Y139408D01*
X328602Y139452D01*
X328678Y139499D01*
X328750Y139549D01*
X328821Y139603D01*
X328889Y139660D01*
X328955Y139720D01*
X329017Y139782D01*
X329077Y139848D01*
X329134Y139916D01*
X329188Y139987D01*
X329238Y140059D01*
X329285Y140134D01*
X329329Y140212D01*
X329369Y140291D01*
X329406Y140371D01*
X329439Y140454D01*
X329468Y140537D01*
X329494Y140622D01*
X329515Y140708D01*
X329533Y140795D01*
X329547Y140883D01*
X329557Y140971D01*
X329563Y141059D01*
X329565Y141148D01*
X329565Y143123D01*
X327589Y146826D02*
X329565Y149296D01*
X320675Y149296D01*
X320675Y151765D02*
X320675Y146826D01*
X282575Y143123D02*
X282575Y141148D01*
X282577Y141062D01*
X282583Y140976D01*
X282592Y140890D01*
X282605Y140805D01*
X282622Y140720D01*
X282642Y140637D01*
X282666Y140554D01*
X282694Y140472D01*
X282725Y140392D01*
X282760Y140313D01*
X282798Y140236D01*
X282840Y140160D01*
X282884Y140086D01*
X282932Y140015D01*
X282983Y139945D01*
X283037Y139878D01*
X283094Y139813D01*
X283154Y139751D01*
X283216Y139691D01*
X283281Y139634D01*
X283348Y139580D01*
X283418Y139529D01*
X283489Y139481D01*
X283563Y139437D01*
X283639Y139395D01*
X283716Y139357D01*
X283795Y139322D01*
X283875Y139291D01*
X283957Y139263D01*
X284040Y139239D01*
X284123Y139219D01*
X284208Y139202D01*
X284293Y139189D01*
X284379Y139180D01*
X284465Y139174D01*
X284551Y139172D01*
X289489Y139172D01*
X289578Y139174D01*
X289666Y139180D01*
X289754Y139190D01*
X289842Y139204D01*
X289929Y139222D01*
X290015Y139243D01*
X290100Y139269D01*
X290183Y139298D01*
X290266Y139331D01*
X290346Y139368D01*
X290425Y139408D01*
X290502Y139452D01*
X290578Y139499D01*
X290650Y139549D01*
X290721Y139603D01*
X290789Y139660D01*
X290855Y139720D01*
X290917Y139782D01*
X290977Y139848D01*
X291034Y139916D01*
X291088Y139987D01*
X291138Y140059D01*
X291185Y140134D01*
X291229Y140212D01*
X291269Y140291D01*
X291306Y140371D01*
X291339Y140454D01*
X291368Y140537D01*
X291394Y140622D01*
X291415Y140708D01*
X291433Y140795D01*
X291447Y140883D01*
X291457Y140971D01*
X291463Y141059D01*
X291465Y141148D01*
X291465Y143123D01*
X291466Y149543D02*
X291464Y149635D01*
X291458Y149727D01*
X291449Y149818D01*
X291436Y149909D01*
X291419Y149999D01*
X291398Y150089D01*
X291374Y150177D01*
X291346Y150265D01*
X291314Y150351D01*
X291279Y150436D01*
X291240Y150519D01*
X291198Y150601D01*
X291153Y150681D01*
X291104Y150759D01*
X291052Y150835D01*
X290997Y150908D01*
X290939Y150980D01*
X290879Y151049D01*
X290815Y151115D01*
X290749Y151179D01*
X290680Y151239D01*
X290608Y151297D01*
X290535Y151352D01*
X290459Y151404D01*
X290381Y151453D01*
X290301Y151498D01*
X290219Y151540D01*
X290136Y151579D01*
X290051Y151614D01*
X289965Y151646D01*
X289877Y151674D01*
X289789Y151698D01*
X289699Y151719D01*
X289609Y151736D01*
X289518Y151749D01*
X289427Y151758D01*
X289335Y151764D01*
X289243Y151766D01*
X291465Y149543D02*
X291463Y149437D01*
X291457Y149332D01*
X291447Y149227D01*
X291434Y149122D01*
X291416Y149018D01*
X291395Y148915D01*
X291370Y148812D01*
X291341Y148710D01*
X291308Y148610D01*
X291272Y148511D01*
X291232Y148413D01*
X291188Y148317D01*
X291141Y148222D01*
X291091Y148130D01*
X291037Y148039D01*
X290979Y147950D01*
X290919Y147864D01*
X290855Y147780D01*
X290789Y147698D01*
X290719Y147618D01*
X290646Y147542D01*
X290571Y147468D01*
X290493Y147397D01*
X290412Y147329D01*
X290329Y147263D01*
X290243Y147201D01*
X290156Y147143D01*
X290066Y147087D01*
X289974Y147035D01*
X289880Y146986D01*
X289785Y146941D01*
X289688Y146899D01*
X289589Y146861D01*
X289490Y146827D01*
X287514Y151024D02*
X287583Y151093D01*
X287653Y151159D01*
X287727Y151222D01*
X287803Y151281D01*
X287881Y151338D01*
X287961Y151392D01*
X288044Y151442D01*
X288128Y151489D01*
X288215Y151532D01*
X288303Y151572D01*
X288392Y151608D01*
X288483Y151641D01*
X288575Y151670D01*
X288669Y151695D01*
X288763Y151716D01*
X288858Y151734D01*
X288954Y151747D01*
X289050Y151757D01*
X289146Y151763D01*
X289243Y151765D01*
X287514Y151024D02*
X282575Y146826D01*
X282575Y151765D01*
X165735Y144286D02*
X165735Y142311D01*
X165737Y142225D01*
X165743Y142139D01*
X165752Y142053D01*
X165765Y141968D01*
X165782Y141883D01*
X165802Y141800D01*
X165826Y141717D01*
X165854Y141635D01*
X165885Y141555D01*
X165920Y141476D01*
X165958Y141399D01*
X166000Y141323D01*
X166044Y141249D01*
X166092Y141178D01*
X166143Y141108D01*
X166197Y141041D01*
X166254Y140976D01*
X166314Y140914D01*
X166376Y140854D01*
X166441Y140797D01*
X166508Y140743D01*
X166578Y140692D01*
X166649Y140644D01*
X166723Y140600D01*
X166799Y140558D01*
X166876Y140520D01*
X166955Y140485D01*
X167035Y140454D01*
X167117Y140426D01*
X167200Y140402D01*
X167283Y140382D01*
X167368Y140365D01*
X167453Y140352D01*
X167539Y140343D01*
X167625Y140337D01*
X167711Y140335D01*
X172649Y140335D01*
X172738Y140337D01*
X172826Y140343D01*
X172914Y140353D01*
X173002Y140367D01*
X173089Y140385D01*
X173175Y140406D01*
X173260Y140432D01*
X173343Y140461D01*
X173426Y140494D01*
X173506Y140531D01*
X173585Y140571D01*
X173662Y140615D01*
X173738Y140662D01*
X173810Y140712D01*
X173881Y140766D01*
X173949Y140823D01*
X174015Y140883D01*
X174077Y140945D01*
X174137Y141011D01*
X174194Y141079D01*
X174248Y141150D01*
X174298Y141222D01*
X174345Y141297D01*
X174389Y141375D01*
X174429Y141454D01*
X174466Y141534D01*
X174499Y141617D01*
X174528Y141700D01*
X174554Y141785D01*
X174575Y141871D01*
X174593Y141958D01*
X174607Y142046D01*
X174617Y142134D01*
X174623Y142222D01*
X174625Y142311D01*
X174625Y144286D01*
X165735Y147989D02*
X165735Y150458D01*
X165737Y150556D01*
X165743Y150654D01*
X165753Y150752D01*
X165766Y150849D01*
X165784Y150946D01*
X165805Y151042D01*
X165830Y151136D01*
X165859Y151230D01*
X165891Y151323D01*
X165928Y151414D01*
X165967Y151504D01*
X166011Y151592D01*
X166058Y151678D01*
X166108Y151763D01*
X166161Y151845D01*
X166218Y151925D01*
X166278Y152003D01*
X166341Y152078D01*
X166407Y152151D01*
X166476Y152221D01*
X166547Y152288D01*
X166621Y152353D01*
X166698Y152414D01*
X166777Y152473D01*
X166858Y152528D01*
X166941Y152580D01*
X167027Y152628D01*
X167114Y152673D01*
X167203Y152715D01*
X167293Y152753D01*
X167385Y152787D01*
X167478Y152818D01*
X167573Y152845D01*
X167668Y152868D01*
X167765Y152888D01*
X167861Y152903D01*
X167959Y152915D01*
X168057Y152923D01*
X168155Y152927D01*
X168253Y152927D01*
X168351Y152923D01*
X168449Y152915D01*
X168547Y152903D01*
X168643Y152888D01*
X168740Y152868D01*
X168835Y152845D01*
X168930Y152818D01*
X169023Y152787D01*
X169115Y152753D01*
X169205Y152715D01*
X169294Y152673D01*
X169381Y152628D01*
X169467Y152580D01*
X169550Y152528D01*
X169631Y152473D01*
X169710Y152414D01*
X169787Y152353D01*
X169861Y152288D01*
X169932Y152221D01*
X170001Y152151D01*
X170067Y152078D01*
X170130Y152003D01*
X170190Y151925D01*
X170247Y151845D01*
X170300Y151763D01*
X170350Y151678D01*
X170397Y151592D01*
X170441Y151504D01*
X170480Y151414D01*
X170517Y151323D01*
X170549Y151230D01*
X170578Y151136D01*
X170603Y151042D01*
X170624Y150946D01*
X170642Y150849D01*
X170655Y150752D01*
X170665Y150654D01*
X170671Y150556D01*
X170673Y150458D01*
X174625Y150952D02*
X174625Y147989D01*
X174625Y150952D02*
X174623Y151039D01*
X174617Y151127D01*
X174608Y151214D01*
X174594Y151300D01*
X174577Y151386D01*
X174556Y151470D01*
X174531Y151554D01*
X174502Y151637D01*
X174470Y151718D01*
X174435Y151798D01*
X174396Y151876D01*
X174353Y151953D01*
X174307Y152027D01*
X174258Y152099D01*
X174206Y152169D01*
X174150Y152237D01*
X174092Y152302D01*
X174031Y152365D01*
X173967Y152424D01*
X173900Y152481D01*
X173832Y152535D01*
X173760Y152586D01*
X173687Y152633D01*
X173612Y152678D01*
X173534Y152719D01*
X173455Y152756D01*
X173375Y152790D01*
X173293Y152820D01*
X173210Y152847D01*
X173125Y152870D01*
X173040Y152889D01*
X172954Y152904D01*
X172867Y152916D01*
X172780Y152924D01*
X172693Y152928D01*
X172605Y152928D01*
X172518Y152924D01*
X172431Y152916D01*
X172344Y152904D01*
X172258Y152889D01*
X172173Y152870D01*
X172088Y152847D01*
X172005Y152820D01*
X171923Y152790D01*
X171843Y152756D01*
X171764Y152719D01*
X171686Y152678D01*
X171611Y152633D01*
X171538Y152586D01*
X171466Y152535D01*
X171398Y152481D01*
X171331Y152424D01*
X171267Y152365D01*
X171206Y152302D01*
X171148Y152237D01*
X171092Y152169D01*
X171040Y152099D01*
X170991Y152027D01*
X170945Y151953D01*
X170902Y151876D01*
X170863Y151798D01*
X170828Y151718D01*
X170796Y151637D01*
X170767Y151554D01*
X170742Y151470D01*
X170721Y151386D01*
X170704Y151300D01*
X170690Y151214D01*
X170681Y151127D01*
X170675Y151039D01*
X170673Y150952D01*
X170674Y150952D02*
X170674Y148977D01*
X126365Y112358D02*
X117475Y112358D01*
X126365Y112358D02*
X126365Y114827D01*
X126363Y114925D01*
X126357Y115023D01*
X126347Y115121D01*
X126334Y115218D01*
X126316Y115315D01*
X126295Y115411D01*
X126270Y115505D01*
X126241Y115599D01*
X126209Y115692D01*
X126172Y115783D01*
X126133Y115873D01*
X126089Y115961D01*
X126042Y116047D01*
X125992Y116132D01*
X125939Y116214D01*
X125882Y116294D01*
X125822Y116372D01*
X125759Y116447D01*
X125693Y116520D01*
X125624Y116590D01*
X125553Y116657D01*
X125479Y116722D01*
X125402Y116783D01*
X125323Y116842D01*
X125242Y116897D01*
X125159Y116949D01*
X125073Y116997D01*
X124986Y117042D01*
X124897Y117084D01*
X124807Y117122D01*
X124715Y117156D01*
X124622Y117187D01*
X124527Y117214D01*
X124432Y117237D01*
X124335Y117257D01*
X124239Y117272D01*
X124141Y117284D01*
X124043Y117292D01*
X123945Y117296D01*
X123847Y117296D01*
X123749Y117292D01*
X123651Y117284D01*
X123553Y117272D01*
X123457Y117257D01*
X123360Y117237D01*
X123265Y117214D01*
X123170Y117187D01*
X123077Y117156D01*
X122985Y117122D01*
X122895Y117084D01*
X122806Y117042D01*
X122719Y116997D01*
X122633Y116949D01*
X122550Y116897D01*
X122469Y116842D01*
X122390Y116783D01*
X122313Y116722D01*
X122239Y116657D01*
X122168Y116590D01*
X122099Y116520D01*
X122033Y116447D01*
X121970Y116372D01*
X121910Y116294D01*
X121853Y116214D01*
X121800Y116132D01*
X121750Y116047D01*
X121703Y115961D01*
X121659Y115873D01*
X121620Y115783D01*
X121583Y115692D01*
X121551Y115599D01*
X121522Y115505D01*
X121497Y115411D01*
X121476Y115315D01*
X121458Y115218D01*
X121445Y115121D01*
X121435Y115023D01*
X121429Y114925D01*
X121427Y114827D01*
X121426Y114827D02*
X121426Y112358D01*
X121426Y115321D02*
X117475Y117296D01*
X126366Y124143D02*
X126364Y124235D01*
X126358Y124327D01*
X126349Y124418D01*
X126336Y124509D01*
X126319Y124599D01*
X126298Y124689D01*
X126274Y124777D01*
X126246Y124865D01*
X126214Y124951D01*
X126179Y125036D01*
X126140Y125119D01*
X126098Y125201D01*
X126053Y125281D01*
X126004Y125359D01*
X125952Y125435D01*
X125897Y125508D01*
X125839Y125580D01*
X125779Y125649D01*
X125715Y125715D01*
X125649Y125779D01*
X125580Y125839D01*
X125508Y125897D01*
X125435Y125952D01*
X125359Y126004D01*
X125281Y126053D01*
X125201Y126098D01*
X125119Y126140D01*
X125036Y126179D01*
X124951Y126214D01*
X124865Y126246D01*
X124777Y126274D01*
X124689Y126298D01*
X124599Y126319D01*
X124509Y126336D01*
X124418Y126349D01*
X124327Y126358D01*
X124235Y126364D01*
X124143Y126366D01*
X126365Y124143D02*
X126363Y124037D01*
X126357Y123932D01*
X126347Y123827D01*
X126334Y123722D01*
X126316Y123618D01*
X126295Y123515D01*
X126270Y123412D01*
X126241Y123310D01*
X126208Y123210D01*
X126172Y123111D01*
X126132Y123013D01*
X126088Y122917D01*
X126041Y122822D01*
X125991Y122730D01*
X125937Y122639D01*
X125879Y122550D01*
X125819Y122464D01*
X125755Y122380D01*
X125689Y122298D01*
X125619Y122218D01*
X125546Y122142D01*
X125471Y122068D01*
X125393Y121997D01*
X125312Y121929D01*
X125229Y121863D01*
X125143Y121801D01*
X125056Y121743D01*
X124966Y121687D01*
X124874Y121635D01*
X124780Y121586D01*
X124685Y121541D01*
X124588Y121499D01*
X124489Y121461D01*
X124390Y121427D01*
X122414Y125624D02*
X122483Y125693D01*
X122553Y125759D01*
X122627Y125822D01*
X122703Y125881D01*
X122781Y125938D01*
X122861Y125992D01*
X122944Y126042D01*
X123028Y126089D01*
X123115Y126132D01*
X123203Y126172D01*
X123292Y126208D01*
X123383Y126241D01*
X123475Y126270D01*
X123569Y126295D01*
X123663Y126316D01*
X123758Y126334D01*
X123854Y126347D01*
X123950Y126357D01*
X124046Y126363D01*
X124143Y126365D01*
X122414Y125624D02*
X117475Y121426D01*
X117475Y126365D01*
X100965Y112358D02*
X92075Y112358D01*
X100965Y112358D02*
X100965Y114827D01*
X100963Y114925D01*
X100957Y115023D01*
X100947Y115121D01*
X100934Y115218D01*
X100916Y115315D01*
X100895Y115411D01*
X100870Y115505D01*
X100841Y115599D01*
X100809Y115692D01*
X100772Y115783D01*
X100733Y115873D01*
X100689Y115961D01*
X100642Y116047D01*
X100592Y116132D01*
X100539Y116214D01*
X100482Y116294D01*
X100422Y116372D01*
X100359Y116447D01*
X100293Y116520D01*
X100224Y116590D01*
X100153Y116657D01*
X100079Y116722D01*
X100002Y116783D01*
X99923Y116842D01*
X99842Y116897D01*
X99759Y116949D01*
X99673Y116997D01*
X99586Y117042D01*
X99497Y117084D01*
X99407Y117122D01*
X99315Y117156D01*
X99222Y117187D01*
X99127Y117214D01*
X99032Y117237D01*
X98935Y117257D01*
X98839Y117272D01*
X98741Y117284D01*
X98643Y117292D01*
X98545Y117296D01*
X98447Y117296D01*
X98349Y117292D01*
X98251Y117284D01*
X98153Y117272D01*
X98057Y117257D01*
X97960Y117237D01*
X97865Y117214D01*
X97770Y117187D01*
X97677Y117156D01*
X97585Y117122D01*
X97495Y117084D01*
X97406Y117042D01*
X97319Y116997D01*
X97233Y116949D01*
X97150Y116897D01*
X97069Y116842D01*
X96990Y116783D01*
X96913Y116722D01*
X96839Y116657D01*
X96768Y116590D01*
X96699Y116520D01*
X96633Y116447D01*
X96570Y116372D01*
X96510Y116294D01*
X96453Y116214D01*
X96400Y116132D01*
X96350Y116047D01*
X96303Y115961D01*
X96259Y115873D01*
X96220Y115783D01*
X96183Y115692D01*
X96151Y115599D01*
X96122Y115505D01*
X96097Y115411D01*
X96076Y115315D01*
X96058Y115218D01*
X96045Y115121D01*
X96035Y115023D01*
X96029Y114925D01*
X96027Y114827D01*
X96026Y114827D02*
X96026Y112358D01*
X96026Y115321D02*
X92075Y117296D01*
X92075Y121426D02*
X92075Y123896D01*
X92077Y123994D01*
X92083Y124092D01*
X92093Y124190D01*
X92106Y124287D01*
X92124Y124384D01*
X92145Y124480D01*
X92170Y124574D01*
X92199Y124668D01*
X92231Y124761D01*
X92268Y124852D01*
X92307Y124942D01*
X92351Y125030D01*
X92398Y125116D01*
X92448Y125201D01*
X92501Y125283D01*
X92558Y125363D01*
X92618Y125441D01*
X92681Y125516D01*
X92747Y125589D01*
X92816Y125659D01*
X92887Y125726D01*
X92961Y125791D01*
X93038Y125852D01*
X93117Y125911D01*
X93198Y125966D01*
X93281Y126018D01*
X93367Y126066D01*
X93454Y126111D01*
X93543Y126153D01*
X93633Y126191D01*
X93725Y126225D01*
X93818Y126256D01*
X93913Y126283D01*
X94008Y126306D01*
X94105Y126326D01*
X94201Y126341D01*
X94299Y126353D01*
X94397Y126361D01*
X94495Y126365D01*
X94593Y126365D01*
X94691Y126361D01*
X94789Y126353D01*
X94887Y126341D01*
X94983Y126326D01*
X95080Y126306D01*
X95175Y126283D01*
X95270Y126256D01*
X95363Y126225D01*
X95455Y126191D01*
X95545Y126153D01*
X95634Y126111D01*
X95721Y126066D01*
X95807Y126018D01*
X95890Y125966D01*
X95971Y125911D01*
X96050Y125852D01*
X96127Y125791D01*
X96201Y125726D01*
X96272Y125659D01*
X96341Y125589D01*
X96407Y125516D01*
X96470Y125441D01*
X96530Y125363D01*
X96587Y125283D01*
X96640Y125201D01*
X96690Y125116D01*
X96737Y125030D01*
X96781Y124942D01*
X96820Y124852D01*
X96857Y124761D01*
X96889Y124668D01*
X96918Y124574D01*
X96943Y124480D01*
X96964Y124384D01*
X96982Y124287D01*
X96995Y124190D01*
X97005Y124092D01*
X97011Y123994D01*
X97013Y123896D01*
X100965Y124389D02*
X100965Y121426D01*
X100965Y124389D02*
X100963Y124476D01*
X100957Y124564D01*
X100948Y124651D01*
X100934Y124737D01*
X100917Y124823D01*
X100896Y124907D01*
X100871Y124991D01*
X100842Y125074D01*
X100810Y125155D01*
X100775Y125235D01*
X100736Y125313D01*
X100693Y125390D01*
X100647Y125464D01*
X100598Y125536D01*
X100546Y125606D01*
X100490Y125674D01*
X100432Y125739D01*
X100371Y125802D01*
X100307Y125861D01*
X100240Y125918D01*
X100172Y125972D01*
X100100Y126023D01*
X100027Y126070D01*
X99952Y126115D01*
X99874Y126156D01*
X99795Y126193D01*
X99715Y126227D01*
X99633Y126257D01*
X99550Y126284D01*
X99465Y126307D01*
X99380Y126326D01*
X99294Y126341D01*
X99207Y126353D01*
X99120Y126361D01*
X99033Y126365D01*
X98945Y126365D01*
X98858Y126361D01*
X98771Y126353D01*
X98684Y126341D01*
X98598Y126326D01*
X98513Y126307D01*
X98428Y126284D01*
X98345Y126257D01*
X98263Y126227D01*
X98183Y126193D01*
X98104Y126156D01*
X98026Y126115D01*
X97951Y126070D01*
X97878Y126023D01*
X97806Y125972D01*
X97738Y125918D01*
X97671Y125861D01*
X97607Y125802D01*
X97546Y125739D01*
X97488Y125674D01*
X97432Y125606D01*
X97380Y125536D01*
X97331Y125464D01*
X97285Y125390D01*
X97242Y125313D01*
X97203Y125235D01*
X97168Y125155D01*
X97136Y125074D01*
X97107Y124991D01*
X97082Y124907D01*
X97061Y124823D01*
X97044Y124737D01*
X97030Y124651D01*
X97021Y124564D01*
X97015Y124476D01*
X97013Y124389D01*
X97014Y124389D02*
X97014Y122414D01*
M02*
