G04 EAGLE Gerber X2 export*
%TF.Part,Single*%
%TF.FileFunction,Soldermask,Top,1*%
%TF.FilePolarity,Negative*%
%TF.GenerationSoftware,Autodesk,EAGLE,9.0.1*%
%TF.CreationDate,2018-06-18T03:38:51Z*%
G75*
%MOMM*%
%FSLAX34Y34*%
%LPD*%
%AMOC8*
5,1,8,0,0,1.08239X$1,22.5*%
G01*
%ADD10R,1.903200X1.103200*%
%ADD11R,1.103200X1.903200*%
%ADD12C,5.537200*%
%ADD13R,1.853200X1.853200*%
%ADD14C,1.853200*%
%ADD15R,1.727200X4.267200*%
%ADD16R,1.219200X2.235200*%
%ADD17R,0.914400X2.336800*%
%ADD18R,0.965200X0.660400*%
%ADD19R,0.660400X0.965200*%
%ADD20C,0.959600*%


D10*
X330200Y114300D03*
X330200Y127000D03*
X330200Y139700D03*
X330200Y152400D03*
X330200Y165100D03*
X330200Y177800D03*
X330200Y190500D03*
X330200Y203200D03*
X330200Y215900D03*
X330200Y228600D03*
X330200Y241300D03*
X330200Y254000D03*
X330200Y266700D03*
X330200Y279400D03*
X330200Y292100D03*
X330200Y304800D03*
X330200Y317500D03*
X330200Y330200D03*
X330200Y342900D03*
X330200Y355600D03*
D11*
X279400Y368300D03*
X266700Y368300D03*
X254000Y368300D03*
X241300Y368300D03*
X228600Y368300D03*
X215900Y368300D03*
X203200Y368300D03*
D10*
X152400Y355600D03*
X152400Y342900D03*
X152400Y330200D03*
X152400Y317500D03*
X152400Y304800D03*
X152400Y292100D03*
X152400Y279400D03*
X152400Y266700D03*
X152400Y254000D03*
X152400Y241300D03*
X152400Y228600D03*
X152400Y215900D03*
X152400Y203200D03*
X152400Y190500D03*
X152400Y177800D03*
X152400Y165100D03*
X152400Y152400D03*
X152400Y139700D03*
X152400Y127000D03*
X152400Y114300D03*
D12*
X342900Y38100D03*
X342900Y419100D03*
X38100Y469900D03*
X38100Y38100D03*
D13*
X76200Y419100D03*
D14*
X76200Y393700D03*
X76200Y368300D03*
X76200Y342900D03*
X76200Y317500D03*
X76200Y292100D03*
X76200Y266700D03*
X76200Y241300D03*
X76200Y215900D03*
X76200Y190500D03*
X76200Y165100D03*
X76200Y139700D03*
X76200Y114300D03*
X76200Y88900D03*
D13*
X101600Y50800D03*
D14*
X127000Y50800D03*
X152400Y50800D03*
X177800Y50800D03*
X203200Y50800D03*
X228600Y50800D03*
X254000Y50800D03*
X279400Y50800D03*
D15*
X279400Y488950D03*
X228600Y488950D03*
D16*
X254000Y478790D03*
D17*
X267954Y488696D03*
X240046Y488696D03*
D13*
X152400Y419100D03*
D14*
X177800Y419100D03*
D18*
X254000Y418592D03*
X254000Y409448D03*
D19*
X253238Y396240D03*
X262382Y396240D03*
X253238Y429260D03*
X262382Y429260D03*
D20*
X315468Y243840D03*
X167640Y268224D03*
X241300Y457200D03*
X241300Y444500D03*
X266700Y457200D03*
X266700Y444500D03*
X137160Y294132D03*
M02*
